<svg fill="none" height="116" viewBox="0 0 260 116" width="260" xmlns="http://www.w3.org/2000/svg" xmlns:xlink="http://www.w3.org/1999/xlink"><linearGradient id="a" gradientUnits="userSpaceOnUse" x1="202.204" x2="202.204" y1="38.3906" y2="55.9111"><stop offset="0" stop-color="#8388a4"/><stop offset=".986707" stop-color="#a5a9c1"/></linearGradient><mask id="b" height="21" maskUnits="userSpaceOnUse" width="32" x="173" y="38"><path clip-rule="evenodd" d="m202.248 58.9285c1.307.0241 2.281-.9795 2.174-2.2503l.062.7401c-.177-2.109-1.53-5.0697-3.017-6.6082l-9.843-10.1835c-1.194-1.2349-3.569-2.236-5.309-2.236h-11.299c-.873 0-1.574.6888-1.566 1.5369l.145 15.4115c.016 1.6904 1.441 3.0869 3.186 3.1191z" fill="url(#a)" fill-rule="evenodd"/></mask><mask id="c" height="2" maskUnits="userSpaceOnUse" width="3" x="226" y="69"><path clip-rule="evenodd" d="m228.391 69.8543c0-.2367-.154-.4285-.354-.4285h-1.435c-.196 0-.354.1988-.354.4285 0 .2367.154.4286.354.4286h1.435c.195 0 .354-.1988.354-.4286z" fill="#fff" fill-rule="evenodd"/></mask><mask id="d" height="6" maskUnits="userSpaceOnUse" width="9" x="249" y="75"><path clip-rule="evenodd" d="m257.523 75.1396h-8.126l1.434 5.714h6.845z" fill="#fff" fill-rule="evenodd"/></mask><g clip-rule="evenodd" fill-rule="evenodd"><path d="m167.106 93.4632v-19.4021c0-2.1599.029-5.6624.066-7.8081l.528-31.4127c.029-1.7283 1.458-3.1294 3.189-3.1294h15.663c4.337 0 10.42 2.3843 13.586 5.3234l25.086 23.2907s26.352 4.331 30.895 10.0804c4.542 5.7493 1.906 27.0509-3.368 30.8066-2.256 1.607-80.165-2.0362-80.165-2.0362-3.027-.1376-5.48-2.7027-5.48-5.7126z" fill="#1c1f34"/><path d="m168.817 93.5839v-18.1169c0-2.1592.029-5.6556.065-7.8169l.521-31.2494c.022-1.2957 1.096-2.346 2.391-2.346h15.539c4.332 0 10.394 2.4093 13.529 5.3713l24.074 22.7452s27.119 4.2124 30.284 10.1671c3.166 5.9548.604 25.3051-4.488 28.8927-2.179 1.536-76.441-1.9344-76.441-1.9344-3.023-.1373-5.474-2.6882-5.474-5.7127z" fill="#fff"/><path d="m172.812 34.0547h-5.491v60.9111h5.491z" fill="#242d5f" opacity=".1"/><path d="m255.383 68.8623s-16.523-3.3695-22.784-4.4735c-6.118-1.0789-14.355-2.0752-14.355-2.0752l-.071.4017s8.27 1.0022 14.406 2.0841c6.244 1.101 22.733 4.4646 22.733 4.4646z" fill="#242d5f" opacity=".1"/><path d="m167.387 88.0804c0-2.2557-1.876-4.0843-4.167-4.0843h-153.65781c-2.30142 0-4.16709 1.8249-4.16709 4.0843v9.8305c0 2.2561 1.87526 4.0841 4.16709 4.0841h153.65781c2.301 0 4.167-1.825 4.167-4.0841z" fill="#1c1f34"/><path d="m157.235.00195312h-153.85432c-1.72333 0-3.120365 1.39314688-3.120365 3.10837688v87.20697c0 1.7167 1.398165 3.1084 3.120365 3.1084h160.89332c1.723 0 3.121-1.3932 3.121-3.1084v-80.1952c0-5.58922-4.549-10.12014688-10.16-10.12014688z" fill="#1c1f34"/><path d="m157.246 1.55859h-153.85896c-.86433 0-1.56502.70074-1.56502 1.55798v87.19363c0 .8605.69946 1.558 1.56502 1.558h160.87996c.864 0 1.565-.7007 1.565-1.558v-80.1945c0-4.72594-3.841-8.55711-8.586-8.55711z" fill="#fff"/><path d="m165.828 10.5137c0-4.94471-4.02-8.95315-8.982-8.95315h-8.982v17.90625h17.964z" fill="#242d5f" opacity=".1"/><path d="m165.828 10.1244c0-4.72969-3.845-8.56385-8.591-8.56385h-8.592v17.12765h17.183z" fill="#fff"/><path d="m10.4102 1.56055h-7.03575c-.85928 0-1.55587.70081-1.55587 1.55084v7.01301h8.59162z" fill="#242d5f" opacity=".1"/><path d="m9.62891 1.56055h-6.24872c-.86256 0-1.5618.69089-1.5618 1.55676v6.22855h7.81052z" fill="#fff"/><path d="m10.4102 91.8691h-7.03575c-.85928 0-1.55587-.7008-1.55587-1.5508v-7.013h8.59162z" fill="#242d5f" opacity=".1"/><path d="m9.62891 91.8691h-6.24872c-.86256 0-1.5618-.6909-1.5618-1.5567v-6.2286h7.81052z" fill="#fff"/><path d="m157.242 91.8691h7.036c.859 0 1.556-.7008 1.556-1.5508v-7.013h-8.592z" fill="#242d5f" opacity=".1"/><path d="m158.023 91.8691h6.249c.863 0 1.562-.6909 1.562-1.5567v-6.2286h-7.811z" fill="#fff"/><path d="m157.245 7.00586h-146.8391c-1.72194 0-3.11791 1.39512-3.11791 3.11294v73.1843c0 1.7192 1.39547 3.1129 3.11791 3.1129h146.8391c1.722 0 3.118-1.3951 3.118-3.1129v-73.1843c0-1.71922-1.395-3.11294-3.118-3.11294z" fill="#242d5f" opacity=".1"/><path d="m157.241 7.78613h-146.8386c-1.29095 0-2.33744 1.04169-2.33744 2.32997v73.1932c0 1.2868 1.05081 2.33 2.33744 2.33h146.8386c1.291 0 2.337-1.0417 2.337-2.33v-73.1932c0-1.2868-1.051-2.32997-2.337-2.32997z" fill="#fff"/></g><g fill="#1c1f34" opacity=".4"><circle cx=".428549" cy=".428549" r=".428549" transform="matrix(-1 0 0 1 160.363 11.6748)"/><circle cx=".428549" cy=".428549" r=".428549" transform="matrix(-1 0 0 1 160.363 19.4619)"/><circle cx=".428549" cy=".428549" r=".428549" transform="matrix(-1 0 0 1 160.363 27.248)"/><circle cx=".428549" cy=".428549" r=".428549" transform="matrix(-1 0 0 1 160.363 35.0312)"/><circle cx=".428549" cy=".428549" r=".428549" transform="matrix(-1 0 0 1 160.363 42.8184)"/><circle cx=".428549" cy=".428549" r=".428549" transform="matrix(-1 0 0 1 160.363 50.6045)"/><circle cx=".428549" cy=".428549" r=".428549" transform="matrix(-1 0 0 1 160.363 58.3887)"/><circle cx=".428549" cy=".428549" r=".428549" transform="matrix(-1 0 0 1 160.363 66.1748)"/><circle cx=".428549" cy=".428549" r=".428549" transform="matrix(-1 0 0 1 160.363 73.958)"/><circle cx=".428549" cy=".428549" r=".428549" transform="matrix(-1 0 0 1 160.363 81.7422)"/><circle cx=".428549" cy=".428549" r=".428549" transform="matrix(-1 0 0 1 155.676 7.00586)"/><circle cx=".428549" cy=".428549" r=".428549" transform="matrix(-1 0 0 1 147.871 7.00586)"/><circle cx=".428549" cy=".428549" r=".428549" transform="matrix(-1 0 0 1 140.055 7.00586)"/><circle cx=".428549" cy=".428549" r=".428549" transform="matrix(-1 0 0 1 132.242 7.00586)"/><circle cx=".428549" cy=".428549" r=".428549" transform="matrix(-1 0 0 1 124.438 7.00586)"/><circle cx=".428549" cy=".428549" r=".428549" transform="matrix(-1 0 0 1 116.625 7.00586)"/><circle cx=".428549" cy=".428549" r=".428549" transform="matrix(-1 0 0 1 108.812 7.00586)"/><circle cx=".428549" cy=".428549" r=".428549" transform="matrix(-1 0 0 1 101 7.00586)"/><circle cx=".428549" cy=".428549" r=".428549" transform="matrix(-1 0 0 1 93.1953 7.00586)"/><circle cx=".428549" cy=".428549" r=".428549" transform="matrix(-1 0 0 1 85.3828 7.00586)"/><circle cx=".428549" cy=".428549" r=".428549" transform="matrix(-1 0 0 1 77.5703 7.00586)"/><circle cx=".428549" cy=".428549" r=".428549" transform="matrix(-1 0 0 1 69.7617 7.00586)"/><circle cx=".428549" cy=".428549" r=".428549" transform="matrix(-1 0 0 1 61.9492 7.00586)"/><circle cx=".428549" cy=".428549" r=".428549" transform="matrix(-1 0 0 1 54.1406 7.00586)"/><circle cx=".428549" cy=".428549" r=".428549" transform="matrix(-1 0 0 1 46.3281 7.00586)"/><circle cx=".428549" cy=".428549" r=".428549" transform="matrix(-1 0 0 1 38.5195 7.00586)"/><circle cx=".428549" cy=".428549" r=".428549" transform="matrix(-1 0 0 1 30.707 7.00586)"/><circle cx=".428549" cy=".428549" r=".428549" transform="matrix(-1 0 0 1 15.2539 7.00586)"/><circle cx=".428549" cy=".428549" r=".428549" transform="matrix(-1 0 0 1 22.8984 7.00586)"/><circle cx=".428549" cy=".428549" r=".428549" transform="matrix(-1 0 0 1 155.676 85.6367)"/><circle cx=".428549" cy=".428549" r=".428549" transform="matrix(-1 0 0 1 147.871 85.6367)"/><circle cx=".428549" cy=".428549" r=".428549" transform="matrix(-1 0 0 1 140.055 85.6367)"/><circle cx=".428549" cy=".428549" r=".428549" transform="matrix(-1 0 0 1 132.242 85.6367)"/><circle cx=".428549" cy=".428549" r=".428549" transform="matrix(-1 0 0 1 124.438 85.6367)"/><circle cx=".428549" cy=".428549" r=".428549" transform="matrix(-1 0 0 1 116.625 85.6367)"/><circle cx=".428549" cy=".428549" r=".428549" transform="matrix(-1 0 0 1 108.812 85.6367)"/><circle cx=".428549" cy=".428549" r=".428549" transform="matrix(-1 0 0 1 101 85.6367)"/><circle cx=".428549" cy=".428549" r=".428549" transform="matrix(-1 0 0 1 93.1953 85.6367)"/><circle cx=".428549" cy=".428549" r=".428549" transform="matrix(-1 0 0 1 85.3828 85.6367)"/><circle cx=".428549" cy=".428549" r=".428549" transform="matrix(-1 0 0 1 77.5703 85.6367)"/><circle cx=".428549" cy=".428549" r=".428549" transform="matrix(-1 0 0 1 69.7617 85.6367)"/><circle cx=".428549" cy=".428549" r=".428549" transform="matrix(-1 0 0 1 61.9492 85.6367)"/><circle cx=".428549" cy=".428549" r=".428549" transform="matrix(-1 0 0 1 54.1406 85.6367)"/><circle cx=".428549" cy=".428549" r=".428549" transform="matrix(-1 0 0 1 46.3281 85.6367)"/><circle cx=".428549" cy=".428549" r=".428549" transform="matrix(-1 0 0 1 38.5195 85.6367)"/><circle cx=".428549" cy=".428549" r=".428549" transform="matrix(-1 0 0 1 30.707 85.6367)"/><circle cx=".428549" cy=".428549" r=".428549" transform="matrix(-1 0 0 1 22.8984 85.6367)"/><circle cx=".428549" cy=".428549" r=".428549" transform="matrix(-1 0 0 1 15.25 85.6367)"/><circle cx=".428549" cy=".428549" r=".428549" transform="matrix(-1 0 0 1 8.07031 11.6738)"/><circle cx=".428549" cy=".428549" r=".428549" transform="matrix(-1 0 0 1 8.07031 19.4609)"/><circle cx=".428549" cy=".428549" r=".428549" transform="matrix(-1 0 0 1 8.07031 27.248)"/><circle cx=".428549" cy=".428549" r=".428549" transform="matrix(-1 0 0 1 8.07031 35.0312)"/><circle cx=".428549" cy=".428549" r=".428549" transform="matrix(-1 0 0 1 8.07031 42.8184)"/><circle cx=".428549" cy=".428549" r=".428549" transform="matrix(-1 0 0 1 8.07031 50.6045)"/><circle cx=".428549" cy=".428549" r=".428549" transform="matrix(-1 0 0 1 8.07031 58.3887)"/><circle cx=".428549" cy=".428549" r=".428549" transform="matrix(-1 0 0 1 8.07031 66.1748)"/><circle cx=".428549" cy=".428549" r=".428549" transform="matrix(-1 0 0 1 8.07031 73.959)"/><circle cx=".428549" cy=".428549" r=".428549" transform="matrix(-1 0 0 1 8.07031 81.7422)"/></g><path clip-rule="evenodd" d="m205.917 67.42.038.8404c.086 1.8946-.783 4.5486-1.933 5.9205l-8.716 10.3964c-.922 1.0996-2.753 1.9911-4.105 1.9911h-9.395c-1.346 0-2.427-1.2277-2.415-2.7478l.117-15.8775c.012-1.5176 1.11-2.7722 2.448-2.8022l22.04.2669c1.01-.0226 1.87.8786 1.921 2.0122z" fill="#fff" fill-rule="evenodd"/><path clip-rule="evenodd" d="m205.917 67.42.038.8404c.086 1.8946-.783 4.5486-1.933 5.9205l-8.716 10.3964c-.922 1.0996-2.753 1.9911-4.105 1.9911h-9.395c-1.346 0-2.427-1.2277-2.415-2.7478l.117-15.8775c.012-1.5176 1.11-2.7722 2.448-2.8022l22.04.2669c1.01-.0226 1.87.8786 1.921 2.0122z" fill="#1c1f34" fill-opacity=".05" fill-rule="evenodd"/><path clip-rule="evenodd" d="m188.034 75.4248h-21.499v.8571h36.856z" fill="#242d5f" fill-rule="evenodd" opacity=".1"/><path clip-rule="evenodd" d="m217.105 88.2812h-51.425v2.5713h51.425z" fill="#242d5f" fill-rule="evenodd" opacity=".1"/><path clip-rule="evenodd" d="m203.795 60.4622c1.31.0253 2.426-.9801 2.492-2.2449l.049-.9376c.111-2.1136-1.015-5.0746-2.507-6.6052l-11.307-11.5987c-1.196-1.2268-3.572-2.2213-5.326-2.2213h-12.187c-1.746 0-3.149 1.3696-3.133 3.0655l.152 16.8646c.015 1.693 1.439 3.0927 3.176 3.1262z" fill="#1c1f34" fill-rule="evenodd"/><path clip-rule="evenodd" d="m202.24 58.9246c1.307.0241 2.281-.9795 2.174-2.2503l.063.74c-.178-2.1089-1.531-5.0696-3.018-6.6081l-9.843-10.1835c-1.193-1.2349-3.569-2.236-5.308-2.236h-11.3c-.873 0-1.574.6888-1.566 1.5369l.146 15.4115c.016 1.6904 1.441 3.0868 3.185 3.1191z" fill="#8388a4" fill-rule="evenodd"/><g clip-rule="evenodd" fill="#fff" fill-rule="evenodd" opacity=".1"><path d="m195.75 50.0842-9.128-10.5789c-.277-.3216-.77-.3637-1.106-.0897-.334.2721-.373.7601-.101 1.0751l9.128 10.5789c.277.3216.77.3637 1.106.0897.333-.2722.373-.7601.101-1.0751z"/><path d="m188.905 46.5382-3.546-4.1098c-.14-.1622-.394-.1795-.555-.0475-.167.1361-.185.3819-.049.5402l3.546 4.1098c.14.1623.394.1796.556.0475.167-.1361.185-.3819.048-.5402z"/></g><path clip-rule="evenodd" d="m211.08 75.8659c9.529-6.6202 9.016-19.6806 9.016-19.6806l-1.577-.0275s.544 12.7105-9.001 18.9142c-9.546 6.2038-9.072 22.9348-9.072 22.9348l1.576.0275s-.471-15.5481 9.058-22.1684z" fill="#1c1f34" fill-rule="evenodd"/><path clip-rule="evenodd" d="m172.845 65.2148c-.653 0-1.182.5186-1.182 1.1547v4.5893c0 .6377.524 1.1546 1.182 1.1546.653 0 1.182-.5185 1.182-1.1546v-4.5893c0-.6377-.524-1.1547-1.182-1.1547z" fill="#1c1f34" fill-rule="evenodd"/><path clip-rule="evenodd" d="m175.136 42.1542c-.05-.8111-.772-1.4687-1.615-1.4687h.454c-.841 0-1.524.6617-1.524 1.4687v5.4943c0 .8111.676 1.4687 1.52 1.4687h.073c.84 0 1.48-.6616 1.43-1.4687z" fill="#1c1f34" fill-rule="evenodd"/><path clip-rule="evenodd" d="m176.846 52.8878c-.25-.8112-1.157-1.4689-2.033-1.4689h-.781c-.872 0-1.44.6803-1.272 1.4962l1.269 6.169h4.729z" fill="#1c1f34" fill-rule="evenodd"/><path clip-rule="evenodd" d="m196.819 59.1405-.214.3759c-.317.5556-1.033.7502-1.604.4423-.575-.31-.779-1.005-.464-1.5571l3.828-6.7158c.316-.5556 1.033-.7502 1.604-.4423.575.31.779 1.005.464 1.5571l-2.081 3.6511 2.593 2.0519-1.148 1.8584z" fill="#1c1f34" fill-rule="evenodd"/><path clip-rule="evenodd" d="m207.133 54.4847-1.332-2.3968-10.348 7.7624h11.68z" fill="#1c1f34" fill-rule="evenodd"/><path clip-rule="evenodd" d="m208.682 58.2718c.238-2.4889-1.277-6.7592-1.277-6.7592-.272-.8488-1.245-1.7557-2.172-2.0255l-1.017-.2961c-.927-.2699-1.747.2225-1.832 1.1108l-1.231 12.8697c-.084.8833.635 1.6625 1.599 1.7396l1.757.1407c.967.0774 2.039-.5349 2.38-1.3607 0 0 1.626-3.6782 1.793-5.4193z" fill="#242d5f" fill-rule="evenodd" opacity=".1"/><path clip-rule="evenodd" d="m208.681 56.7781c.191-2.1265-.732-5.5668-.732-5.5668-.196-.8244-1.018-1.7283-1.835-2.0178l.035.0122c-.818-.29-1.542.1558-1.618.9967l-.961 10.686c-.076.8404.561 1.5811 1.433 1.6553l.392.0334c.867.0738 1.799-.5234 2.069-1.3245 0 0 1.083-2.9868 1.217-4.4745z" fill="#1c1f34" fill-rule="evenodd"/><g mask="url(#b)"><path clip-rule="evenodd" d="m175.975 51.9363s.466-1.9922.041-2.7671l-2.293-4.6898 3.277-1.4386.079-1.0745s2.302.5863 4.451.3309c2.15-.2556 2.15-.5062 2.15-.5062l.103 2.0466.529 1.9837-.7.8639.184 2.4652-.732.9371-1.218-.0904-1.074 1.4157z" fill="#ffc79f" fill-rule="evenodd"/><path clip-rule="evenodd" d="m175.416 48.975s1.213.6249 1.491-.4822c.278-1.1072-.501-.727-1.327-1.7185-.826-.9916.743-1.7369.743-1.7369l.616-.5778.185-2.4891s2.712.6187 4.407.3276c1.694-.2912 4.189-1.3704 4.822-2.5356.207-.3822-1.573-1.362-1.573-1.362s-2.403-1.2762-7.873-.6788c-2.485.2714-3.151 2.0408-3.151 2.0408l-1.166.7624s-.724 1.6833-.221 3.5951 1.153 3.0694 1.153 3.0694z" fill="#fff399" fill-rule="evenodd"/><g stroke="#1c1f34" stroke-linecap="round" stroke-linejoin="round"><path d="m175.669 49.1287s-2.215-1.1734-2.955-3.5199c-.309-.98-.431-1.8594-.455-2.5999-.035-1.085.516-2.4899 1.16-3.3362.743-.8924 3.055-2.5647 6.361-2.1149 4.132.5624 6.847 1.4671 6.43 2.3469s-1.411 1.6847-2.506 1.8803" stroke-width=".685577"/><path d="m179.809 49.5371s1.173.4557 3.048.5268c1.214.0459.92-1.5218.92-1.5218l-.206-1.9615s.503-.0107.691-.4385c.189-.4276-.167-1.2027-.399-1.9412-.205-.6559-.181-2.4099-.181-2.4099" stroke-width=".685577"/><path d="m181.062 47.5273s.661 1.0626 2.79.502" stroke-width=".514182"/><path d="m175.418 41.5176s4.347 1.5829 8.262.2728" stroke-width=".685577"/><path d="m176.997 43.041-.085 1.9634s-1.631-.1429-1.566 1.0849c.065 1.2281 1.677 1.5784 1.677 1.5784-.017 1.889-1.353 1.4606-1.353 1.4606s.934.9629.302 2.8082" stroke-width=".685577"/><path d="m182.15 50.0166s-1.104.1243-1.302 1.5463" stroke-width=".685577"/></g></g><path clip-rule="evenodd" d="m176.782 56.8398s-.214.6579 2.231 3.4537c0 0 2.298 4.7129 5.875 6.3826 0 0 7.132-3.5336 10.961-6.4103 0 0 2.779-.6809 2.779-2.3239 0 0 .159-1.3501-1.175-1.3501-1.085 0-1.23.2379-2.321.2379-.984 0-1.23 1.5939-1.23 1.5939s-4.223 1.3493-7.134 3.0644c0 0-.738-2.0012-2.452-3.6825" fill="#ffc79f" fill-rule="evenodd"/><path clip-rule="evenodd" d="m177.031 58.0881c.598 0 .892.7587 1.09 1.2937.109.2959.675.6652.886.9112.309.3617.587.7588.869 1.1421.122.1663.242.334.36.5015.455-.0215 3.509-.285 4.607-3.5013l.434.5835.141-.2112c-.076-.071-.148-.1527-.213-.2494-.716-1.0677-1.25-.3695-1.586-1.6787-.155-.6005-.049-1.9833-.386-2.8301-.336-.8467-1.496-1.9243-2.2-2.5442-.013-.0112-.023-.0231-.036-.0346-.896-.2337-2.955-.6503-3.966.1313-.581.4488-1.14.7966-1.528 1.4941-.387.6975-.733 2.0799-.733 2.0799s.027.4408.184 1.8837c.064-.0091 1.642.4008 1.713.4008z" fill="#505fb4" fill-rule="evenodd"/><path d="m180.547 51.5283c2.666.1982 3.215 3.7727 3.249 5.5312" stroke="#1c1f34" stroke-linecap="round" stroke-linejoin="round" stroke-width=".685577"/><path d="m174.789 57.0521c-.257-2.2396-.195-4.4034 2.243-5.4505" stroke="#1c1f34" stroke-linecap="round" stroke-linejoin="round" stroke-width=".685577"/><path d="m176.782 56.8398s-.214.6579 2.231 3.4537c0 0 2.298 4.7129 5.875 6.3826 0 0 6.886-3.3738 10.961-6.4103 0 0 2.779-.6809 2.779-2.3239 0 0 .159-1.3501-1.175-1.3501-1.085 0-1.23.2379-2.321.2379-.984 0-1.23 1.5939-1.23 1.5939s-4.223 1.3493-7.134 3.0644c0 0-1.256-2.7465-2.97-4.4278" stroke="#1c1f34" stroke-linecap="round" stroke-linejoin="round" stroke-width=".685577"/><path d="m174.086 57.4229 2.339.0659" stroke="#1c1f34" stroke-linecap="round" stroke-linejoin="round" stroke-width=".685577"/><path clip-rule="evenodd" d="m229.105 69.856c0-.7101-.481-1.2857-1.071-1.2857h-1.428c-.592 0-1.072.5707-1.072 1.2857 0 .71.482 1.2856 1.072 1.2856h1.428c.592 0 1.071-.5706 1.071-1.2856z" fill="#1c1f34" fill-rule="evenodd"/><path clip-rule="evenodd" d="m228.391 69.8543c0-.2367-.154-.4285-.354-.4285h-1.435c-.196 0-.354.1988-.354.4285 0 .2367.154.4286.354.4286h1.435c.195 0 .354-.1988.354-.4286z" fill="#f5a623" fill-rule="evenodd"/><g mask="url(#c)"><path d="m0 0h1.4285v.857099h-1.4285z" fill="#fff" transform="matrix(-1 0 0 1 229.105 69.4258)"/></g><path clip-rule="evenodd" d="m217.168 95.7799c0-.4431-.356-.8024-.788-.8024h-48.323c-1.314 0-2.38 1.0786-2.38 2.4097v4.0128c0 2.222 1.773 4.023 3.955 4.023h46.748c.435 0 .788-.359.788-.802z" fill="#1c1f34" fill-rule="evenodd"/><path clip-rule="evenodd" d="m209.309 92.5684h-42.842v3.2141h42.842z" fill="#1c1f34" fill-rule="evenodd"/><path clip-rule="evenodd" d="m199.427 37.6817-2.83-1.6837h-1.886c-.833.2559-.996.948-.371 1.5379l24.686 23.6443 6.978 1.0924z" fill="#1c1f34" fill-rule="evenodd"/><path clip-rule="evenodd" d="m252.888 96.0186h-26.372c-1.718 0-3.111 1.431-3.111 3.1965v2.3919c0 1.766 1.394 3.197 3.104 3.197 0 0 9.712 1.285 14.568 1.129 3.422-.11 10.265-1.928 10.265-1.928 1.714 0 3.354-1.411 3.66-3.147l.44-1.6926c.307-1.7379-.834-3.1468-2.554-3.1468z" fill="#1c1f34" fill-rule="evenodd"/><path clip-rule="evenodd" d="m258.975 91.2242c.071-.88-.565-1.5933-1.427-1.5933h-28.705c-.859 0-1.556.7203-1.556 1.6041v6.3756c0 .886.692 1.6042 1.55 1.6042h27.941c.856 0 1.608-.7204 1.679-1.5934z" fill="#1c1f34" fill-rule="evenodd"/><path clip-rule="evenodd" d="m240.218 74.1896c-4.308-2.1876-9.461-2.1876-13.771-2.1876-4.048 0-9.781.0299-13.125 1.6474-7.606 3.678-10.869 11.731-10.869 20.7281.311-8.4902 3.615-15.9777 10.869-19.4856 3.344-1.6175 9.077-1.6474 13.125-1.6474 4.31 0 5.466-.5893 11.718.9451 4.053.9947 16.118 7.1414 2.053 0z" fill="#242d5f" fill-rule="evenodd" opacity=".1"/><ellipse cx="227.287" cy="90.7695" fill="#242d5f" opacity=".1" rx="21.7286" ry="13.9766"/><ellipse cx="227.287" cy="92.8503" fill="#1c1f34" rx="19.4005" ry="13.6609"/><path clip-rule="evenodd" d="m257.819 73.7109h-8.733c-.742 0-1.218.5362-1.064 1.1918l1.455 6.1875c.155.6582.881 1.1917 1.626 1.1917h6.714c.743 0 1.388-.5492 1.441-1.2189l-.191-6.1332c.053-.6731-.503-1.2189-1.248-1.2189z" fill="#1c1f34" fill-rule="evenodd"/><path clip-rule="evenodd" d="m257.523 75.1396h-8.126l1.434 5.714h6.845z" fill="#ffc900" fill-rule="evenodd"/><g mask="url(#d)"><ellipse cx="1.22721" cy="2.14275" fill="#fff" rx="1.22721" ry="2.14275" transform="matrix(-.999848 .0174524 .0174524 .999848 257.906 75.8457)"/><path clip-rule="evenodd" d="m246.98 74.4268h5.615l.818 9.2852h-6.433z" fill="#f00" fill-rule="evenodd" opacity=".2"/></g><ellipse cx="51.2505" cy="86.6124" fill="#242d5f" opacity=".1" rx="21.856" ry="10.3311"/><ellipse cx="51.2526" cy="88.142" fill="#1c1f34" rx="19.5143" ry="9.56583"/><circle cx="16.7134" cy="16.7134" fill="#1c1f34" r="16.7134" transform="matrix(-1 0 0 1 243.672 82.2852)"/><circle cx="9.55053" cy="9.55053" fill="#a4acbc" r="9.55053" transform="matrix(-1 0 0 1 236.512 89.4482)"/><circle cx="6.36702" cy="6.36702" fill="#242d5f" opacity=".2" r="6.36702" transform="matrix(-1 0 0 1 233.324 92.6318)"/><circle cx="3.18351" cy="3.18351" fill="#1c1f34" r="3.18351" transform="matrix(-1 0 0 1 230.141 95.8135)"/><circle cx=".795877" cy=".795877" fill="#1c1f34" r=".795877" transform="matrix(-1 0 0 1 227.762 91.8379)"/><circle cx=".795877" cy=".795877" fill="#1c1f34" r=".795877" transform="matrix(-1 0 0 1 227.762 104.572)"/><circle cx=".795877" cy=".795877" fill="#1c1f34" r=".795877" transform="matrix(-.5 .866025 .866025 .5 221.16 94.7285)"/><circle cx=".795877" cy=".795877" fill="#1c1f34" r=".795877" transform="matrix(-.5 .866025 .866025 .5 232.188 101.098)"/><circle cx=".795877" cy=".795877" fill="#1c1f34" r=".795877" transform="matrix(.5 .866025 .866025 -.5 220.363 101.895)"/><circle cx=".795877" cy=".795877" fill="#1c1f34" r=".795877" transform="matrix(.5 .866025 .866025 -.5 231.391 95.5264)"/><circle cx="16.7134" cy="16.7134" fill="#1c1f34" r="16.7134" transform="matrix(-1 0 0 1 67.9688 82.2852)"/><circle cx="9.55053" cy="9.55053" fill="#a4acbc" r="9.55053" transform="matrix(-1 0 0 1 60.8086 89.4482)"/><circle cx="6.36702" cy="6.36702" fill="#242d5f" opacity=".2" r="6.36702" transform="matrix(-1 0 0 1 57.6172 92.6309)"/><circle cx="3.18351" cy="3.18351" fill="#1c1f34" r="3.18351" transform="matrix(-1 0 0 1 54.4336 95.8125)"/><circle cx=".795877" cy=".795877" fill="#1c1f34" r=".795877" transform="matrix(-1 0 0 1 52.0469 91.8369)"/><circle cx=".795877" cy=".795877" fill="#1c1f34" r=".795877" transform="matrix(-1 0 0 1 52.0469 104.57)"/><circle cx=".795877" cy=".795877" fill="#1c1f34" r=".795877" transform="matrix(-.5 .866025 .866025 .5 45.4492 94.7285)"/><circle cx=".795877" cy=".795877" fill="#1c1f34" r=".795877" transform="matrix(-.5 .866025 .866025 .5 56.4766 101.096)"/><circle cx=".795877" cy=".795877" fill="#1c1f34" r=".795877" transform="matrix(.5 .866025 .866025 -.5 44.6562 101.894)"/><circle cx=".795877" cy=".795877" fill="#1c1f34" r=".795877" transform="matrix(.5 .866025 .866025 -.5 55.6836 95.5254)"/></svg>