<svg fill="none" height="45" viewBox="0 0 122 45" width="122" xmlns="http://www.w3.org/2000/svg" xmlns:xlink="http://www.w3.org/1999/xlink"><linearGradient id="a" gradientUnits="userSpaceOnUse" x1="7.69627" x2="7.69627" y1="3.82505" y2="18.7785"><stop offset="0" stop-color="#ff8563"/><stop offset=".9859" stop-color="#f97250"/></linearGradient><mask id="b" fill="#000" height="18" maskUnits="userSpaceOnUse" width="50" x="5.17578" y="2.11621"><path d="m5.17578 2.11621h50v18h-50z" fill="#fff"/><path clip-rule="evenodd" d="m54.185 8.69961s.0134-2.48544-2.0264-2.48544c-.7286 0-1.3655.3758-1.8976.89853v-.72429c0-1.80718-1.4566-3.2722-3.2534-3.2722h-15.2968l-1.5303.75868-1.5305-.75868h-15.2968c-1.7968 0-3.2534 1.46502-3.2534 3.2722v.72429c-.5318-.52273-1.16896-.89853-1.89739-.89853-2.03995 0-2.02663 2.48544-2.02663 2.48544s1.16745 3.65179 1.67436 5.72069c.50716 2.0687.44455 4.0929.44455 4.0929l.57581.5677h1.2293 3.2343 33.6926 3.2343 1.2296l.5758-.5677s-.0626-2.0242.4443-4.0929c.5071-2.0689 1.6743-5.72069 1.6743-5.72069z" fill="#000" fill-rule="evenodd"/></mask><mask id="c" height="12" maskUnits="userSpaceOnUse" width="3" x="0" y="18"><path clip-rule="evenodd" d="m2.35231 23.2473c.04588-1.3215.41559-4.4855.41559-4.4855.0214-.187-.15445-.3453-.39104-.3536l-.57287-.0201c-.23736-.0084-.44738.1368-.46918.3274 0 0-.368151 3.1343-.413587 4.4429-.061878 1.7822.197477 5.8134.197477 5.8134.0116.1882.21418.3476.45077.3559l.57288.0201c.23736.0084.42018-.1369.40848-.3274 0 0-.25995-4.0038-.19852-5.7731z" fill="#fff" fill-rule="evenodd"/></mask><mask id="d" height="2" maskUnits="userSpaceOnUse" width="2" x="98" y="17"><path clip-rule="evenodd" d="m99.2998 18.198c0-.114-.0896-.2063-.2057-.2063h-.8344c-.1136 0-.2057.0957-.2057.2063 0 .1139.0896.2062.2057.2062h.8344c.1136 0 .2057-.0957.2057-.2062z" fill="#fff" fill-rule="evenodd"/></mask><mask id="e" height="5" maskUnits="userSpaceOnUse" width="6" x="114" y="21"><path clip-rule="evenodd" d="m119.557 21.7437h-5.445l.961 4.2169h4.586z" fill="#fff" fill-rule="evenodd"/></mask><mask id="f" height="12" maskUnits="userSpaceOnUse" width="20" x="70" y="4"><path clip-rule="evenodd" d="m88.2997 15.2553c1.3929.0203 1.8614-.8825 1.0514-2.0093l.3683.5124c-.6765-.9412-1.8938-2.3662-2.7287-3.1738 0 0-5.6494-5.74376-7.9765-6.14805-2.3271-.40428-8.0951-.30848-8.0951-.30848-.4606.00473-.8339.38217-.8339.85119v8.33284c0 .9268.7502 1.6889 1.6794 1.7025z" fill="#d9d9d9" fill-rule="evenodd"/></mask><path clip-rule="evenodd" d="m54.185 8.69961s.0134-2.48544-2.0264-2.48544c-.7286 0-1.3655.3758-1.8976.89853v-.72429c0-1.80718-1.4566-3.2722-3.2534-3.2722h-15.2968l-1.5303.75868-1.5305-.75868h-15.2968c-1.7968 0-3.2534 1.46502-3.2534 3.2722v.72429c-.5318-.52273-1.16896-.89853-1.89739-.89853-2.03995 0-2.02663 2.48544-2.02663 2.48544s1.16745 3.65179 1.67436 5.72069c.50716 2.0687.44455 4.0929.44455 4.0929l.57581.5677h1.2293 3.2343 33.6926 3.2343 1.2296l.5758-.5677s-.0626-2.0242.4443-4.0929c.5071-2.0689 1.6743-5.72069 1.6743-5.72069z" fill="url(#a)" fill-rule="evenodd"/><path d="m50.261 7.1127h-.2514v.59953l.4276-.42017zm-18.5502-3.99649v-.25144h-.0589l-.0528.02616zm-1.5303.75868-.1116.22529.1116.05536.1117-.05537zm-1.5305-.75868.1117-.22528-.0528-.02616h-.0589zm-18.5502 3.99649-.17626.17932.42766.42041v-.59973zm-3.92402 1.58691-.25144.00135.00021.03853.01173.03669zm1.67436 5.72069-.24422.0599h.00001zm.44455 4.0929-.25132-.0078-.0034.1097.07818.0771zm.57581.5677-.17654.1791.07342.0724h.10312zm42.6201 0v.2515h.1031l.0734-.0724zm.5758-.5677.1765.179.0782-.0771-.0034-.1097zm.4443-4.0929-.2442-.0598zm1.6743-5.72069c.2515.00135.2515.00124.2515.00112 0-.00005 0-.00018 0-.00029 0-.00021 0-.00046 0-.00074 0-.00058 0-.0013 0-.00218 0-.00175 0-.00409-.0001-.00702 0-.00584-.0001-.014-.0003-.02433-.0005-.02064-.0014-.04996-.0034-.08672-.0039-.07346-.0119-.17709-.0282-.30095-.0323-.24639-.0984-.5794-.2347-.91599-.1362-.33623-.347-.68712-.6751-.95481-.3322-.2711-.7706-.44498-1.3361-.44498v.50289c.4544 0 .7793.13681 1.0182.33173.2431.19833.4114.4688.5269.75393.1153.28478.1734.57312.2022.79275.0144.10916.0213.1997.0246.26217.0017.03119.0024.05527.0028.07104.0002.00788.0002.01368.0003.01723v.00364.00053c0 .00001 0-.00001 0-.00007 0-.00003 0-.00011 0-.00012 0-.00008 0-.00017.2514.00117zm-2.0264-2.73689c-.82 0-1.5167.42324-2.0738.97062l.3524.35872c.507-.49808 1.0841-.82645 1.7214-.82645zm-1.6461 1.14998v-.72429h-.5029v.72429zm0-.72429c0-1.94468-1.5679-3.52364-3.5049-3.52364v.50288c1.6566 0 3.002 1.35108 3.002 3.02076zm-3.5049-3.52364h-15.2968v.50288h15.2968zm-15.4085.02616-1.5303.75869.2234.45055 1.5303-.75868zm-1.3069.75868-1.5305-.75868-.2234.45056 1.5306.75869zm-1.6422-.78484h-15.2968v.50288h15.2968zm-15.2968 0c-1.937 0-3.50484 1.57896-3.50484 3.52364h.50284c0-1.66968 1.3454-3.02076 3.002-3.02076zm-3.50484 3.52364v.72429h.50284v-.72429zm.42774.54497c-.55698-.54744-1.25394-.97066-2.07369-.97066v.50289c.63711 0 1.21446.32839 1.72113.82641zm-2.07369-.97066c-.56554 0-1.00391.17387-1.33621.44497-.32813.26769-.53896.61857-.67514.95481-.13632.33659-.2024.66961-.23478.916-.01628.12385-.02426.22749-.02817.30094-.00196.03677-.00291.06609-.00336.08673-.00023.01032-.00033.01849-.00038.02433-.00002.00293-.00003.00527-.00003.00702v.00218.00074.00029c0 .00012 0 .00023.25144-.00112.25144-.00134.25144-.00125.25144-.00117v.00012c0 .00006 0 .00008 0 .00007 0-.00003 0-.00021 0-.00053 0-.00064.00001-.00186.00002-.00364.00003-.00355.0001-.00935.00027-.01723.00035-.01577.00111-.03985.00277-.07104.00333-.06246.01025-.15301.02459-.26216.02887-.21963.08696-.50798.2023-.79275.11548-.28512.28381-.5556.52692-.75393.23894-.19493.56389-.33174 1.01832-.33174zm-2.02663 2.73689c-.2395.07657-.2395.07658-.23949.0766.00001.00003.00002.00007.00004.00012.00003.0001.00008.00027.00015.00048.00014.00043.00035.00108.00063.00195.00055.00174.00138.00435.00249.00781.00221.00693.0055.01725.00982.03083.00864.02714.02139.06727.03781.1191.03284.10367.08035.25414.13894.4412.1172.37414.27874.8945.45608 1.4794.35515 1.1713.77198 2.5958 1.02367 3.6231l.48844-.1197c-.25522-1.0417-.67556-2.4775-1.03086-3.6493-.17789-.5867-.3399-1.10861-.45744-1.48383-.05877-.18762-.10644-.33861-.13942-.44274-.01649-.05206-.02932-.09241-.03803-.11977-.00435-.01367-.00767-.0241-.00991-.03113-.00112-.00351-.00197-.00617-.00254-.00796-.00029-.00089-.00051-.00156-.00065-.00202-.00007-.00023-.00013-.0004-.00017-.00052-.00002-.00006-.00003-.0001-.00004-.00013s-.00002-.00005-.23952.07651zm1.43015 5.78059c.24885 1.0151.35854 2.0224.40572 2.778.02355.3772.03145.6904.03347.9087.00101.1091.00055.1945-.00015.2522-.00035.0289-.00076.0508-.00108.0654-.00016.0072-.0003.0127-.00039.0162-.00005.0017-.00008.003-.0001.0038-.00002.0004-.00002.0007-.00003.0008v.0002c0-.0001 0-.0001.25132.0077s.25133.0077.25133.0077c0-.0001 0-.0001 0-.0002s.00001-.0002.00001-.0004c.00001-.0003.00003-.0008.00004-.0014.00004-.0011.00008-.0028.00014-.0049.00011-.0043.00027-.0105.00044-.0186.00036-.0161.00079-.0396.00117-.0702.00074-.061.00121-.15.00016-.2629-.00209-.2259-.01024-.5481-.03442-.9355-.04831-.7736-.1609-1.8127-.41921-2.8663zm.51222 4.212.57581.5678.35308-.3581-.57581-.5678zm.75235.6402h1.2293v-.5029h-1.2293zm1.2293 0h3.2343v-.5029h-3.2343zm3.2343 0h33.6926v-.5029h-33.6926zm33.6926 0h3.2343v-.5029h-3.2343zm3.2343 0h1.2296v-.5029h-1.2296zm1.4061-.0724.5758-.5678-.3531-.3581-.5758.5678zm.3993-.7468c.2513-.0078.2513-.0078.2513-.0077 0-.0001 0-.0001 0-.0002s0-.0004 0-.0008c-.0001-.0008-.0001-.0021-.0001-.0038-.0001-.0035-.0003-.009-.0004-.0162-.0003-.0146-.0008-.0365-.0011-.0654-.0007-.0577-.0012-.1431-.0002-.2522.0021-.2183.0099-.5315.0335-.9087.0471-.7556.1568-1.763.4055-2.778l-.4884-.1197c-.2582 1.0536-.3708 2.0927-.419 2.8664-.0242.3873-.0323.7095-.0344.9354-.0011.1129-.0006.2019.0001.2629.0004.0306.0009.0541.0012.0702.0002.0081.0003.0143.0004.0186.0001.0021.0002.0038.0002.0049v.0014.0004.0002s0 .0001.2514-.0077zm.6885-4.033c.2518-1.0273.6686-2.4518 1.0238-3.6231.1773-.5849.3388-1.10527.456-1.47941.0586-.18706.1061-.33754.1389-.4412.0164-.05183.0292-.09196.0378-.11911.0043-.01357.0076-.0239.0098-.03082.0011-.00346.002-.00607.0025-.00781.0003-.00087.0005-.00152.0006-.00195.0001-.00022.0002-.00038.0002-.00049 0-.00005 0-.00009 0-.00011s0-.00003-.2395-.07659c-.2395-.07655-.2395-.07653-.2395-.0765v.00014c-.0001.00011-.0001.00029-.0002.00051-.0001.00046-.0004.00114-.0007.00203-.0005.00179-.0014.00445-.0025.00796-.0022.00702-.0056.01745-.0099.03113-.0087.02736-.0215.0677-.038.11977-.033.10412-.0807.25511-.1394.44273-.1175.37522-.2795.89712-.4574 1.48382-.3553 1.1718-.7756 2.6076-1.0309 3.6493z" fill="#000" mask="url(#b)"/><path clip-rule="evenodd" d="m16.7461 7.35985c0-.34655.2793-.62743.6238-.62743.3446 0 .6239.28088.6239.62743s-.2793.62743-.6239.62743c-.3445 0-.6238-.28088-.6238-.62743z" fill="#000" fill-rule="evenodd" opacity=".5"/><path clip-rule="evenodd" d="m35.6055 7.35985c0-.34655.2792-.62743.6238-.62743s.6238.28088.6238.62743-.2792.62743-.6238.62743-.6238-.28088-.6238-.62743z" fill="#000" fill-rule="evenodd" opacity=".5"/><path clip-rule="evenodd" d="m23.0303 7.35985c0-.34655.2792-.62743.6238-.62743s.6238.28088.6238.62743-.2792.62743-.6238.62743-.6238-.28088-.6238-.62743z" fill="#000" fill-rule="evenodd" opacity=".5"/><path clip-rule="evenodd" d="m41.8896 7.35985c0-.34655.2793-.62743.6239-.62743.3445 0 .6238.28088.6238.62743s-.2793.62743-.6238.62743c-.3446 0-.6239-.28088-.6239-.62743z" fill="#000" fill-rule="evenodd" opacity=".5"/><path clip-rule="evenodd" d="m12.5762 17.3984h35.0604v-1.5214h-35.0604z" fill="#000" fill-rule="evenodd" opacity=".3"/><path clip-rule="evenodd" d="m10.0264 18.9736.2016 2.1587h.692l.779-2.1587" fill="#e1bfaf" fill-rule="evenodd"/><path clip-rule="evenodd" d="m50.1872 18.9736-.2016 2.1587h-.692l-.779-2.1587" fill="#e1bfaf" fill-rule="evenodd"/><path d="m10.0264 18.9736.2016 2.1587h.692l.779-2.1587" stroke="#1c1f34" stroke-linecap="round" stroke-linejoin="round" stroke-width=".754329"/><path d="m30.1095 18.9745h21.3101c.3135 0 .5687-.2524.5758-.5678.1239-5.4594 1.9849-8.63074 2.1186-9.81353 0 0 .3956-2.48545-2.0263-2.48545-2.4217 0-4.4481 4.27498-4.4481 8.25168v1.5212h-17.5301v-4.6032-6.72675s-.0495-1.54088 1.5321-1.54088h15.1351s3.2713 0 3.2713 3.31848v.80673" stroke="#1c1f34" stroke-linecap="round" stroke-linejoin="round" stroke-width=".754329"/><path d="m30.1094 12.0609s.0928-.8257 1.2745-.8601c1.1818-.0346 15.984-.0346 15.984-.0346s.2917-.0235.5265.4924" stroke="#1c1f34" stroke-linecap="round" stroke-linejoin="round" stroke-width=".754329"/><path d="m47.6367 15.8809v3.0939" stroke="#1c1f34" stroke-linecap="round" stroke-linejoin="round" stroke-width=".754329"/><path d="m30.1066 18.9745h-21.31004c-.31355 0-.56876-.2524-.5758-.5678-.12396-5.4594-1.98514-8.63074-2.11866-9.81353 0 0-.39552-2.48545 2.02638-2.48545 2.42162 0 4.44802 4.27498 4.44802 8.25168v1.5212h17.5301v-4.6032-6.72675s.0495-1.54088-1.532-1.54088h-15.1351s-3.2713 0-3.2713 3.31848v.80673" stroke="#1c1f34" stroke-linecap="round" stroke-linejoin="round" stroke-width=".754329"/><path d="m30.1073 12.0609s-.0928-.8257-1.2745-.8601c-1.1818-.0346-15.984-.0346-15.984-.0346s-.2917-.0235-.5265.4924" stroke="#1c1f34" stroke-linecap="round" stroke-linejoin="round" stroke-width=".754329"/><path d="m12.5762 15.8809v3.0939" stroke="#1c1f34" stroke-linecap="round" stroke-linejoin="round" stroke-width=".754329"/><path d="m50.1872 18.9736-.2016 2.1587h-.692l-.779-2.1587" stroke="#1c1f34" stroke-linecap="round" stroke-linejoin="round" stroke-width=".754329"/><g clip-rule="evenodd" fill-rule="evenodd"><path d="m1.01792 32.3165s-.698981-6.0621-.612448-9.086c.064285-2.2468.998898-5.5592.998898-5.5592.28284-1.112 2.28636-2.0134 3.45119-2.0134h52.00484s0-2.1749 0-2.591c0-7.35702.8793-9.93662.8793-9.93662.2095-.89572 1.1303-1.67151 2.0507-1.72801 0 0 14.302-1.021815 20.0433.10617 5.7412 1.12798 16.5034 11.62996 16.5034 11.62996.1664.16.4896.3101.7218.3358 0 0 20.5941 2.1837 21.8221 4.7738 1.228 2.59 1.593 14.968-1.228 16.9695-2.82 2.0016-113.39828.0518-113.39828.0518-1.6202-.0286-3.0729-1.3469-3.2368-2.9528z" fill="#1c1f34"/><path d="m1.58704 32.3362s-.993984-6.0824-.907337-9.1065c.064377-2.2468 1.192197-4.7938 1.192197-4.7938.40924-1.0751 1.6774-1.9466 2.84382-1.9466h52.91558s0-3.0073 0-3.4235c0-7.35723.5476-9.09084.5476-9.09084.1616-.90333 1.0465-1.68668 1.9691-1.74456 0 0 13.8984-1.01908 19.6475.10894 5.749 1.12802 16.1112 11.62466 16.1112 11.62466.1636.1631.4874.3126.7182.334 0 0 20.2011 1.7751 21.4301 4.3653 1.23 2.5901 1.596 14.5523-1.229 16.5539-2.824 2.0016-111.86776.0527-111.86776.0527-1.62459-.0291-3.13915-1.3429-3.3712-2.9337z" fill="#fff"/><path d="m86.214 19.4704.0201.3907c.0451.8808-.2628 1.2347-1.4366 2.7525s-1.6907 4.8333-1.6907 4.8333c-.4868.5112-3.9497.9257-4.6638.9257h-4.9608c-.7106 0-1.2815-.5708-1.2753-1.2775l.062-7.3815c.0063-.7055.5859-1.2888 1.2927-1.3028l11.6382.1241c.5331-.0105.9872.4085 1.0142.9355z" fill="#fff"/><path d="m86.214 19.4704.0201.3907c.0451.8808-.2628 1.2347-1.4366 2.7525s-1.6907 4.8333-1.6907 4.8333c-.4868.5112-3.9497.9257-4.6638.9257h-4.9608c-.7106 0-1.2815-.5708-1.2753-1.2775l.062-7.3815c.0063-.7055.5859-1.2888 1.2927-1.3028l11.6382.1241c.5331-.0105.9872.4085 1.0142.9355z" fill="#000" fill-opacity=".05"/><path d="m119.072 19.7797s-8.636-2.3824-13.91-3.2151c-5.274-.8326-11.3702-.7762-11.3702-.7762l-.0579.4138s4.0117-.3857 11.3761.7771c7.365 1.1627 13.904 3.2141 13.904 3.2141z" fill="#242d5f" opacity=".1"/><path d="m79.5709 21.1782h-37.014l-8.3178.5535h53.6496z" fill="#242d5f" opacity=".1"/><path d="m84.3125 28.6489h-44.5704l3.5373 1.3836h36.8283z" fill="#242d5f" opacity=".1"/><path d="m89.1322 16.0945c1.3963.0188 2.0885-1.0031 1.5444-2.2864l-.103-.2428c-.4526-1.0675-1.4856-2.5926-2.3222-3.4044 0 0-6.0713-6.16115-8.3984-6.56543-2.3272-.40429-9.0474-.39525-9.0474-.39525-.9256-.00499-1.6693.74353-1.6612 1.66885l.0815 9.27973c.0081.9266.7671 1.688 1.6999 1.7005z" fill="#1c1f34"/><path d="m88.2988 15.2524c1.3928.0203 1.8613-.8825 1.0514-2.0093l.3683.5124c-.6766-.9413-1.8939-2.3662-2.7288-3.1738 0 0-5.6493-5.74379-7.9765-6.14808-2.3271-.40428-8.0951-.30848-8.0951-.30848-.4606.00473-.8339.38217-.8339.85119v8.33287c0 .9267.7503 1.6889 1.6794 1.7024z" fill="#a4acbc"/><path d="m65.6641 4.87114c0-.92769-.7547-1.67973-1.6851-1.67973h-1.82c-.9306 0-1.7739.7434-1.8814 1.66369 0 0-.505 4.10502-.505 5.264v4.3985c0 .9252.7521 1.6752 1.6804 1.6752h2.5307c.928 0 1.6804-.7552 1.6804-1.6797z" fill="#1c1f34"/><path d="m64.8223 4.87117c0-.46495-.3753-.84187-.84-.84187h-1.8269c-.4639 0-.8927.37603-.9558.83393 0 0-.5855 4.09598-.5855 5.25497v4.3936c0 .4646.3734.8413.8415.8413h2.5252c.4647 0 .8415-.3768.8415-.8419z" fill="#242d5f" opacity=".1"/><g fill="#fff" opacity=".1"><path d="m64.1394 8.58893c.0755-.05955.0857-.16502.0211-.23738l-1.9204-2.15051c-.0639-.07155-.1764-.08169-.2524-.02172-.0756.05956-.0857.16502-.0211.23739l1.9203 2.15051c.0639.07154.1764.08168.2525.02171z"/><path d="m62.4295 7.99555c.0378-.02977.0436-.08172.0119-.11715l-.7477-.83736c-.0312-.03493-.0882-.03823-.1248-.00932-.0378.02977-.0436.08172-.0119.11715l.7477.83736c.0311.03493.0882.03823.1248.00932z"/></g><g fill="#fff" opacity=".1"><path d="m83.1919 10.1912-3.8987-4.34125c-.1185-.13199-.3291-.14924-.4725-.0368-.1424.11167-.1594.3119-.0433.44117l3.8987 4.34118c.1186.132.3291.1493.4726.0368.1424-.1116.1593-.3119.0432-.4411z"/><path d="m80.2491 8.9584c.0712-.05583.079-.1567.0206-.22167l-1.5146-1.68651c-.0598-.0666-.1681-.07369-.2372-.01949-.0712.05583-.079.15671-.0207.22168l1.5146 1.6865c.0599.0666.1682.07369.2373.01949z"/></g><path d="m70.9266 18.2891c-.3501 0-.6339.2792-.6339.6291 0 .3474.2846.6291.6339.6291h2.5195c.3502 0 .634-.2792.634-.6291 0-.3475-.2847-.6291-.634-.6291z" fill="#1c1f34"/><path d="m70.8864 6.09168c-.0266-.44381-.4121-.80359-.8619-.80359h.2423c-.4493 0-.8136.362-.8136.80359v3.00621c0 .44381.3606.80359.8115.80359h.0389c.4482 0 .7898-.362.7633-.80359z" fill="#1c1f34"/><path d="m71.7988 11.9648c-.1336-.4438-.6181-.8037-1.0856-.8037h-.4167c-.466 0-.769.3722-.6795.8186l.6774 3.3754h2.5249z" fill="#1c1f34"/><path d="m90.0459 14.3125c0-.3581-.7699-1.4515-.7699-1.4515l-1.1789-1.3356-5.5249 4.2472h6.7038s.7699-.8477.7699-1.4601z" fill="#1c1f34"/><path d="m83.7238 15.3846-.1144.2056c-.169.304-.5514.4105-.8563.2421-.307-.1697-.4159-.5499-.2478-.8521l2.0437-3.6745c.1691-.304.5514-.4105.8563-.242.3071.1696.4159.5499.2479.852l-1.1111 1.9977 1.3847 1.1227-.6131 1.0168z" fill="#1c1f34"/><path d="m90.9005 15.3288c.1271-1.3618-.6815-3.6983-.6815-3.6983-.1454-.4644-.6649-.9607-1.1598-1.1083l-.543-.162c-.4951-.1477-.9327.1218-.9781.6078l-.6569 7.0417c-.0451.4833.3388.9096.8534.9519l.938.0769c.5164.0424 1.0885-.2927 1.2709-.7445 0 0 .8681-2.0125.957-2.9652z" fill="#242d5f" opacity=".1"/><path d="m90.9001 14.5115c.1022-1.1635-.3907-3.0459-.3907-3.0459-.1044-.4511-.5437-.9456-.9796-1.104l.0183.0066c-.4365-.1586-.8231.0853-.8635.5454l-.5133 5.8469c-.0403.4598.2995.8651.7651.9057l.2096.0183c.4629.0403.9601-.2864 1.1044-.7247 0 0 .5783-1.6343.6497-2.4483z" fill="#1c1f34"/><path d="m3.08853 23.1904c.05162-1.4867.3634-4.4303.3634-4.4303.05703-.5629-.47323-1.0394-1.19013-1.0646l-.19549-.0068c-.71431-.0251-1.340538.4116-1.397469.9771 0 0-.309943 2.9113-.361059 4.3835-.069613 2.005.244149 5.8843.244149 5.8843.041863.5638.652289 1.0412 1.369189 1.0663l.19548.0069c.71432.0251 1.25814-.4127 1.21647-.9821 0 0-.31365-3.8438-.24454-5.8343z" fill="#1c1f34"/><path d="m2.35231 23.2473c.04588-1.3215.41559-4.4855.41559-4.4855.0214-.187-.15445-.3453-.39104-.3536l-.57287-.0201c-.23736-.0084-.44738.1368-.46918.3274 0 0-.368151 3.1343-.413587 4.4429-.061878 1.7822.197477 5.8134.197477 5.8134.0116.1882.21418.3476.45077.3559l.57288.0201c.23736.0084.42018-.1369.40848-.3274 0 0-.25995-4.0038-.19852-5.7731z" fill="#c10000"/></g><g mask="url(#c)"><path clip-rule="evenodd" d="m1.48082 24.8749-.54769.0096.10841 4.1017.64489-.0113z" fill="#fff" fill-rule="evenodd" opacity=".4"/></g><path clip-rule="evenodd" d="m99.7178 18.1989c0-.3418-.2801-.6188-.623-.6188h-.8305c-.344 0-.623.2746-.623.6188 0 .3417.2801.6188.623.6188h.8305c.344 0 .623-.2747.623-.6188z" fill="#1c1f34" fill-rule="evenodd"/><path clip-rule="evenodd" d="m99.2998 18.198c0-.114-.0896-.2063-.2057-.2063h-.8344c-.1136 0-.2057.0957-.2057.2063 0 .1139.0896.2062.2057.2062h.8344c.1136 0 .2057-.0957.2057-.2062z" fill="#f5a623" fill-rule="evenodd"/><g mask="url(#d)"><path d="m0 0h.830537v.412512h-.830537z" fill="#fff" transform="matrix(-1 0 0 1 99.7158 17.9917)"/></g><path d="m0 0h70.5886v5.36286h-70.5886z" fill="#1c1f34" transform="matrix(-1 0 0 1 95.8682 31.6934)"/><path d="m0 0h.825378v34.3126h-.825378z" fill="#1c1f34" transform="matrix(-1 0 0 1 68.3545 1.25439)"/><path d="m0 0h1.65076v20.4769h-1.65076z" fill="#1c1f34" transform="matrix(-1 0 0 1 57.625 16.1978)"/><path clip-rule="evenodd" d="m92.2094 23.2777c3.0713-1.9977 1.9704-10.9356 1.9704-10.9356l-1.0499.0739s1.7185 7.6999-1.8442 10.6594c-3.5627 2.9596-3.6638 13.5835-3.6638 13.5835l.8356-.0588s-.2395-9.8522 3.7519-13.3224z" fill="#1c1f34" fill-rule="evenodd"/><path clip-rule="evenodd" d="m97.2412 14.5368s-4.1888-4.1711-6.4941-6.04759c-1.8571-1.51167-5.9933-4.11695-5.9933-4.11695l-1.4995-.904-.4788.10348c-.4567.09871-.521.40528-.1529.67899 0 0 4.3644 3.21663 6.1485 4.79763 1.9412 1.72014 4.9796 5.16034 4.9796 5.16034z" fill="#1c1f34" fill-rule="evenodd"/><ellipse cx="11.8198" cy="6.90843" fill="#242d5f" opacity=".1" rx="11.8198" ry="6.90843" transform="matrix(-1 0 0 1 113.267 23.2549)"/><ellipse cx="10.9352" cy="6.80222" fill="#1c1f34" rx="10.9352" ry="6.80222" transform="matrix(-1 0 0 1 112.424 24.5029)"/><path clip-rule="evenodd" d="m120.436 29.8433c.091-.9116-.585-1.6364-1.514-1.6189l-7.939.15c-.927.0176-1.395.7187-1.051 1.5739 0 0 .843 1.9551 1.006 2.9156.281 1.6488.131 4.5133.131 4.5133-.017.456.341.7823.808.7278l4.481-.523c1.847-.2155 3.492-1.8712 3.675-3.7028z" fill="#1c1f34" fill-rule="evenodd"/><path clip-rule="evenodd" d="m108.833 21.485c-2.335-1.1383-5.127-1.1383-7.464-1.1383-2.1933 0-5.3005.0156-7.1132.8572-4.1222 1.9139-5.8906 6.1042-5.8906 10.7858.1687-4.4178 1.9591-8.3139 5.8906-10.1392 1.8127-.8417 4.9199-.8573 7.1132-.8573 2.337 0 2.963-.3066 6.351.4918 2.197.5176 8.736 3.716 1.113 0z" fill="#242d5f" fill-rule="evenodd" opacity=".1"/><path clip-rule="evenodd" d="m120.823 28.9259c.699.0173 1.226-.5232 1.178-1.2029l-.515-7.1987c-.049-.6816-.644-1.1201-1.326-.9802l-.03.006c-.683.1402-1.198.8088-1.149 1.4893l.473 6.6195c.049.6823.654 1.2494 1.354 1.2667z" fill="#1c1f34" fill-rule="evenodd"/><path clip-rule="evenodd" d="m120.618 27.8174c.333.0294.584-.2204.56-.5641l-.46-6.7173c-.023-.341-.3-.5379-.622-.4384l-.028.0086c-.32.0988-.561.454-.538.7909l.429 6.2539c.023.3379.312.6358.644.6652z" fill="#a4acbc" fill-rule="evenodd"/><path clip-rule="evenodd" d="m119.573 20.9009h-5.497c-.467 0-.766.3693-.669.8209l.915 4.2619c.098.4534.555.8209 1.024.8209h4.226c.467 0 .873-.3783.907-.8396l-.121-4.2245c.033-.4637-.316-.8396-.785-.8396z" fill="#1c1f34" fill-rule="evenodd"/><path clip-rule="evenodd" d="m119.557 21.7437h-5.445l.961 4.2169h4.586z" fill="#ffc900" fill-rule="evenodd"/><g mask="url(#e)"><ellipse cx=".634247" cy="1.26507" fill="#fff" rx=".634247" ry="1.26507" transform="matrix(-.999846 .0175531 .0173523 .999849 119.775 22.5845)"/><path clip-rule="evenodd" d="m112.865 21.3228h2.902l.423 5.482h-3.325z" fill="#f00" fill-rule="evenodd" opacity=".2"/></g><path clip-rule="evenodd" d="m90.6066 36.7075c.1862.8982-.4105 1.6263-1.3335 1.6263h-24.8843c-.9227 0-1.4572-.7124-1.1934-1.5923l.0408-.1361c.2635-.8794 1.2288-1.5922 2.1476-1.5922h23.2012c.9225 0 1.8214.7287 2.0075 1.6262z" fill="#1c1f34" fill-rule="evenodd"/><path clip-rule="evenodd" d="m88.907 37.5045h-24.4003c-.8734 0-.9574-.3561-.7078-.7961l.0386-.0681c.2495-.4396.7413-.7961 1.6111-.7961h22.807c.8733 0 1.3023.3644 1.4784.8132l.0134.034c.1763.4491.0333.8131-.8404.8131z" fill="#a4acbc" fill-rule="evenodd"/><path clip-rule="evenodd" d="m1.78326 33.2123c-.1412-.9074.49598-1.643 1.42828-1.643h13.86726c.93 0 1.6839.7456 1.6839 1.6651v2.0725c0 .9196-.7524 1.665-1.6774 1.665h-13.03953c-.92643 0-1.79171-.7342-1.93312-1.6429z" fill="#1c1f34" fill-rule="evenodd"/><path clip-rule="evenodd" d="m.0534088 30.7303c-.0757465-.6843.4300852-1.2391 1.1279012-1.2391h2.8656c.69866 0 1.26505.5576 1.26505 1.2456v2.4958c0 .6879-.56512 1.2456-1.25999 1.2456h-2.32375c-.69588 0-1.321172-.5528-1.397144-1.2392z" fill="#1c1f34" fill-rule="evenodd"/><path clip-rule="evenodd" d="m.848351 30.7376c-.025836-.2288.140225-.4144.374139-.4144h2.82747c.23246 0 .42091.1883.42091.4144v2.496c0 .2288-.18653.4143-.41718.4143h-2.45958c-.2304 0-.43843-.1883-.46396-.4143z" fill="#a4acbc" fill-rule="evenodd"/><ellipse cx="20.0233" cy="30.1662" fill="#242d5f" opacity=".1" rx="11.7703" ry="6.90843"/><path clip-rule="evenodd" d="m27.9864 20.6559c-2.0213-1.0122-5.4697-1.1383-7.9618-1.1383-2.3402 0-5.6547.0156-7.5885.8572-4.39737 1.9139-6.28376 6.1042-6.28376 10.7858.17989-4.4178 2.08979-8.3139 6.28376-10.1392 1.9338-.8417 5.2483-.8573 7.5885-.8573 2.4921 0 5.9405.1262 7.9618 1.1383 3.9927 1.9994 5.7408 5.2823 5.8986 9.5185.0118-4.5506-1.7059-8.0655-5.8986-10.165z" fill="#242d5f" fill-rule="evenodd" opacity=".1"/><ellipse cx="20.0253" cy="31.3061" fill="#1c1f34" rx="10.9296" ry="6.80222"/><ellipse cx="9.20392" cy="9.1428" fill="#1c1f34" rx="9.20392" ry="9.1428" transform="matrix(-1 0 0 1 110.171 26.7129)"/><ellipse cx="4.60196" cy="4.57138" fill="#a4acbc" rx="4.60196" ry="4.57138" transform="matrix(-1 0 0 1 105.568 31.2832)"/><ellipse cx="2.09179" cy="2.07791" fill="#1c1f34" rx="2.09179" ry="2.07791" transform="matrix(-1 0 0 1 103.057 33.7783)"/><ellipse cx=".418344" cy=".415567" fill="#1c1f34" rx=".418344" ry=".415567" transform="matrix(-1 0 0 1 101.389 32.1152)"/><ellipse cx=".418344" cy=".415567" fill="#1c1f34" rx=".418344" ry=".415567" transform="matrix(-1 0 0 1 101.389 38.7632)"/><ellipse cx=".420157" cy=".41378" fill="#1c1f34" rx=".420157" ry=".41378" transform="matrix(-.497843 .867267 .864775 .50216 97.9209 33.6206)"/><ellipse cx=".420157" cy=".41378" fill="#1c1f34" rx=".420157" ry=".41378" transform="matrix(-.497843 .867267 .864775 .50216 103.719 36.9448)"/><ellipse cx=".420157" cy=".41378" fill="#1c1f34" rx=".420157" ry=".41378" transform="matrix(.497843 .867267 .864775 -.50216 97.5029 37.3608)"/><ellipse cx=".420157" cy=".41378" fill="#1c1f34" rx=".420157" ry=".41378" transform="matrix(.497843 .867267 .864775 -.50216 103.301 34.0366)"/><ellipse cx="9.20392" cy="9.1428" fill="#1c1f34" rx="9.20392" ry="9.1428" transform="matrix(-1 0 0 1 29.2852 26.7129)"/><ellipse cx="4.60196" cy="4.57138" fill="#a4acbc" rx="4.60196" ry="4.57138" transform="matrix(-1 0 0 1 24.6826 31.2832)"/><ellipse cx="2.09179" cy="2.07791" fill="#1c1f34" rx="2.09179" ry="2.07791" transform="matrix(-1 0 0 1 22.1709 33.7783)"/><ellipse cx=".418344" cy=".415567" fill="#1c1f34" rx=".418344" ry=".415567" transform="matrix(-1 0 0 1 20.5029 32.1152)"/><ellipse cx=".418344" cy=".415567" fill="#1c1f34" rx=".418344" ry=".415567" transform="matrix(-1 0 0 1 20.5029 38.7646)"/><ellipse cx=".420157" cy=".41378" fill="#1c1f34" rx=".420157" ry=".41378" transform="matrix(-.497843 .867267 .864775 .50216 17.0352 33.6206)"/><ellipse cx=".420157" cy=".41378" fill="#1c1f34" rx=".420157" ry=".41378" transform="matrix(-.497843 .867267 .864775 .50216 22.833 36.9448)"/><ellipse cx=".420157" cy=".41378" fill="#1c1f34" rx=".420157" ry=".41378" transform="matrix(.497843 .867267 .864775 -.50216 16.6172 37.3599)"/><ellipse cx=".420157" cy=".41378" fill="#1c1f34" rx=".420157" ry=".41378" transform="matrix(.497843 .867267 .864775 -.50216 22.415 34.0356)"/><g mask="url(#f)"><path clip-rule="evenodd" d="m71.7928 11.1957s.2718-1.1607.0236-1.61217l-1.3359-2.7325 1.9092-.8382.0465-.62602s1.3409.34159 2.5932.1928c1.2524-.14895 1.2529-.29494 1.2529-.29494l.0599 1.19242.3081 1.1558-.4078.50334.107 1.4363-.4264.54607-.7097-.0527-.6259.8248z" fill="#ffc79f" fill-rule="evenodd"/><path clip-rule="evenodd" d="m71.4689 9.4703s.7063.36408.8684-.28098c.1623-.64507-.2921-.42353-.7731-1.00127-.481-.57773.433-1.01194.433-1.01194l.3588-.33665.1078-1.45025s1.5803.36046 2.5676.19082 2.4406-.79843 2.8094-1.47732c.121-.22271-1.6267-.69011-1.6267-.69011s-2.8435.69011-4.2169.69011-1.4957 0-1.4957 0l-.6794.4442s-.4217.98074-.1286 2.09466.6717 1.78838.6717 1.78838z" fill="#fff399" fill-rule="evenodd"/><g stroke="#1c1f34" stroke-linecap="round" stroke-linejoin="round"><path d="m71.6182 9.5607s-1.2904-.68366-1.7214-2.05081c-.1799-.571-.2511-1.08338-.265-1.51479-.0205-.63219.3002-1.45076.6755-1.94383" stroke-width=".416181"/><path d="m74.0273 9.7983s.6835.2656 1.7759.3069c.7075.0268.5366-.8866.5366-.8866l-.1203-1.14283s.293-.00624.4027-.25553c.1099-.24913-.0977-.70074-.2324-1.131-.1195-.38215-.1055-1.40411-.1055-1.40411s.9119-.24563 1.4125-1.01413" stroke-width=".416181"/><path d="m74.7588 8.62744s.3851.61911 1.6253.29248" stroke-width=".312136"/><path d="m71.4697 5.12646s2.5327.92229 4.8139.15897" stroke-width=".416181"/><path d="m72.3918 6.01416-.0492 1.14398s-.9507-.08327-.9128.63209c.038.71552.9775.91964.9775.91964-.0102 1.10062-.7886.85101-.7886.85101s.5442.56102.1762 1.63612" stroke-width=".416181"/><path d="m75.3904 10.0776s-.6433.0725-.7586.901" stroke-width=".416181"/></g></g><path clip-rule="evenodd" d="m72.2606 14.0527s-.1245.3833 1.2998 2.0122c0 0 1.3389 2.746 3.4232 3.7189 0 0 4.155-2.0589 6.3863-3.735 0 0 1.6192-.3967 1.6192-1.354 0 0 .0922-.7866-.6851-.7866-.6318 0-.7165.1386-1.3522.1386-.573 0-.7167.9287-.7167.9287s-2.46.7861-4.1561 1.7854c0 0-.43-1.166-1.4286-2.1456" fill="#ffc79f" fill-rule="evenodd"/><path clip-rule="evenodd" d="m72.4066 14.7806c.3483 0 .5194.4421.6347.7538.0639.1724.3935.3876.5163.5309.1805.2107.3424.4421.5067.6655.0711.0968.1405.1946.2097.2921.2652-.0125 2.0444-.166 2.6844-2.04l.2527.34.0819-.123c-.0445-.0414-.0863-.089-.1239-.1454-.4172-.622-.7282-.2152-.9244-.978-.0901-.3499-.0284-1.1556-.2246-1.649-.1961-.4933-.8719-1.1211-1.2819-1.4823-.0075-.0066-.0136-.0135-.0208-.0202-.5221-.1361-1.7216-.3789-2.3108.0765-.3384.2615-.6646.4642-.8903.8705-.2258.4064-.4274 1.2119-.4274 1.2119s.0161.2568.1072 1.0975c.0374-.0053.9571.2335.9982.2335z" fill="#505fb4" fill-rule="evenodd"/><path d="m74.4531 10.959c1.5532.1154 1.8733 2.1981 1.8934 3.2227" stroke="#1c1f34" stroke-linecap="round" stroke-linejoin="round" stroke-width=".416181"/><path d="m71.1042 14.1777c-.1497-1.3049-.114-2.5657 1.3067-3.1757" stroke="#1c1f34" stroke-linecap="round" stroke-linejoin="round" stroke-width=".416181"/><path d="m72.2606 14.0527s-.1245.3833 1.2998 2.0122c0 0 1.3389 2.746 3.4232 3.7189 0 0 4.0116-1.9658 6.3863-3.735 0 0 1.6192-.3967 1.6192-1.354 0 0 .0922-.7866-.6851-.7866-.6318 0-.7165.1386-1.3522.1386-.573 0-.7167.9287-.7167.9287s-2.46.7861-4.1561 1.7854c0 0-.732-1.6002-1.7306-2.5798" stroke="#1c1f34" stroke-linecap="round" stroke-linejoin="round" stroke-width=".416181"/><path d="m70.6914 14.3926 1.3629.0384" stroke="#1c1f34" stroke-linecap="round" stroke-linejoin="round" stroke-width=".416181"/></svg>