<svg width="964" height="419" fill="none" xmlns="http://www.w3.org/2000/svg"><g opacity=".7"><path fill-rule="evenodd" clip-rule="evenodd" d="M185.888 79.608c1.917 25.628 1.684 56.898-6.468 81.62-16.783 50.894-3.063 185.321 7.46 213.822 10.521 28.501 21.311 37.339 21.311 37.339H77.769s32.565-13.716 32.565-53.951c0-40.236 10.346-139.586-5.239-160.629-15.584-21.045-17.447-28.286-17.447-28.286s-7.369-16.503 4.934-24.752c12.305-8.247 17.752-1.56 17.752-1.56l11.734 19.802s13.16-2.648 18.474-49.926a295.665 295.665 0 0 0 1.621-21.556s11.314-22.208 18.765-24.24c7.451-2.032 24.96 12.317 24.96 12.317Z" fill="#fff"/><path d="M185.888 79.607c1.917 25.628 1.684 56.899-6.468 81.62-16.783 50.895-3.063 185.322 7.46 213.822 10.521 28.501 21.311 37.34 21.311 37.34H77.769s32.565-13.716 32.565-53.952 10.346-139.585-5.239-160.629c-15.584-21.045-17.447-28.285-17.447-28.285s-7.369-16.504 4.934-24.753c12.305-8.247 17.752-1.559 17.752-1.559l11.734 19.801s13.16-2.648 18.474-49.926a295.61 295.61 0 0 0 1.621-21.555" stroke="#F7F7F8" stroke-width="3.005" stroke-linecap="round" stroke-linejoin="round"/><path d="M85.222 165.408s4.868 6.375 14.694-.211c7.857-5.264 14.375-14.692 9.963-21.058M155.866 201.08s-20.37 6.306-18.332 32.791c2.038 26.486 23.221 47.925 20.777 96.273M131.18 293.447s7.51 32.835 3.951 58.786c-3.556 25.952 4.744 46.236 4.744 46.236" stroke="#F7F7F8" stroke-width="1.503" stroke-linecap="round" stroke-linejoin="round"/><path d="M106.338 75.986s-11.59 17.86-36.053 5.72c-24.463-12.14-34.888 7.884-39.01-5.72S.758 66.301 2.045 46.71" stroke="#F7F7F8" stroke-width="3.005" stroke-linecap="round" stroke-linejoin="round"/><path d="M261.602 49.238c-8.282 1.235-27.391 16.668-49.685 3.705" stroke="#F7F7F8" stroke-width="1.503" stroke-linecap="round" stroke-linejoin="round"/><path d="M98.884 82.974c7.622.892 38.759 24.482 59.622-7.163M152.296 66.955s12.021 16.347 51.365 13.438c0 0 10.471 27.053 60.425 27.053" stroke="#F7F7F8" stroke-width="3.005" stroke-linecap="round" stroke-linejoin="round"/></g><g opacity=".7"><path fill-rule="evenodd" clip-rule="evenodd" d="M754.541 39.646c-2.164 28.782-1.901 63.902 7.302 91.667 18.947 57.159 3.458 208.132-8.422 240.141-11.878 32.009-24.059 41.935-24.059 41.935h147.239s-36.764-15.404-36.764-60.592c0-45.189-11.68-156.767 5.915-180.401 17.593-23.635 19.697-31.767 19.697-31.767s8.318-18.535-5.571-27.799c-13.891-9.262-20.041-1.752-20.041-1.752l-13.247 22.239s-14.856-2.974-20.855-56.071a329.491 329.491 0 0 1-1.831-24.209s-12.773-24.942-21.184-27.224c-8.412-2.282-28.179 13.833-28.179 13.833Z" fill="#fff"/><path d="M754.541 38.861c-2.164 28.843-1.901 64.036 7.302 91.859 18.947 57.279 3.458 208.569-8.422 240.645-11.878 32.076-24.059 42.023-24.059 42.023h147.239s-36.764-15.436-36.764-60.719c0-45.284-11.68-157.096 5.915-180.779 17.593-23.685 19.697-31.834 19.697-31.834s8.318-18.574-5.571-27.857c-13.891-9.282-20.041-1.756-20.041-1.756l-13.247 22.286s-14.856-2.98-20.855-56.19a330.864 330.864 0 0 1-1.831-24.259" stroke="#F7F7F8" stroke-width="3.005" stroke-linecap="round" stroke-linejoin="round"/><path d="M867.767 134.596s-5.496 7.038-16.589-.232c-8.871-5.812-16.228-16.221-11.248-23.249M789.731 175.992s22.725 7.061 20.452 36.713c-2.273 29.655-25.907 53.659-23.18 107.79M816.232 279.209s-8.902 36.881-4.684 66.028c4.216 29.15-5.622 51.933-5.622 51.933" stroke="#F7F7F8" stroke-width="1.503" stroke-linecap="round" stroke-linejoin="round"/><path d="M844.209 35.017s13.083 20.14 40.701 6.45c27.618-13.69 39.387 8.891 44.04-6.45C933.604 19.675 963.402 24.095 961.949 2" stroke="#F7F7F8" stroke-width="3.005" stroke-linecap="round" stroke-linejoin="round"/><path d="M853.043 42.787c-8.47 1.04-43.073 28.53-66.258-8.347M792.674 24.12s-13.457 18.453-57.504 15.17c0 0-11.724 30.54-67.649 30.54" stroke="#F7F7F8" stroke-width="3.005" stroke-linecap="round" stroke-linejoin="round"/></g><path fill-rule="evenodd" clip-rule="evenodd" d="M203.471 289.136c-.042-2.424-2.095-4.355-4.576-4.311l-69.452 1.214c-2.486.043-4.466 2.047-4.424 4.468l.192 11.001c.042 2.425 2.095 4.355 4.576 4.312l69.452-1.214c2.486-.044 4.466-2.048 4.424-4.469l-.192-11.001Z" fill="#1C1F34"/><path fill-rule="evenodd" clip-rule="evenodd" d="m205.133 291.669-76.161 1.139.087 6.766c.021 1.225 1.031 2.201 2.302 2.179l73.925-1.293c1.25-.022 2.246-1.014 2.224-2.258l-.075-4.354c-.022-1.226-1.031-2.202-2.302-2.179Z" fill="url(#a)"/><path fill-rule="evenodd" clip-rule="evenodd" d="M189.603 306.357s-1.482-32.486.103-48.528c1.177-11.919 7.396-29.177 7.396-29.177 1.923-5.805 12.953-9.848 19.172-9.412l277.637 19.442.962-13.773c2.73-39.108 8.382-52.491 8.382-52.491 1.451-4.683 6.655-8.463 11.589-8.419 0 0 76.733-.085 106.965 8.058 30.232 8.142 83.79 67.99 83.79 67.99.829.913 2.499 1.832 3.729 2.055 0 0 109.135 19.308 114.728 33.534 5.593 14.227 2.949 80.161-12.853 89.746-15.801 9.585-605.416-42.119-605.416-42.119-8.639-.758-15.905-8.309-16.184-16.906Z" fill="#1C1F34"/><path fill-rule="evenodd" clip-rule="evenodd" d="M192.628 306.675s-3.049-32.703-1.464-48.746c1.178-11.919 8.144-25.037 8.144-25.037 2.584-5.561 9.678-9.72 15.905-9.284l282.499 19.783 1.271-18.198c2.73-39.109 6.297-48.12 6.297-48.12 1.198-4.741 6.213-8.574 11.16-8.537 0 0 74.577-.221 104.851 7.924 30.274 8.146 81.698 67.817 81.698 67.817.813.928 2.486 1.844 3.71 2.043 0 0 107.188 16.989 112.79 31.217 5.602 14.227 3.115 77.951-12.707 87.535-15.822 9.584-597.245-41.542-597.245-41.542-8.663-.762-16.261-8.312-16.909-16.855Z" fill="#fff"/><path fill-rule="evenodd" clip-rule="evenodd" d="m649.2 269.924-.038 2.084c-.086 4.699-1.862 6.465-8.692 14.094-6.83 7.63-10.82 25.061-10.82 25.061-2.788 2.535-21.429 3.444-25.242 3.177l-26.484-1.855c-3.793-.266-6.629-3.513-6.334-7.267l3.071-39.215c.295-3.748 3.606-6.632 7.385-6.442l62.086 5.011c2.85.143 5.119 2.54 5.068 5.352Z" fill="#fff"/><path fill-rule="evenodd" clip-rule="evenodd" d="m649.2 269.924-.038 2.084c-.086 4.699-1.862 6.465-8.692 14.094-6.83 7.63-10.82 25.061-10.82 25.061-2.788 2.535-21.429 3.444-25.242 3.177l-26.484-1.855c-3.793-.266-6.629-3.513-6.334-7.267l3.071-39.215c.295-3.748 3.606-6.632 7.385-6.442l62.086 5.011c2.85.143 5.119 2.54 5.068 5.352Z" fill="url(#b)" fill-opacity=".05"/><path opacity=".1" fill-rule="evenodd" clip-rule="evenodd" d="M824.502 283.853s-45.22-15.893-73.068-22.291-60.414-8.377-60.414-8.377l-.463 2.178s21.561-.55 60.448 8.384c38.886 8.934 73.035 22.284 73.035 22.284l.462-2.178ZM613.103 276.517l-197.606-13.838-44.611-.167 286.417 20.057-44.2-6.052ZM635.641 318.004l-237.946-16.663 18.371 8.677 196.614 13.769 22.961-5.783Z" fill="#242D5F"/><path fill-rule="evenodd" clip-rule="evenodd" d="M666.043 253.073c7.447.622 11.522-4.551 9.093-11.577l-.46-1.329c-2.02-5.843-6.968-14.337-11.133-18.965 0 0-30.126-35.02-42.4-38.039-12.274-3.019-48.154-5.483-48.154-5.483-4.94-.373-9.188 3.328-9.488 8.25l-3.01 49.358c-.3 4.929 3.469 9.26 8.444 9.675l97.108 8.11Z" fill="#1C1F34"/><path fill-rule="evenodd" clip-rule="evenodd" d="M661.895 248.287c7.429.629 10.265-3.995 6.359-10.288l1.776 2.862c-3.262-5.257-9.232-13.286-13.39-17.891 0 0-28.028-32.644-40.302-35.663-12.273-3.02-43.102-4.667-43.102-4.667-2.461-.147-4.594 1.72-4.768 4.213l-3.093 44.295c-.344 4.926 3.379 9.258 8.334 9.678l88.186 7.461Z" fill="url(#c)"/><path fill-rule="evenodd" clip-rule="evenodd" d="M544.921 184.638c.344-4.931-3.406-9.211-8.373-9.559l-9.716-.68c-4.969-.348-9.746 3.288-10.662 8.14 0 0-4.22 21.632-4.65 27.793l-1.633 23.381c-.343 4.918 3.394 9.186 8.35 9.533l13.51.946c4.955.347 9.252-3.386 9.595-8.301l3.579-51.253Z" fill="#1C1F34"/><path opacity=".1" fill-rule="evenodd" clip-rule="evenodd" d="M540.427 184.329a4.49 4.49 0 0 0-4.172-4.79l-9.753-.682c-2.477-.174-4.905 1.665-5.412 4.075 0 0-4.646 21.554-5.077 27.715l-1.63 23.355a4.483 4.483 0 0 0 4.18 4.787l13.481.944c2.481.173 4.632-1.689 4.805-4.161l3.578-51.243Z" fill="#242D5F"/><g opacity=".1" fill-rule="evenodd" clip-rule="evenodd" fill="#fff"><path d="M535.395 203.837a.855.855 0 0 0 .201-1.254l-9.454-12.149a1.002 1.002 0 0 0-1.34-.21.855.855 0 0 0-.2 1.254l9.454 12.149c.314.404.911.5 1.339.21ZM526.487 200.047a.423.423 0 0 0 .107-.618l-3.681-4.731a.503.503 0 0 0-.663-.096.421.421 0 0 0-.107.618l3.68 4.731a.504.504 0 0 0 .664.096Z"/></g><g opacity=".1" fill-rule="evenodd" clip-rule="evenodd" fill="#fff"><path d="m636.506 219.477-19.203-24.534c-.583-.746-1.701-.917-2.509-.373-.801.541-.966 1.599-.394 2.329l19.202 24.534c.584.746 1.702.917 2.509.373.802-.541.967-1.599.395-2.329ZM621.246 211.823a.805.805 0 0 0 .192-1.171l-7.46-9.531c-.294-.376-.87-.455-1.259-.192a.805.805 0 0 0-.193 1.17l7.46 9.532c.295.376.87.454 1.26.192Z"/></g><path fill-rule="evenodd" clip-rule="evenodd" d="M568.037 257.934c-1.869-.131-3.488 1.248-3.618 3.108-.129 1.846 1.286 3.45 3.151 3.581l13.451.942c1.869.131 3.488-1.248 3.618-3.108.129-1.846-1.286-3.45-3.151-3.581l-13.451-.942ZM572.338 193.079c.023-2.37-1.902-4.426-4.303-4.594l1.294.09c-2.399-.168-4.479 1.62-4.643 3.968l-1.115 15.98c-.165 2.359 1.627 4.406 4.034 4.575l.208.014c2.392.168 4.35-1.629 4.373-3.986l.152-16.047ZM575.032 224.633c-.549-2.41-3.002-4.503-5.498-4.678l-2.224-.156c-2.488-.174-4.244 1.691-3.931 4.097l2.363 18.196 13.48.944-4.19-18.403ZM671.588 243.944c.133-1.904-3.571-8.003-3.571-8.003l-5.798-7.541-31.072 20.512 35.789 2.506s4.425-4.218 4.652-7.474Z" fill="#1C1F34"/><path fill-rule="evenodd" clip-rule="evenodd" d="m637.438 247.282-.687 1.05c-1.015 1.553-3.096 1.976-4.661.967-1.576-1.017-2.016-3.079-1.007-4.622l12.275-18.769c1.015-1.552 3.096-1.975 4.661-.966 1.576 1.016 2.016 3.079 1.007 4.622l-6.673 10.204 6.975 6.485-3.65 5.176-8.24-4.147Z" fill="#1C1F34"/><path opacity=".1" fill-rule="evenodd" clip-rule="evenodd" d="M675.764 249.668c1.183-7.192-2.266-19.914-2.266-19.914-.604-2.523-3.193-5.355-5.78-6.325l-2.839-1.064c-2.589-.97-5.025.299-5.448 2.865l-6.12 37.186c-.42 2.552 1.471 4.962 4.202 5.379l4.979.76c2.742.418 5.92-1.149 7.062-3.483 0 0 5.381-10.373 6.21-15.404Z" fill="#242D5F"/><path fill-rule="evenodd" clip-rule="evenodd" d="M676.065 245.323c.977-6.146-.955-16.337-.955-16.337-.391-2.437-2.552-5.23-4.82-6.235l.095.043c-2.272-1.007-4.426.145-4.813 2.576l-4.91 30.888c-.386 2.429 1.278 4.711 3.748 5.1l1.112.176c2.457.387 5.232-1.163 6.165-3.439 0 0 3.694-8.471 4.378-12.772ZM204.042 258.627c.827-7.883 3.584-23.414 3.584-23.414.514-2.971-2.14-5.702-5.958-6.104l-1.041-.11c-3.805-.4-7.31 1.687-7.824 4.672 0 0-2.735 15.36-3.554 23.166-1.116 10.632-.881 31.37-.881 31.37.014 3.013 3.096 5.779 6.914 6.181l1.041.109c3.804.401 6.87-1.723 6.859-4.765 0 0-.248-20.55.86-31.105Z" fill="#1C1F34"/><path fill-rule="evenodd" clip-rule="evenodd" d="M200.081 258.648c.735-7.008 3.884-23.688 3.884-23.688.183-.986-.697-1.894-1.957-2.026l-3.051-.321c-1.264-.133-2.439.56-2.626 1.565 0 0-3.129 16.523-3.857 23.462-.992 9.451-1.104 30.976-1.104 30.976-.008 1.005 1.015 1.928 2.275 2.061l3.051.321c1.264.133 2.294-.571 2.302-1.588 0 0 .098-21.38 1.083-30.762Z" fill="#C10000"/><mask id="d" style="mask-type:luminance" maskUnits="userSpaceOnUse" x="191" y="232" width="13" height="60"><path fill-rule="evenodd" clip-rule="evenodd" d="M200.081 258.648c.735-7.008 3.884-23.688 3.884-23.688.183-.986-.697-1.894-1.957-2.026l-3.051-.321c-1.264-.133-2.439.56-2.626 1.565 0 0-3.129 16.523-3.857 23.462-.992 9.451-1.104 30.976-1.104 30.976-.008 1.005 1.015 1.928 2.275 2.061l3.051.321c1.264.133 2.294-.571 2.302-1.588 0 0 .098-21.38 1.083-30.762Z" fill="#fff"/></mask><g mask="url(#d)"><path opacity=".4" fill-rule="evenodd" clip-rule="evenodd" d="m194.838 266.974-2.927-.154-.944 21.844 3.447.181.424-21.871Z" fill="#fff"/></g><path fill-rule="evenodd" clip-rule="evenodd" d="M721.773 268.217c.127-1.817-1.266-3.394-3.097-3.522l-4.433-.311c-1.837-.128-3.428 1.227-3.556 3.057-.127 1.816 1.266 3.394 3.097 3.522l4.433.311c1.837.128 3.428-1.228 3.556-3.057Z" fill="#1C1F34"/><path fill-rule="evenodd" clip-rule="evenodd" d="M719.556 268.061a1.092 1.092 0 0 0-1.022-1.173l-4.455-.312a1.111 1.111 0 0 0-1.174 1.019 1.091 1.091 0 0 0 1.021 1.174l4.455.312a1.112 1.112 0 0 0 1.175-1.02Z" fill="#F5A623"/><mask id="e" style="mask-type:luminance" maskUnits="userSpaceOnUse" x="712" y="266" width="8" height="4"><path fill-rule="evenodd" clip-rule="evenodd" d="M719.556 268.061a1.092 1.092 0 0 0-1.022-1.173l-4.455-.312a1.111 1.111 0 0 0-1.174 1.019 1.091 1.091 0 0 0 1.021 1.174l4.455.312a1.112 1.112 0 0 0 1.175-1.02Z" fill="#fff"/></mask><g mask="url(#e)"><path fill="#fff" d="m721.849 267.119-4.434-.31-.153 2.192 4.434.31z"/></g><path fill="#1C1F34" d="m696.201 338.504-376.85-26.39-1.99 28.508 376.85 26.39z"/><path fill="#1C1F34" d="m560.618 166.416-4.406-.309-12.736 182.395 4.406.309z"/><path fill-rule="evenodd" clip-rule="evenodd" d="m497.788 241.834-8.813-.617-7.6 108.848 8.813.617 7.6-108.848ZM679.806 292.397c17.138-9.47 14.578-57.393 14.578-57.393h-5.633s6.317 41.573-13.802 55.973c-20.118 14.4-24.601 70.835-24.601 70.835h4.483s2.378-52.461 24.975-69.415Z" fill="#1C1F34"/><path fill-rule="evenodd" clip-rule="evenodd" d="M677.488 213.246c-9.354-8.73-30.468-24.125-30.468-24.125l-7.67-5.366-2.594.371c-2.475.354-2.933 1.96-1.069 3.552 0 0 22.106 18.73 31.044 27.802 9.725 9.869 24.669 29.292 24.669 29.292l19.248 2.292c1.369-.929-21.549-22.981-33.16-33.818Z" fill="#1C1F34"/><ellipse opacity=".1" cx="63.257" cy="36.812" rx="63.257" ry="36.812" transform="matrix(-.99756 -.06986 -.06966 .99757 792.231 300.158)" fill="#242D5F"/><ellipse cx="58.523" cy="36.246" rx="58.523" ry="36.246" transform="matrix(-.99756 -.06986 -.06966 .99757 787.277 306.473)" fill="#1C1F34"/><path fill-rule="evenodd" clip-rule="evenodd" d="M828.068 337.86c.824-4.812-2.516-8.918-7.483-9.172l-42.437-2.17c-4.957-.254-7.716 3.299-6.198 7.973 0 0 3.775 10.708 4.291 15.874.884 8.87-.977 24.04-.977 24.04-.261 2.418 1.531 4.287 4.041 4.172l24.121-1.105c9.938-.455 19.334-8.642 20.991-18.309l3.651-21.303Z" fill="#1C1F34"/><path opacity=".1" fill-rule="evenodd" clip-rule="evenodd" d="M769.216 289.088c-12.044-6.924-26.952-7.968-39.424-8.842-11.711-.82-28.305-1.898-38.295 1.898-22.718 8.632-33.713 30.245-35.451 55.132 2.54-23.421 13.544-43.462 35.211-51.695 9.99-3.797 26.584-2.718 38.295-1.898 12.472.874 15.931-.522 33.724 4.989 11.535 3.572 45.256 23.019 5.94.416Z" fill="#242D5F"/><path fill-rule="evenodd" clip-rule="evenodd" d="M830.462 333.123c3.725.353 6.74-2.323 6.733-5.955l-.077-38.458c-.008-3.641-3.024-6.195-6.717-5.707l-.159.021c-3.702.49-6.697 3.852-6.69 7.487l.071 35.365c.007 3.645 3.025 6.885 6.759 7.239l.08.008Z" fill="#1C1F34"/><path fill-rule="evenodd" clip-rule="evenodd" d="M829.77 327.151c1.766.281 3.2-.954 3.202-2.789l.037-35.88c.002-1.821-1.401-2.971-3.158-2.562l-.152.035c-1.746.406-3.163 2.203-3.165 4.003l-.035 33.404c-.002 1.805 1.433 3.497 3.195 3.777l.076.012Z" fill="url(#f)"/><path fill-rule="evenodd" clip-rule="evenodd" d="m826.757 290.001-29.346-2.055c-2.493-.174-4.228 1.677-3.878 4.114l3.307 22.997c.352 2.446 2.654 4.571 5.158 4.746l22.561 1.58c2.497.175 4.806-1.684 5.154-4.124l.926-22.501c.349-2.453-1.377-4.581-3.882-4.757Z" fill="#1C1F34"/><path fill-rule="evenodd" clip-rule="evenodd" d="m826.369 294.479-29.067-2.035 3.565 22.775 24.484 1.714 1.018-22.454Z" fill="url(#g)"/><mask id="h" style="mask-type:luminance" maskUnits="userSpaceOnUse" x="797" y="292" width="30" height="25"><path fill-rule="evenodd" clip-rule="evenodd" d="m826.369 294.479-29.067-2.035 3.565 22.775 24.484 1.714 1.018-22.454Z" fill="#fff"/></mask><g mask="url(#h)"><ellipse cx="3.394" cy="6.741" rx="3.394" ry="6.741" transform="matrix(-.99862 -.05241 -.05226 .99864 827.219 299.027)" fill="#fff"/><path opacity=".2" fill-rule="evenodd" clip-rule="evenodd" d="m790.791 289.734 15.492 1.085.223 29.299-17.75-1.243 2.035-29.141Z" fill="red"/></g><path fill-rule="evenodd" clip-rule="evenodd" d="M666.251 363.195c.66 4.844-2.796 8.491-7.723 8.146l-132.849-9.303c-4.926-.345-7.515-4.331-5.781-8.91l.269-.708c1.733-4.576 7.151-8.005 12.056-7.661l123.864 8.674c4.925.345 9.453 4.554 10.114 9.395l.05.367Z" fill="#1C1F34"/><path fill-rule="evenodd" clip-rule="evenodd" d="m656.891 366.791-130.265-9.122c-4.663-.326-4.979-2.251-3.483-4.496l.231-.348c1.496-2.244 4.253-3.954 8.897-3.629l121.759 8.526c4.662.327 6.817 2.424 7.591 4.875l.059.186c.774 2.453-.124 4.335-4.789 4.008Z" fill="url(#i)"/><path fill-rule="evenodd" clip-rule="evenodd" d="M193.365 311.407c-.417-4.876 3.257-8.548 8.235-8.2l74.032 5.185c4.965.347 8.713 4.592 8.372 9.48l-.769 11.017c-.341 4.888-4.635 8.569-9.573 8.223l-69.614-4.874c-4.946-.347-9.293-4.573-9.711-9.457l-.972-11.374Z" fill="#1C1F34"/><path fill-rule="evenodd" clip-rule="evenodd" d="M185.045 297.568c-.15-3.666 2.756-6.426 6.482-6.165l15.298 1.071c3.73.262 6.547 3.437 6.292 7.094l-.927 13.267c-.255 3.657-3.479 6.41-7.189 6.15l-12.406-.869c-3.715-.26-6.848-3.432-6.999-7.109l-.551-13.439Z" fill="#1C1F34"/><path fill-rule="evenodd" clip-rule="evenodd" d="M189.289 297.901c-.053-1.226.902-2.15 2.151-2.063l15.095 1.057c1.241.087 2.177 1.158 2.093 2.36l-.926 13.268c-.085 1.216-1.15 2.133-2.381 2.047l-13.131-.92c-1.23-.086-2.271-1.165-2.323-2.376l-.578-13.373Z" fill="url(#j)"/><ellipse opacity=".1" cx="62.992" cy="36.812" rx="62.992" ry="36.812" transform="rotate(4.006 -3614.577 3441.804) skewX(.011)" fill="#242D5F"/><path opacity=".1" fill-rule="evenodd" clip-rule="evenodd" d="M337.912 254.458c-10.415-6.136-28.778-8.096-42.083-9.028-12.493-.875-30.194-2.031-40.83 1.72-24.187 8.53-35.813 30.099-37.551 54.985 2.601-23.417 14.243-43.413 37.311-51.548 10.636-3.751 28.337-2.595 40.83-1.72 13.305.932 31.668 2.892 42.083 9.028 20.574 12.12 28.688 30.225 27.958 52.802 1.752-24.185-6.113-43.511-27.718-56.239Z" fill="#242D5F"/><ellipse cx="58.492" cy="40.772" rx="58.492" ry="40.772" transform="rotate(4.006 -3711.846 3502.839) skewX(.011)" fill="#1C1F34"/><ellipse cx="49.257" cy="48.718" rx="49.257" ry="48.718" transform="matrix(-.99756 -.06986 -.06966 .99757 774.428 317.377)" fill="#1C1F34"/><ellipse cx="24.628" cy="24.359" rx="24.628" ry="24.359" transform="matrix(-.99756 -.06986 -.06966 .99757 748.163 339.957)" fill="url(#k)"/><ellipse cx="11.195" cy="11.072" rx="11.195" ry="11.072" transform="matrix(-.99756 -.06986 -.06966 .99757 733.836 352.273)" fill="#1C1F34"/><ellipse cx="2.239" cy="2.214" rx="2.239" ry="2.214" transform="matrix(-.99756 -.06986 -.06966 .99757 725.519 342.812)" fill="#1C1F34"/><ellipse cx="2.239" cy="2.214" rx="2.239" ry="2.214" transform="matrix(-.99756 -.06986 -.06966 .99757 723.052 378.158)" fill="#1C1F34"/><ellipse cx="2.241" cy="2.212" rx="2.241" ry="2.212" transform="matrix(-.5586 .82934 .82874 .5598 706.46 349.52)" fill="#1C1F34"/><ellipse cx="2.241" cy="2.212" rx="2.241" ry="2.212" transform="matrix(-.5586 .82934 .82874 .5598 736.174 369.359)" fill="#1C1F34"/><ellipse cx="2.241" cy="2.212" rx="2.241" ry="2.212" transform="matrix(.4379 .89912 .89847 -.43884 702.838 369.244)" fill="#1C1F34"/><ellipse cx="2.241" cy="2.212" rx="2.241" ry="2.212" transform="matrix(.4379 .89912 .89847 -.43884 735.02 353.74)" fill="#1C1F34"/><path fill-rule="evenodd" clip-rule="evenodd" d="M292.949 351.461h-8.834l-2.945 29.49 2.945 29.49h8.834l2.945-29.49-2.945-29.49Z" fill="#DE615E"/><path d="m282.619 351.31 1.496.149-1.496-.149Zm-2.944 29.49 1.495.149-1.495-.149Zm-.008.15 1.503.001v-.002l-1.503.001Zm.008.15 1.495-.149-1.495.149Zm2.944 29.491 1.496-.15-1.496.15Zm11.825 0-1.495-.15 1.495.15Zm2.945-29.491-1.495-.149 1.495.149Zm.008-.15-1.503-.001v.002l1.503-.001Zm-.008-.15-1.495.149 1.495-.149Zm-2.945-29.49-1.495.149 1.495-.149Zm-8.969 1.652v-1.503c-.772 0-1.419.585-1.496 1.353l1.496.15Zm-2.645 26.485-1.495-.15a1.503 1.503 0 0 0 1.495 1.652v-1.502Zm8.759-26.485 1.495-.15a1.503 1.503 0 0 0-1.495-1.353v1.503Zm2.645 26.485v1.502a1.502 1.502 0 0 0 1.495-1.652l-1.495.15Zm-11.404 3.007v-1.503a1.504 1.504 0 0 0-1.495 1.652l1.495-.149Zm2.645 26.485-1.496.149a1.504 1.504 0 0 0 1.496 1.353v-1.502Zm8.759-26.485 1.495.149a1.504 1.504 0 0 0-1.495-1.652v1.503Zm-2.645 26.485v1.502c.772 0 1.418-.585 1.495-1.353l-1.495-.149Zm-7.474-57.48v-3.005a3.005 3.005 0 0 0-2.991 2.706l2.991.299Zm-2.945 29.49 2.945-29.49-2.991-.299-2.945 29.491 2.991.298Zm0 0-2.991-.298c-.01.1-.015.2-.015.3l3.006-.002Zm0 .002-3.006-.002c0 .1.005.201.015.301l2.991-.299Zm2.945 29.49-2.945-29.49-2.991.299 2.945 29.49 2.991-.299Zm0 0-2.991.299a3.005 3.005 0 0 0 2.991 2.707v-3.006Zm8.834 0h-8.834v3.006h8.834v-3.006Zm0 0v3.006a3.006 3.006 0 0 0 2.991-2.707l-2.991-.299Zm2.945-29.49-2.945 29.49 2.991.299 2.944-29.49-2.99-.299Zm0 0 2.99.299c.01-.1.015-.201.015-.301l-3.005.002Zm0-.002 3.005.002c0-.1-.005-.2-.015-.3l-2.99.298Zm-2.945-29.49 2.945 29.49 2.99-.298-2.944-29.491-2.991.299Zm0 0 2.991-.299a3.006 3.006 0 0 0-2.991-2.706v3.005Zm-8.834 0h8.834v-3.005h-8.834v3.005Zm-.136 1.353-2.644 26.485 2.99.299 2.645-26.485-2.991-.299Zm7.61-1.353h-6.114v3.005h6.114v-3.005Zm4.14 27.838-2.645-26.485-2.99.299 2.644 26.485 2.991-.299Zm-12.899 1.652h11.404v-3.005H282.83v3.005Zm-1.495 1.654 2.644 26.485 2.991-.299-2.645-26.484-2.99.298Zm12.899-1.652H282.83v3.006h11.404v-3.006Zm-1.15 28.137 2.645-26.485-2.991-.298-2.644 26.484 2.99.299Zm-7.609 1.353h6.114v-3.005h-6.114v3.005Z" fill="#1C1F34"/><path d="M278.225 410.441h20.613M278.225 351.459h20.613" stroke="#1C1F34" stroke-width="3.005" stroke-linecap="round" stroke-linejoin="round"/><path opacity=".2" fill-rule="evenodd" clip-rule="evenodd" d="M288.237 361.781h.589l2.65 14.745h-5.889l2.65-14.745Z" fill="#1C1F34"/><path opacity=".3" fill="#1C1F34" d="M282.642 379.477h11.779v2.949h-11.779z"/><path opacity=".2" fill-rule="evenodd" clip-rule="evenodd" d="M288.238 398.645h.589l2.65-13.271h-5.89l2.651 13.271Z" fill="#1C1F34"/><path fill-rule="evenodd" clip-rule="evenodd" d="M497.841 235.865s-1.17-7.485.606-10.23l9.702-16.69-11.643-6.211v-3.989s-8.613 1.533-16.439 0c-7.824-1.533-7.759-2.46-7.759-2.46l-.936 7.53-2.483 7.181 2.335 3.382-1.348 9.053 2.432 3.662h4.499l3.559 5.523 17.475 3.249Z" fill="#FFD3B2"/><path fill-rule="evenodd" clip-rule="evenodd" d="M500.703 225.081s-4.623 1.975-5.343-2.19c-.72-4.166 2.04-2.547 5.343-5.982 3.303-3.436-2.256-6.618-2.256-6.618l-2.104-2.303v-9.242s-10.131 1.54-16.275 0c-6.144-1.54-11.676-3.123-13.683-7.599-2.006-4.476 0-8.018 0-8.018l3.598.293s5.356-.243 3.478-4.202l6.21-2.626s2.196-1.504 8.833-.173c6.637 1.331 17.941 4.908 20.414 8.756 2.473 3.847.496 5.02.496 5.02l3.977 4.454s2.199 6.415-.171 13.337c-2.369 6.922-5.072 11.019-5.072 11.019l-7.445 6.074Z" fill="#FFF399"/><ellipse cx="49.257" cy="48.719" rx="49.257" ry="48.719" transform="matrix(-1 0 0 1 458.442 203.537)" fill="#1C1F34"/><ellipse cx="24.628" cy="24.359" rx="24.628" ry="24.359" transform="matrix(-1 0 0 1 433.813 227.896)" fill="url(#l)"/><ellipse cx="11.195" cy="11.072" rx="11.195" ry="11.072" transform="matrix(-1 0 0 1 420.379 241.184)" fill="#1C1F34"/><ellipse cx="2.239" cy="2.214" rx="2.239" ry="2.214" transform="matrix(-1 0 0 1 411.424 232.326)" fill="#1C1F34"/><ellipse cx="2.239" cy="2.214" rx="2.239" ry="2.214" transform="matrix(-1 0 0 1 411.424 267.758)" fill="#1C1F34"/><ellipse cx="2.241" cy="2.212" rx="2.241" ry="2.212" transform="matrix(-.49946 .86634 .86571 .50054 392.877 240.352)" fill="#1C1F34"/><ellipse cx="2.241" cy="2.212" rx="2.241" ry="2.212" transform="matrix(-.49946 .86634 .86571 .50054 423.902 258.066)" fill="#1C1F34"/><ellipse cx="2.241" cy="2.212" rx="2.241" ry="2.212" transform="matrix(.49946 .86634 .86571 -.50054 390.639 260.279)" fill="#1C1F34"/><ellipse cx="2.241" cy="2.212" rx="2.241" ry="2.212" transform="matrix(.49946 .86634 .86571 -.50054 421.663 242.564)" fill="#1C1F34"/><path fill-rule="evenodd" clip-rule="evenodd" d="m479.671 271.644-14.198 15.947-44.111 2.667s-4.336 1.791-11.16.255c-6.824-1.537-11.262-6.109-9.764-9.855 1.499-3.746 2.94-5.626 2.94-5.626l10.807 3.622s-2.966-4.861-1.392-7.773c1.573-2.912 4.995 2.339 4.995 2.339l5.046 7.348s12.976-4.072 30.057-6.065c0 0 3.119-6.603 3.408-9.539.289-2.936 1.902-8.261 1.902-8.261l2.35-4.387 19.12 19.328Z" fill="#FFD3B2"/><path fill-rule="evenodd" clip-rule="evenodd" d="m450.902 411.017-6.739-.099-10.717-5.845 3.638-4.124 8.491-1.287 8.554-43.901s3.306-13.968 4.205-19.697c1.173-7.485 6.495-26.613 6.495-26.613l1.616-2.635s11.852 5.689 28.22.598l.482 8.083-.528 4.263 7.365 36.74 4.155 4.45 25.481 35.799-8.311 14.677-8.32-1.679 2.703-5.389 1.354-5.681-21.601-25.6s-3.883-3.415-13.104-14.394c-9.222-10.98-6.31-15.86-6.31-15.86l-6.56 12.354s-3.573 5.401-3.966 11.041c-.394 5.64-16.603 44.799-16.603 44.799Z" fill="#282E53"/><path fill-rule="evenodd" clip-rule="evenodd" d="M494.784 309.396s-.736 3.172-11.413 3.172c-10.678 0-15.601-.519-16.926-5.753-1.324-5.234-.972-19.224-.972-19.224l9.908-10.09 4.29-5.857s-12.769-1.045-16.183-14.218l-1.752 2.036-2.957-5.272 10.182-8.355 3.358-8.902 5.57-3.833s11.608-2.877 16.158 1.235c4.549 4.111 7.331 13.818 7.331 13.818s-1.2 13.514-2.931 17.25c-1.73 3.736-2.701 25.695-2.701 25.695l-.962 18.298Z" fill="#505FB4"/><path d="M476.682 345.204c2.328 4.866 4.962 9.61 8.626 14.302 2.209 2.829 34.466 39.169 34.466 39.169.224 2.986-1.278 5.447-2.671 7.415 0 0-4.289.065-1.946 4.545h9.663l6.8-13.888s-29.463-40.158-30.089-41.984l-7.03-34.867" stroke="#1C1F34" stroke-width="3.005" stroke-linecap="round" stroke-linejoin="round"/><path d="M464.989 306.816s-8.765 39.332-10.921 50.138l-8.493 43.44c-11.807-1.856-12.51 5.116-12.51 5.116l11.28 5.126h7.453l18.369-52.947c.338-1.901 11.717-24.926 11.717-24.926s10.33-8.915 12.36-13.739c1.748-4.153.421-11.61.421-11.61M465.473 287.592l-.49 19.224M481.171 233.102c-9.846 0-12.838 13.05-13.446 19.533M494.665 307.413l2.924-37.807s10.67-27.828-3.543-35.27" stroke="#1C1F34" stroke-width="3.005" stroke-linecap="round" stroke-linejoin="round"/><path d="M494.047 252.515s-.97 5.82-8.972 11.563c-8.12 10.906-9.001 14.41-20.686 24.456l-43.027 1.726s-4.718 2.575-13.932-.554c-10.646-3.613-6.681-12.29-4.637-13.67 1.135-.765 4.743.824 4.743.824 4.807 1.674 6.709 1.77 5.572-.272-2.668-4.793.891-9.021 4.057-4.454a447.651 447.651 0 0 1 5.685 8.461c15.618-4.001 19.428-5.214 30.324-5.389 6.197-18.175 18.552-24.634 18.552-24.634M499.718 225.579s8.455-3.725 11.812-12.188c4.323-10.897 1.861-18.74 1.861-18.74l-3.978-4.454s4.375-8.358-15.777-12.797c-20.152-4.438-12.128 2.917-21.318 1.707M484.423 225.954s-4.434 1.362-11.339 1.109c-4.472-.163-2.967-5.872-2.967-5.872l1.293-7.187s-1.844-.178-2.419-1.808c-.575-1.632.945-4.397 1.995-7.06.933-2.366 1.324-8.849 1.324-8.849s-6.103-1.945-6.444-7.404" stroke="#1C1F34" stroke-width="3.005" stroke-linecap="round" stroke-linejoin="round"/><path d="M480.366 218.186s-2.718 3.743-10.383 1.087M482.983 182.754s-8.579 6.114-19.043-1.088" stroke="#1C1F34" stroke-width="1.503" stroke-linecap="round" stroke-linejoin="round"/><path d="M502.729 197.544s-16.397 4.653-30.42-1.259M496.506 202.734l-.226 7.275s6.033-.081 5.458 4.436c-.573 4.516-6.592 5.368-6.592 5.368-.452 6.98 4.572 5.765 4.572 5.765s-3.693 3.3-1.877 10.287M475.708 227.084s4.021.762 4.36 6.067M468.961 245.836s-9.637 5.28-14.45 14.469" stroke="#1C1F34" stroke-width="3.005" stroke-linecap="round" stroke-linejoin="round"/><path fill-rule="evenodd" clip-rule="evenodd" d="M60.896 382.484c0-26.906 22.053-48.718 49.256-48.718 27.204 0 49.257 21.812 49.257 48.718 0 7.085-6.63 29.431-15.249 29.431H75.87c-8.896 0-14.974-24.555-14.974-29.431Z" fill="#E4E4EB"/><ellipse cx="110.152" cy="381.01" rx="24.628" ry="24.359" fill="#fff"/><ellipse cx="110.152" cy="381.01" rx="11.195" ry="11.072" fill="#E4E4EB"/><ellipse cx="110.152" cy="363.294" rx="2.239" ry="2.214" fill="#E4E4EB"/><ellipse cx="110.152" cy="398.726" rx="2.239" ry="2.214" fill="#E4E4EB"/><ellipse cx="2.241" cy="2.212" rx="2.241" ry="2.212" transform="rotate(60.036 -256.193 293.99) skewX(.071)" fill="#E4E4EB"/><ellipse cx="2.241" cy="2.212" rx="2.241" ry="2.212" transform="rotate(60.036 -287.037 276) skewX(.071)" fill="#E4E4EB"/><ellipse cx="2.241" cy="2.212" rx="2.241" ry="2.212" transform="rotate(119.964 -48.036 231.695) skewX(-.071)" fill="#E4E4EB"/><ellipse cx="2.241" cy="2.212" rx="2.241" ry="2.212" transform="rotate(119.964 -58.43 213.875) skewX(-.071)" fill="#E4E4EB"/><path fill-rule="evenodd" clip-rule="evenodd" d="m862.768 240.697 16.779 22.514-8.335 2.729-21.113-28.016 12.669 2.773Z" fill="#1C1F34"/><path d="m860.449 252.366-13.295-15.917 14.401 4.259 19.464 23.757-7.408-2.58" stroke="#1C1F34" stroke-width="2.004" stroke-linecap="round" stroke-linejoin="round"/><path fill-rule="evenodd" clip-rule="evenodd" d="m889.461 262.462 1.778-7.544 1.672-6.549s15.665-1.049 14.554 2.928c-3.895 13.953-11.982 29.314-11.982 29.314s-3.406 8.484-6.046 7.339c-1.632-.708-11.691-7.44-15.723-11.095-2.487-2.253-5.104-5.04-7.348-7.429-1.396-1.486-2.647-2.818-3.634-3.774-10.762-10.429-6.289-15.767-6.289-15.767l2.908.468s-1.021 1.078 1.614.909c2.636-.17 5.406 3.208 6.514 5.213 1.454 2.635 1.82 3.933 1.82 3.933l18.28 10.036 1.353-5.737-8.348-8.001 2.191-6.12 6.007 1.213-.045 5.6.724 5.063Z" fill="#A1694D"/><path fill-rule="evenodd" clip-rule="evenodd" d="M889.971 260.914s11.002 3.102 16.645-4.772c0 0 2.532-8.272-.872-13.379-3.402-5.108-11.921 1.009-14.223 8.017-2.304 7.008-1.55 10.134-1.55 10.134Z" fill="#8EAFFF"/><path d="m886.899 271.402-18.415-11.65s-.321.301-1.852-2.652c-3.397-6.55-5.135-6.872-6.617-4.674l-5.441-3.461s-1.397 8.237 9.455 18.916c6.789 6.681 20.202 18.875 22.864 20.048 2.662 1.173 7.975-6.118 7.975-6.118s13.464-25.969 14.126-41.481c0 0 .082-4.766-2.474-8.305" stroke="#1C1F34" stroke-width="3.005" stroke-linecap="round" stroke-linejoin="round"/><path fill-rule="evenodd" clip-rule="evenodd" d="M929.608 306.131s-3.479 4.537-21.865 4.537-14.26-7.867-14.26-7.867l1.88 93.466-2.087 2.511s-6.69-.372-8.052 4.751c-1.365 5.123-2.639 6.911 2.001 6.911h34.878l.496-2.335 7.009-101.974Z" fill="#282E53"/><path fill-rule="evenodd" clip-rule="evenodd" d="M923.553 228.658s-3.106-7.103-2.108-10.31l5.007-19.192-12.921-2.986-1.05-3.957s-7.944 3.866-15.932 4.478c-7.988.612-8.168-.325-8.168-.325l1.075 7.722-.514 7.798 3.154 2.717 1.079 9.344 3.322 2.968 4.36-1.224 4.903 4.505-3.677 1.716 7.668 14.858 19.857-15.746-6.055-2.366Z" fill="#A1694D"/><path fill-rule="evenodd" clip-rule="evenodd" d="M881.268 253.414c-.23-1.532 2.018-2.504 2.069-4.029.051-1.526-1.112-9.012-1.112-9.012s5.176-5.937 8.077-7.713c2.9-1.776 14.637-3.474 14.637-3.474s-.436-.072-.429 0c.736 7.59 8.498 11.985 15.085 8.371.957-.526 1.936-1.051 2.917-1.563 2.726-1.419 2.924-3.798 4.136-4.868 1.786-1.574 6.461 2.6 10.511 3.534 6.944 1.601 7.173 8.886 7.173 8.886l-3.71 15.154-5.076 21.901-4.651 18.366-1.746 12.414s-3.885 4.693-21.799 4.693-14.253-4.957-14.079-8.701c.175-3.744-2.447-32.964-2.447-32.964l-.149-1.309s-.268-14.989-.952-16.31c-.685-1.321-8.268-2.125-8.455-3.376Z" fill="#505FB4"/><path fill-rule="evenodd" clip-rule="evenodd" d="M896.698 254.679c-.346 0-.552-.127-.552-.523v-5.708a.198.198 0 0 0-.228-.201l-1.358.223-.142.024a.197.197 0 0 0-.163.193v5.699c0 1.738 1.242 1.902 1.94 1.902.443 0 .754-.063.921-.109a.195.195 0 0 0 .146-.193v-1.139c0-.104-.089-.223-.226-.198-.091.016-.204.03-.338.03Zm11.665-4.712a5.75 5.75 0 0 0 1.244-.248c.132-.042.227.051.251.144l.025.088c.051.18.165.584.225.831.028.116-.045.201-.124.238a3.58 3.58 0 0 1-.478.159c.214.378.295.782.295 1.108 0 .928-.568 2.189-2.655 2.189h-.192c-.436 0-.806-.056-1.119-.152a.426.426 0 0 0-.138.317c0 .245.199.424.401.424l1.629.001c1.149 0 2.152.587 2.152 2.137 0 1.455-1.163 2.041-2.829 2.041-1.773 0-2.826-.541-2.826-1.954 0-.745.489-1.349.489-1.349s-.453-.384-.453-1.132c0-.572.289-.964.501-1.174a2.133 2.133 0 0 1-.462-1.348c0-.871.573-2.298 2.751-2.301h.026c.142.004.834.024 1.287-.019Zm6.333 0a5.75 5.75 0 0 0 1.244-.248c.132-.042.226.051.251.144l.024.087.001.001c.05.179.165.584.225.831.028.116-.045.201-.124.238a3.58 3.58 0 0 1-.478.159c.214.378.295.782.295 1.108 0 .928-.568 2.189-2.656 2.189h-.191c-.436 0-.806-.056-1.119-.152a.426.426 0 0 0-.138.317c0 .245.199.424.401.424l1.629.001c1.149 0 2.152.587 2.152 2.137 0 1.455-1.164 2.041-2.829 2.041-1.773 0-2.826-.541-2.826-1.954 0-.745.489-1.349.489-1.349s-.453-.384-.453-1.132c0-.572.289-.964.501-1.174a2.127 2.127 0 0 1-.462-1.348c0-.871.572-2.298 2.751-2.301h.026c.142.004.834.024 1.287-.019Zm-1.282 1.162c-.474.003-.905.391-.905 1.103 0 .665.352 1.097.873 1.099.522-.002.874-.434.874-1.099 0-.712-.368-1.1-.842-1.103Zm1.126 6.017c0-.406-.224-.726-.694-.726l-1.253.001s-.297.286-.297.812c0 .322.182.692 1.138.692.923 0 1.106-.411 1.106-.779Zm-8.363-4.914c0-.712.431-1.1.905-1.103.474.003.842.391.842 1.103 0 .665-.352 1.097-.874 1.099-.521-.002-.873-.434-.873-1.099Zm2.031 4.914c0-.406-.224-.726-.694-.726l-1.253.001s-.297.286-.297.812c0 .322.181.692 1.138.692.923 0 1.106-.411 1.106-.779Zm-6.759-6.859c0-.088.076-.189.194-.189h1.503c.11 0 .195.092.195.193v5.683a.197.197 0 0 1-.191.205h-1.275a.193.193 0 0 1-.186-.144l-.2-.711c-.411.402-1.134.966-1.959.966-1.301 0-1.575-.949-1.575-1.927v-4.069c0-.12.101-.196.189-.196h1.504c.111 0 .199.086.199.199v3.741c0 .455.149.626.485.626.531 0 .979-.462 1.115-.619l.002-3.758Z" fill="#fff"/><path d="M890.281 245.297s-1.047 4.434-.294 15.019c.182 2.543 1.465 4.554 1.465 8.294 0 15.437 1.708 39.485 1.708 39.485l2.04 91.331s-10.121-.72-11.105 6.344c-.655 4.703 1.363 4.673 1.363 4.673h36.916l4.95-78.618.631-6.585s2.275-7.997 2.275-14.626c0-6.628 1.225-16.458 3.062-24.501 2.304-10.088 5.151-24.168 5.151-24.168" stroke="#1C1F34" stroke-width="3.005" stroke-linecap="round" stroke-linejoin="round"/><path d="M899.148 408.968s-3.625-9.672 9.473-8.79l3.319.584" stroke="#1C1F34" stroke-width="3.005" stroke-linecap="round" stroke-linejoin="round"/><path d="M907.522 400.12v-68.425s-2.484-.671-2.945-3.826" stroke="#1C1F34" stroke-width="3.005" stroke-linecap="round" stroke-linejoin="round"/><path fill-rule="evenodd" clip-rule="evenodd" d="M924.755 216.057s-5.627 2.826-7.453-1.055c-1.826-3.882 3.869-6.513 3.929-6.939.061-.426-2.66-5.868-2.66-5.868l-2.689-1.687-3.798-8.423s-8.248 3.611-14.714 3.755c-6.468.146-12.342.085-15.518-3.755-3.175-3.84-2.147-7.843-2.147-7.843l3.625-.681s5.211-1.677 2.3-5.045l5.415-4.238s1.761-2.062 8.658-2.544c6.896-.483 18.992-.021 22.46 3.079 3.467 3.099 1.832 4.778 1.832 4.778l5.113 3.287s3.884 5.685 3.403 13.093c-.481 7.408-2.047 12.143-2.047 12.143l-5.709 7.943Z" fill="#74605F"/><path d="M904.577 229.078c-7.885.402-16.276 3.012-19.365 7.32 0 0-3.271 3.904-1.731 13.497 0 0-2.314 5.852-2.462 8.673M922.628 217.28s7.189-5.933 8.209-15.14c1.314-11.855-3.122-18.886-3.122-18.886l-5.011-3.297s2.031-9.378-18.599-8.3c-20.628 1.077-10.947 6.129-20.141 7.421M908.994 221.891s-3.97 2.513-10.783 4.116c-4.414 1.039-4.459-4.926-4.459-4.926l-.645-7.349s-1.849.321-2.844-1.114c-.995-1.436-.245-4.536.074-7.412.284-2.556-1.057-8.978-1.057-8.978s-6.479-.26-8.261-5.488" stroke="#1C1F34" stroke-width="3.005" stroke-linecap="round" stroke-linejoin="round"/><path d="M901.633 214.332s-1.49 3.321-8.835 2.915M895.743 178.943s-6.846 6.972-19.141 3.411" stroke="#1C1F34" stroke-width="1.503" stroke-linecap="round" stroke-linejoin="round"/><path d="M919.301 189.266s-15.209 9.123-30.92 7.072M913.412 195.162l1.496 7.264s5.135-1.721 5.693 2.908c.558 4.628-4.385 7.108-4.385 7.108 1.235 7.034 5.245 4.464 5.245 4.464s-2.39 4.272.785 10.695" stroke="#1C1F34" stroke-width="3.005" stroke-linecap="round" stroke-linejoin="round"/><path d="M900.16 226.131s4.144-.311 5.889 4.419" stroke="#1C1F34" stroke-width="2.004" stroke-linecap="round" stroke-linejoin="round"/><path clip-rule="evenodd" d="M922.622 228.668s12.73 4.833 15.82 7.78l-15.82-7.78Z" stroke="#1C1F34" stroke-width="3.005" stroke-linecap="round" stroke-linejoin="round"/><path fill-rule="evenodd" clip-rule="evenodd" d="m920.463 252.855-2.273 6.553-4.953 15.534-26.301-9.779s-.545-1.29-2.67-3.899c-1.619-1.987-5.639-5.321-9.401-5.119-3.763.203-2.323-.886-2.323-.886l-4.164-.431s-4.524 5.367 11.044 15.633c9.74 6.424 32.991 20.812 36.784 21.921 3.792 1.109 8.509-7.398 8.509-7.398s11.28-15.426 16.598-29.395c1.515-3.98-20.85-2.734-20.85-2.734Z" fill="#A1694D"/><path fill-rule="evenodd" clip-rule="evenodd" d="M937.926 264.656s3.945-5.74 4.165-10.611c.219-4.871-2.495-5.03-4.216-6.922-4.561-5.012-15.67 1.151-18.586 8.116-2.917 6.964-.562 5.743-.562 5.743s7.755 11.572 19.199 3.674Z" fill="#505FB4"/><path d="M920.774 246.77c-.818 3.663-.795 9.202-.795 9.202-1.54 2.686-5.31 12.491-6.567 18.813" stroke="#1C1F34" stroke-width="3.005" stroke-linecap="round" stroke-linejoin="round"/><path d="m913.751 275.906-26.139-11.362s-.446.304-2.654-2.617c-4.899-6.478-7.353-6.776-9.4-4.569l-7.724-3.374s-1.826 8.218 13.644 18.71c9.68 6.565 28.784 18.534 32.552 19.668 3.77 1.133 11.127-6.193 11.127-6.193s18.511-26.031 19.175-41.484c0 0-2.22-5.146-5.49-7.814" stroke="#1C1F34" stroke-width="3.005" stroke-linecap="round" stroke-linejoin="round"/><defs><linearGradient id="a" x1="131.035" y1="301.313" x2="130.885" y2="292.775" gradientUnits="userSpaceOnUse"><stop stop-color="#A4ACBC"/><stop offset=".986" stop-color="#B5BBCA"/></linearGradient><linearGradient id="b" x1="646.025" y1="317.254" x2="649.733" y2="264.301" gradientUnits="userSpaceOnUse"><stop stop-opacity=".2"/><stop offset="1"/></linearGradient><linearGradient id="c" x1="671.159" y1="189.445" x2="667.219" y2="245.712" gradientUnits="userSpaceOnUse"><stop stop-color="#A4ACBC"/><stop offset="1" stop-color="#D4D7DF"/></linearGradient><linearGradient id="f" x1="824.318" y1="324.73" x2="827.059" y2="285.586" gradientUnits="userSpaceOnUse"><stop stop-color="#A4ACBC"/><stop offset=".986" stop-color="#B5BBCA"/></linearGradient><linearGradient id="g" x1="826.916" y1="294.518" x2="825.346" y2="316.933" gradientUnits="userSpaceOnUse"><stop stop-color="#FFC900"/><stop offset="1" stop-color="#FFF15E"/></linearGradient><linearGradient id="i" x1="525.683" y1="357.164" x2="526.271" y2="348.776" gradientUnits="userSpaceOnUse"><stop stop-color="#A4ACBC"/><stop offset=".986" stop-color="#B5BBCA"/></linearGradient><linearGradient id="j" x1="207.13" y1="313.816" x2="208.306" y2="297.019" gradientUnits="userSpaceOnUse"><stop stop-color="#A4ACBC"/><stop offset=".986" stop-color="#B5BBCA"/></linearGradient><linearGradient id="k" x1="48.036" y1="46.303" x2="48.036" y2="0" gradientUnits="userSpaceOnUse"><stop stop-color="#A4ACBC"/><stop offset=".986" stop-color="#B5BBCA"/></linearGradient><linearGradient id="l" x1="48.036" y1="46.303" x2="48.036" y2="0" gradientUnits="userSpaceOnUse"><stop stop-color="#A4ACBC"/><stop offset=".986" stop-color="#B5BBCA"/></linearGradient></defs></svg>