<svg fill="none" height="69" viewBox="0 0 176 69" width="176" xmlns="http://www.w3.org/2000/svg" xmlns:xlink="http://www.w3.org/1999/xlink"><linearGradient id="a" gradientUnits="userSpaceOnUse" x1="150.32" x2="150.32" y1="5.34961" y2="23.8156"><stop offset="0" stop-color="#a4acbc"/><stop offset="1" stop-color="#d4d7df"/></linearGradient><mask id="b" height="1" maskUnits="userSpaceOnUse" width="3" x="156" y="32"><path clip-rule="evenodd" d="m158.273 32.4593c0-.1781-.144-.3226-.33-.3226h-1.343c-.182 0-.331.1497-.331.3226 0 .1782.144.3226.331.3226h1.343c.182 0 .33-.1496.33-.3226z" fill="#fff" fill-rule="evenodd"/></mask><mask id="c" height="26" maskUnits="userSpaceOnUse" width="4" x="1" y="19"><path clip-rule="evenodd" d="m3.70833 30.2812c.10611-3.0059.76235-10.2099.76235-10.2099.03807-.4257-.22987-.781-.59582-.7937l-.8861-.0306c-.36713-.0127-.69603.323-.73483.757 0 0-.65304 7.1363-.75812 10.113-.14311 4.0539.15121 13.213.15121 13.213.01295.4277.32226.7847.68821.7973l.8861.0306c.36714.0127.65395-.3225.64089-.7552 0 0-.29596-9.0968-.15389-13.1215z" fill="#fff" fill-rule="evenodd"/></mask><mask id="d" height="5" maskUnits="userSpaceOnUse" width="8" x="167" y="37"><path clip-rule="evenodd" d="m173.838 37.4434h-5.889l1.145 4.2908h4.961z" fill="#fff" fill-rule="evenodd"/></mask><mask id="e" height="20" maskUnits="userSpaceOnUse" width="33" x="119" y="5"><path clip-rule="evenodd" d="m150.847 23.613s-12.329-11.9193-16.993-15.40519c-4.663-3.48585-8.102-2.75336-9.388-2.8582l-3.294.03971c-1.29-.10515-2.202.76843-2.037 1.94829l.466 12.52929c.165 1.1812 1.347 2.2473 2.632 2.3804l27.866 2.519c.965.1 1.301-.4143.748-1.1533z" fill="url(#a)" fill-rule="evenodd"/></mask><path clip-rule="evenodd" d="m1.5593 52.4646s-.20295-6.8016-.20295-21.0581 2.51104-27.07869 2.51104-27.07869c.40162-2.39018 2.72886-4.32780715 5.20153-4.32780715 0 0 97.94408-.00000641 113.56908 0 4.492.00000184 9.689 1.28809715 12.459 3.48103715 7.66 6.06246 17.226 14.43756 21.288 16.91536 5.751 3.5078 13.184 5.1845 16.68 13.7684 2.066 5.0718.93 17.2238-3.367 20.2396-1.128.7917-3.297 3.543-21.424 3.6745-.024.3164-.298.5768-.632.5768h-141.22632c-.34602 0-.63374-.2784-.63374-.6219v-1.3282c-2.04882-.4954-3.84877-2.217-4.22264-4.241z" fill="#1c1f34" fill-rule="evenodd"/><path d="m0 0h127.742v2.36197h-127.742z" fill="#1c1f34" transform="matrix(-1 0 0 1 155.762 58.6553)"/><path clip-rule="evenodd" d="m2.75244 52.8219s-.20369-6.8234-.20369-21.1258c0-14.3023 2.7014-27.15311 2.7014-27.15311.3031-1.70998 1.98398-3.0962 3.76213-3.0962 0 0 95.48972-.598788 113.17472 0 4.398.14892 8.466.4138 12.07 3.0962 8.861 6.59431 18.676 16.48361 22.687 18.06281 5.339 2.1019 13.547 6.4493 15.208 12.5002 2.478 9.0277-2.229 20.6628-2.398 20.7816-2.116 1.4843-35.91 1.8557-78.2317 1.8872-18.1082.0134-34.7758.2029-49.8619 0h-35.31656c-.34729 0-.63608-.2793-.63608-.6239v-.5549c-1.48507-.7718-2.66063-2.1795-2.95532-3.7741z" fill="#fff" fill-rule="evenodd"/><path clip-rule="evenodd" d="m171.869 33.727s-9.284-5.1421-14.24-7.0718c-3.692-1.438-11.705-3.0313-11.705-3.0313l-.209.6021s8.035 1.6025 11.74 3.045c4.944 1.9252 14.204 7.0581 14.204 7.0581z" fill="#242d5f" fill-rule="evenodd" opacity=".1"/><path clip-rule="evenodd" d="m143.39 30.2081.031.4884c.069 1.1008-.633 2.6431-1.563 3.4403l-7.049 6.0412c-.746.639-2.227 1.157-3.321 1.157h-7.598c-1.088 0-1.963-.7134-1.953-1.5967l.095-10.5532c.009-.8818.897-1.6109 1.979-1.6283l17.826 1.4821c.816-.0132 1.512.5105 1.553 1.1692z" fill="#fff" fill-rule="evenodd"/><path clip-rule="evenodd" d="m143.39 30.2081.031.4884c.069 1.1008-.633 2.6431-1.563 3.4403l-7.049 6.0412c-.746.639-2.227 1.157-3.321 1.157h-7.598c-1.088 0-1.963-.7134-1.953-1.5967l.095-10.5532c.009-.8818.897-1.6109 1.979-1.6283l17.826 1.4821c.816-.0132 1.512.5105 1.553 1.1692z" fill="#000" fill-opacity=".05" fill-rule="evenodd"/><path clip-rule="evenodd" d="m147.801 38.5785s-25.287-5.1176-37.931-5.1176c-35.7734 0-107.32076 0-107.32076 0v.6397h106.98776c12.533 0 37.597 4.4779 37.597 4.4779z" fill="#242d5f" fill-rule="evenodd" opacity=".1"/><path d="m0 0h102.273v2.36197h-102.273z" fill="#000" opacity=".2" transform="matrix(-1 0 0 1 139.844 46.8457)"/><path d="m0 0h115.736v8.20166h-115.736z" fill="#1c1f34" transform="matrix(-1 0 0 1 150.988 44.0898)"/><path clip-rule="evenodd" d="m151.039 37.1896c3.941-4.6149 4.673-16.0711 4.673-16.0711l-.61-1.477s-.352 11.7378-4.217 16.0873-4.59 17.1373-4.59 17.1373l1.307 4.0873s-.504-15.1488 3.437-19.7638z" fill="#1f2857" fill-rule="evenodd"/><path clip-rule="evenodd" d="m125.645 30.569c0 .5763-.464 1.0436-1.032 1.0436h-4.099c-.57 0-1.031-.4632-1.031-1.0436 0-.5764.463-1.0436 1.031-1.0436h4.099c.57 0 1.032.4632 1.032 1.0436z" fill="#1c1f34" fill-rule="evenodd"/><path clip-rule="evenodd" d="m158.941 32.4601c0-.5346-.45-.9679-1.002-.9679h-1.336c-.553 0-1.002.4296-1.002.9679 0 .5345.451.9678 1.002.9678h1.336c.554 0 1.002-.4296 1.002-.9678z" fill="#1c1f34" fill-rule="evenodd"/><path clip-rule="evenodd" d="m158.273 32.4593c0-.1781-.144-.3226-.33-.3226h-1.343c-.182 0-.331.1497-.331.3226 0 .1782.144.3226.331.3226h1.343c.182 0 .33-.1496.33-.3226z" fill="#f5a623" fill-rule="evenodd"/><g mask="url(#b)"><path d="m0 0h1.33602v.645213h-1.33602z" fill="#fff" transform="matrix(-1 0 0 1 158.941 32.1367)"/></g><g clip-rule="evenodd" fill-rule="evenodd" opacity=".5"><path d="m114.285 4.33008h-95.9023c-3.1404 0-5.9221 1.64761-6.2129 4.61411l-1.2743 14.52241c-.2909 2.9682 2.0183 4.6141 5.159 4.6141h98.2305z" fill="#e0e0e0"/><path d="m114.285 4.33008h-95.9023c-3.1404 0-5.9221 1.64761-6.2129 4.61411l-1.2743 14.52241c-.2909 2.9682 2.0183 4.6141 5.159 4.6141h98.2305z" fill="#000" fill-opacity=".3"/></g><path clip-rule="evenodd" d="m114.281 4.87012h-95.919c-2.8275 0-5.3392 1.4031-5.6103 4.07527l-1.3188 14.52051c-.2709 2.6707 1.7978 4.0753 4.6303 4.0753h98.2168z" fill="#fff" fill-rule="evenodd"/><path clip-rule="evenodd" d="m114.281 4.87012h-95.919c-2.8275 0-5.3392 1.4031-5.6103 4.07527l-1.3188 14.52051c-.2709 2.6707 1.7978 4.0753 4.6303 4.0753h98.2168z" fill="#000" fill-opacity=".05" fill-rule="evenodd"/><path clip-rule="evenodd" d="m114.281 6.48926h-95.9834c-1.8854 0-3.5787.68428-3.7811 2.45933l-1.482 14.51361c-.2028 1.7783 1.1558 2.4594 3.0491 2.4594h98.1954z" fill="#fff" fill-rule="evenodd"/><path clip-rule="evenodd" d="m4.85171 30.135c.11938-3.3817.68009-10.083.68009-10.083.10321-1.2814-.70478-2.3509-1.81362-2.3892l-.30236-.0105c-1.10485-.0381-2.08562.9714-2.18875 2.2588 0 0-.557018 6.6278-.675234 9.9765-.160995 4.5607.22155 13.3729.22155 13.3729.049811 1.2809.981854 2.3502 2.090694 2.3885l.30235.0104c1.10485.0382 1.95812-.9716 1.90876-2.2652 0 0-.38332-8.7315-.22348-13.2592z" fill="#1c1f34" fill-rule="evenodd"/><path clip-rule="evenodd" d="m3.70833 30.2812c.10611-3.0059.76235-10.2099.76235-10.2099.03807-.4257-.22987-.781-.59582-.7937l-.8861-.0306c-.36713-.0127-.69603.323-.73483.757 0 0-.65304 7.1363-.75812 10.113-.14311 4.0539.15121 13.213.15121 13.213.01295.4277.32226.7847.68821.7973l.8861.0306c.36714.0127.65395-.3225.64089-.7552 0 0-.29596-9.0968-.15389-13.1215z" fill="#c10000" fill-rule="evenodd"/><g mask="url(#c)"><path clip-rule="evenodd" d="m2.24132 34.0104-.8471.0147.22221 9.3304.99744-.0172z" fill="#fff" fill-rule="evenodd" opacity=".4"/></g><path clip-rule="evenodd" d="m173.869 36.2168h-5.993c-.658 0-1.067.5291-.912 1.1899l1.025 4.3629c.154.6572.818 1.1899 1.474 1.1899h4.473c.66 0 1.238-.5517 1.291-1.221l-.262-4.3006c.053-.6744-.439-1.2211-1.096-1.2211z" fill="#1c1f34" fill-rule="evenodd"/><path clip-rule="evenodd" d="m173.838 37.4434h-5.889l1.145 4.2908h4.961z" fill="#ffc900" fill-rule="evenodd"/><g mask="url(#d)"><ellipse cx=".791856" cy="1.44491" fill="#fff" rx=".791856" ry="1.44491" transform="matrix(-.998659 .0517737 .0529043 .9986 173.953 38.1133)"/><path clip-rule="evenodd" d="m169.397 36.2168h-2.256v6.2611h3.453z" fill="#f00" fill-rule="evenodd" opacity=".2"/></g><g clip-rule="evenodd" fill-rule="evenodd"><path d="m100.844 30.5086c0 .5435.448.9841.999.9841h3.971c.552 0 .999-.4368.999-.9841 0-.5436-.449-.9842-.999-.9842h-3.971c-.552 0-.999.4368-.999.9842z" fill="#1c1f34"/><path d="m34.7852 26.7686v1.9683h38.601v-1.9683z" fill="#1c1f34"/><path d="m74.5781 4.33008h-1.1938v55.11272h1.1938z" fill="#1c1f34"/><path d="m114.773.393555h-1.193v58.262045h1.193z" fill="#1c1f34"/><path d="m152.151 22.7155s-16.182-15.4097-20.071-16.99456-6.402-1.40722-8.034-1.54516l-2.522.08341c-2.296-.19408-3.922 1.34729-3.631 3.45265l.323 11.77956c.29 2.101 2.381 3.9999 4.671 4.2416l26.957 2.4886c2.942.3106 4.002-1.2783 2.307-3.5061z" fill="#1c1f34"/><path d="m150.855 23.612s-12.33-11.9193-16.993-15.40516c-4.663-3.48585-8.102-2.75337-9.388-2.85821l-3.294.03971c-1.29-.10515-2.202.76843-2.037 1.9483l.466 12.52926c.165 1.1812 1.347 2.2473 2.632 2.3804l27.866 2.5191c.964.0999 1.301-.4144.748-1.1534z" fill="#a4acbc"/><path d="m120.203 10.0055c-.037-.57958-.583-1.04945-1.219-1.04945h.343c-.636 0-1.152.47278-1.152 1.04945v3.9261c0 .5796.51 1.0495 1.149 1.0495h.055c.634 0 1.117-.4728 1.08-1.0495z" fill="#1c1f34"/><path d="m119.957 16.624h-.59c-.659 0-1.048.6304-.865 1.4183l2.053 4.4566h2.383l-1.368-4.4975c-.232-.7607-.951-1.3774-1.613-1.3774z" fill="#1c1f34"/><path d="m138.303 24.3651c-.24.4418-.781-.013-1.212-.2578-.435-.2465-.589-.1896-.351-.6287l2.892-5.34c.24-.4418.781-.5965 1.212-.3518.435.2465.589.7992.351 1.2382l-1.573 2.9032 1.96 1.6316-.868 1.4777-2.25-.9713z" fill="#1c1f34"/><path d="m152.18 23.7121-5.582-5.2092-7.405 5.2092 12.391 2.0359z" fill="#1c1f34"/><path d="m151.746 24.9808c.224-2.2232-1.206-6.0375-1.206-6.0375-.257-.7581-1.176-1.5682-2.052-1.8092l-.96-.2644c-.876-.2411-1.65.1987-1.73.9921l-1.162 11.4955c-.08.789.599 1.485 1.509 1.5539l1.659.1256c.914.0692 1.926-.4778 2.249-1.2153 0 0 1.535-3.2855 1.693-4.8407z" fill="#242d5f" opacity=".1"/><path d="m151.745 23.6466c.181-1.8995-.691-4.9723-.691-4.9723-.185-.7365-.962-1.5438-1.733-1.8024l.032.0109c-.772-.259-1.456.1392-1.527.8903l-.908 9.5449c-.072.7507.53 1.4123 1.353 1.4785l.371.0299c.819.0659 1.698-.4675 1.953-1.1831 0 0 1.023-2.6679 1.15-3.9967z" fill="#1c1f34"/><g fill="#fff" opacity=".1"><path d="m139.068 14.5743-6.897-7.55942c-.21-.22983-.582-.25987-.836-.06407-.252.19445-.282.54312-.077.76823l6.897 7.55946c.21.2298.582.2599.836.0641.252-.1945.282-.5432.077-.7683z"/><path d="m133.86 12.4284c.126-.0972.139-.2729.036-.386l-2.679-2.93681c-.106-.11596-.298-.12832-.42-.03394-.126.09723-.14.27288-.036.38602l2.679 2.93673c.106.116.297.1284.42.034z"/></g></g><g mask="url(#e)"><path clip-rule="evenodd" d="m121.096 16.2737s.419-1.7913.036-2.488l-2.062-4.21701 2.947-1.29357.072-.96611s2.069.52715 4.002.29754c1.932-.22987 1.933-.45518 1.933-.45518l.093 1.84023.475 1.7837-.629.7768.165 2.2166-.658.8427-1.096-.0814-.965 1.2731z" fill="#ffc79f" fill-rule="evenodd"/><path clip-rule="evenodd" d="m120.591 13.6104s1.09.5619 1.341-.4336c.25-.9955-.451-.6536-1.194-1.5452-.742-.8917.669-1.5617.669-1.5617l.553-.5196.167-2.23813s2.439.5563 3.962.29449c1.524-.2618 3.767-1.23219 4.336-2.27991.187-.3437-2.511-1.06503-2.511-1.06503s-4.388 1.06503-6.507 1.06503c-2.12 0-2.309 0-2.309 0l-1.048.68552s-.651 1.51355-.199 3.23263c.453 1.7191 1.037 2.76 1.037 2.76z" fill="#fff399" fill-rule="evenodd"/><g stroke="#1c1f34" stroke-linecap="round" stroke-linejoin="round"><path d="m120.825 13.7487s-1.992-1.0551-2.657-3.165c-.277-.88122-.387-1.67196-.409-2.33775-.031-.97564.464-2.23892 1.043-2.99986" stroke-width=".601975"/><path d="m124.543 14.1171s1.055.4098 2.741.4736c1.091.0414.828-1.3683.828-1.3683l-.186-1.7637s.452-.0096.622-.3943c.169-.3845-.151-1.08146-.359-1.74548-.185-.58975-.163-2.16692-.163-2.16692s1.407-.37907 2.18-1.56509" stroke-width=".601975"/><path d="m125.664 12.3086s.594.9555 2.508.4514" stroke-width=".451481"/><path d="m120.594 6.90625s3.908 1.42333 7.429.24533" stroke-width=".601975"/><path d="m122.014 8.27539-.076 1.76551s-1.467-.12854-1.409.9754c.059 1.1043 1.509 1.4193 1.509 1.4193-.016 1.6986-1.217 1.3133-1.217 1.3133s.839.8658.271 2.5251" stroke-width=".601975"/><path d="m126.643 14.5479s-.992.1117-1.17 1.3903" stroke-width=".601975"/></g></g><path clip-rule="evenodd" d="m121.825 20.682s-.193.5915 2.006 3.1054c0 0 2.066 4.2378 5.283 5.7392 0 0 6.412-3.1774 9.855-5.764 0 0 2.499-.6123 2.499-2.0896 0 0 .142-1.214-1.057-1.214-.975 0-1.106.2139-2.087.2139-.884 0-1.106 1.4332-1.106 1.4332s-3.796 1.2132-6.414 2.7554c0 0-.664-1.7994-2.205-3.3112" fill="#ffc79f" fill-rule="evenodd"/><path clip-rule="evenodd" d="m122.049 21.8044c.538 0 .802.6822.98 1.1633.098.2661.607.5981.797.8193.278.3252.528.6823.781 1.027.11.1495.217.3003.324.4509.409-.0193 3.155-.2563 4.143-3.1483l.39.5246.126-.1898c-.068-.0639-.133-.1373-.191-.2243-.644-.96-1.124-.3322-1.427-1.5094-.139-.5399-.043-1.7834-.346-2.5447-.303-.7614-1.346-1.7304-1.978-2.2877-.012-.0102-.021-.0208-.033-.0312-.805-.2101-2.656-.5847-3.566.1181-.522.4036-1.025.7163-1.374 1.3434-.348.6272-.659 1.8702-.659 1.8702s.024.3964.165 1.6938c.058-.0081 1.477.3604 1.541.3604z" fill="#505fb4" fill-rule="evenodd"/><path d="m125.203 15.9062c2.397.1782 2.891 3.3923 2.922 4.9736" stroke="#1c1f34" stroke-linecap="round" stroke-linejoin="round" stroke-width=".601975"/><path d="m120.037 20.8727c-.231-2.0138-.176-3.9595 2.016-4.901" stroke="#1c1f34" stroke-linecap="round" stroke-linejoin="round" stroke-width=".601975"/><path d="m121.825 20.682s-.193.5915 2.006 3.1054c0 0 2.066 4.2378 5.283 5.7392 0 0 6.191-3.0337 9.855-5.764 0 0 2.499-.6123 2.499-2.0896 0 0 .142-1.214-1.057-1.214-.975 0-1.106.2139-2.087.2139-.884 0-1.106 1.4332-1.106 1.4332s-3.796 1.2132-6.414 2.7554c0 0-1.13-2.4695-2.671-3.9813" stroke="#1c1f34" stroke-linecap="round" stroke-linejoin="round" stroke-width=".601975"/><path d="m119.398 21.2061 2.104.0593" stroke="#1c1f34" stroke-linecap="round" stroke-linejoin="round" stroke-width=".601975"/><path clip-rule="evenodd" d="m174.757 46.8918c.399-1.4607-.403-2.6447-1.796-2.6447h-19.774c-1.391 0-2.519 1.2369-2.519 2.7592v13.1134c0 1.5239 1.106 2.523 2.464 2.2331l16.112-3.7782c1.361-.2906 2.79-1.7148 3.187-3.1709z" fill="#1c1f34" fill-rule="evenodd"/><ellipse cx="18.0073" cy="10.5506" fill="#242d5f" opacity=".1" rx="18.0073" ry="10.5506" transform="matrix(-1 0 0 1 165.129 38.5791)"/><ellipse cx="16.1472" cy="10.2471" fill="#1c1f34" rx="16.1472" ry="10.2471" transform="matrix(-1 0 0 1 163.246 40.4678)"/><path clip-rule="evenodd" d="m19.2926 52.4036c1.439 0 2.6096-1.1272 2.6096-2.5177v-3.1338c0-1.3904.1346-2.5177-1.3079-2.5177h-17.55594c-1.442 0-2.538125 1.1222-2.447145 2.5065l.326101 4.0879c.109074 1.387 2.375724 6.832 3.001244 7.7376.62552.9057 2.93567.8583 2.93567.8583 1.42448.1851 2.44207-1.4418 2.26237-2.8222l-.54659-4.1989z" fill="#1c1f34" fill-rule="evenodd"/><ellipse cx="29.6423" cy="48.3527" fill="#242d5f" opacity=".1" rx="18.2556" ry="9.77364"/><ellipse cx="29.5585" cy="50.257" fill="#1c1f34" rx="16.2656" ry="9.79315"/><ellipse cx="13.7381" cy="13.1628" fill="#1c1f34" rx="13.7381" ry="13.1628" transform="matrix(-1 0 0 1 160.137 42.1211)"/><ellipse cx="8.50453" cy="8.1484" fill="#a4acbc" rx="8.50453" ry="8.1484" transform="matrix(-1 0 0 1 154.902 47.1348)"/><ellipse cx="4.57936" cy="4.38759" fill="#1c1f34" rx="4.57936" ry="4.38759" transform="matrix(-1 0 0 1 150.977 50.8955)"/><ellipse cx=".654187" cy=".626778" fill="#1c1f34" rx=".654187" ry=".626778" transform="matrix(-1 0 0 1 147.055 60.9258)"/><ellipse cx=".653367" cy=".62758" fill="#1c1f34" rx=".653367" ry=".62758" transform="matrix(-.940873 .33876 .345303 .938491 144.559 48.584)"/><ellipse cx=".651284" cy=".629607" fill="#1c1f34" rx=".651284" ry=".629607" transform="matrix(-.769459 .638697 .646868 .762602 150.699 59.1895)"/><ellipse cx=".648908" cy=".631904" fill="#1c1f34" rx=".648908" ry=".631904" transform="matrix(-.504067 .863664 .868355 .495944 140.512 51.2764)"/><ellipse cx=".647353" cy=".633399" fill="#1c1f34" rx=".647353" ry=".633399" transform="matrix(-.175481 .984483 .985126 .171833 152.332 55.626)"/><ellipse cx=".647353" cy=".633399" fill="#1c1f34" rx=".647353" ry=".633399" transform="matrix(.175481 .984483 .985126 -.171833 139.215 55.8438)"/><ellipse cx=".648908" cy=".631904" fill="#1c1f34" rx=".648908" ry=".631904" transform="matrix(.504067 .863664 .868355 -.495944 151.188 51.9033)"/><ellipse cx=".651284" cy=".629607" fill="#1c1f34" rx=".651284" ry=".629607" transform="matrix(.769459 .638697 .646868 -.762602 141.285 60.1494)"/><ellipse cx=".653367" cy=".62758" fill="#1c1f34" rx=".653367" ry=".62758" transform="matrix(.940873 .33876 .345303 -.938491 147.805 49.7617)"/><ellipse cx="13.7381" cy="13.1628" fill="#1c1f34" rx="13.7381" ry="13.1628" transform="matrix(-1 0 0 1 43.1367 42.1211)"/><ellipse cx="8.50453" cy="8.1484" fill="#a4acbc" rx="8.50453" ry="8.1484" transform="matrix(-1 0 0 1 37.9023 47.1357)"/><ellipse cx="4.57936" cy="4.38759" fill="#1c1f34" rx="4.57936" ry="4.38759" transform="matrix(-1 0 0 1 33.9766 50.8955)"/><ellipse cx=".654187" cy=".626778" fill="#1c1f34" rx=".654187" ry=".626778" transform="matrix(-1 0 0 1 30.0547 60.9258)"/><ellipse cx=".653367" cy=".62758" fill="#1c1f34" rx=".653367" ry=".62758" transform="matrix(-.940873 .33876 .345303 .938491 27.5586 48.584)"/><ellipse cx=".651284" cy=".629607" fill="#1c1f34" rx=".651284" ry=".629607" transform="matrix(-.769459 .638697 .646868 .762602 33.6992 59.1895)"/><ellipse cx=".648908" cy=".631904" fill="#1c1f34" rx=".648908" ry=".631904" transform="matrix(-.504067 .863664 .868355 .495944 23.5117 51.2764)"/><ellipse cx=".647353" cy=".633399" fill="#1c1f34" rx=".647353" ry=".633399" transform="matrix(-.175481 .984483 .985126 .171833 35.332 55.627)"/><ellipse cx=".647353" cy=".633399" fill="#1c1f34" rx=".647353" ry=".633399" transform="matrix(.175481 .984483 .985126 -.171833 22.2148 55.8438)"/><ellipse cx=".648908" cy=".631904" fill="#1c1f34" rx=".648908" ry=".631904" transform="matrix(.504067 .863664 .868355 -.495944 34.1875 51.9043)"/><ellipse cx=".651284" cy=".629607" fill="#1c1f34" rx=".651284" ry=".629607" transform="matrix(.769459 .638697 .646868 -.762602 24.2852 60.1494)"/><ellipse cx=".653367" cy=".62758" fill="#1c1f34" rx=".653367" ry=".62758" transform="matrix(.940873 .33876 .345303 -.938491 30.8047 49.7617)"/></svg>