<svg width="584" height="106" viewBox="0 0 584 106" fill="none" xmlns="http://www.w3.org/2000/svg">
<path fill-rule="evenodd" clip-rule="evenodd" d="M24.3525 104.135C24.3525 103.106 25.187 102.271 26.2164 102.271H565.301C566.331 102.271 567.165 103.106 567.165 104.135C567.165 105.165 566.331 105.999 565.301 105.999H26.2164C25.187 105.999 24.3525 105.165 24.3525 104.135Z" fill="#ECECF2"/>
<path fill-rule="evenodd" clip-rule="evenodd" d="M0 104.135C0 103.106 0.834482 102.271 1.86387 102.271H19.4844C20.5138 102.271 21.3483 103.106 21.3483 104.135C21.3483 105.165 20.5138 105.999 19.4844 105.999H1.86387C0.834482 105.999 0 105.165 0 104.135Z" fill="#ECECF2"/>
<path fill-rule="evenodd" clip-rule="evenodd" d="M573.397 104.135C573.397 103.106 574.232 102.271 575.261 102.271H581.777C582.807 102.271 583.641 103.106 583.641 104.135C583.641 105.165 582.807 105.999 581.777 105.999H575.261C574.232 105.999 573.397 105.165 573.397 104.135Z" fill="#ECECF2"/>
<path fill-rule="evenodd" clip-rule="evenodd" d="M295.874 5.38119C295.912 4.53761 295.247 3.82831 294.403 3.81233L267.342 3.30017C266.185 3.27827 265.202 4.13424 265.076 5.28473C264.468 10.8309 262.818 26.8993 262.276 42.4236C261.73 58.0758 262.288 73.7635 262.511 78.99C262.557 80.0536 263.35 80.8934 264.413 80.9481C265.883 81.0237 268.429 81.1042 272.685 81.1156C279.228 81.1332 287.749 80.9006 291.04 80.8021C291.822 80.7787 292.449 80.1561 292.484 79.3741L295.874 5.38119Z" fill="#1C1F34"/>
<path fill-rule="evenodd" clip-rule="evenodd" d="M297.561 6.24651C297.581 5.82417 297.248 5.46909 296.825 5.4617L268.307 4.96287C267.538 4.94943 266.885 5.51754 266.797 6.28118C266.264 10.9367 264.526 26.9534 263.987 42.4082C263.443 57.9564 264.092 73.5432 264.302 77.9268C264.336 78.6364 264.868 79.1976 265.577 79.2412C266.909 79.323 269.543 79.4276 274.453 79.4476C280.993 79.4743 289.509 79.2648 292.803 79.1754C293.587 79.1541 294.215 78.5312 294.252 77.7478L297.561 6.24651Z" fill="white"/>
<mask id="mask0_1129_38221" style="mask-type:alpha" maskUnits="userSpaceOnUse" x="263" y="4" width="35" height="76">
<path fill-rule="evenodd" clip-rule="evenodd" d="M297.561 6.24651C297.581 5.82417 297.248 5.46909 296.825 5.4617L268.307 4.96287C267.538 4.94943 266.885 5.51754 266.797 6.28118C266.264 10.9367 264.526 26.9534 263.987 42.4082C263.443 57.9564 264.092 73.5432 264.302 77.9268C264.336 78.6364 264.868 79.1976 265.577 79.2412C266.909 79.323 269.543 79.4276 274.453 79.4476C280.993 79.4743 289.509 79.2648 292.803 79.1754C293.587 79.1541 294.215 78.5312 294.252 77.7478L297.561 6.24651Z" fill="white"/>
</mask>
<g mask="url(#mask0_1129_38221)">
<path fill-rule="evenodd" clip-rule="evenodd" d="M289.323 71.4326L263.931 70.9894L263.887 73.5043L289.279 73.9476L289.323 71.4326Z" fill="#1C1F34"/>
<path fill-rule="evenodd" clip-rule="evenodd" d="M289.323 72.2715L263.931 71.8283L263.77 81.0498L289.162 81.493L289.323 72.2715Z" fill="#1C1F34"/>
<path fill-rule="evenodd" clip-rule="evenodd" d="M270.028 45.0738C269.342 45.0498 268.766 45.5967 268.742 46.2891L268.513 52.8239C268.489 53.5191 269.021 54.1019 269.712 54.126C270.398 54.15 270.974 53.6031 270.998 52.9107L271.227 46.3759C271.251 45.6807 270.719 45.0979 270.028 45.0738Z" fill="#1C1F34"/>
<path opacity="0.1" fill-rule="evenodd" clip-rule="evenodd" d="M310.572 52.3203L262.53 50.6426L262.5 51.4806L310.543 53.1582L310.572 52.3203Z" fill="#242D5F"/>
<path fill-rule="evenodd" clip-rule="evenodd" d="M283.731 60.3941C283.747 59.4683 283.02 58.7049 282.106 58.6889L270.496 58.4863C269.583 58.4703 268.83 59.2014 268.814 60.1337L268.726 65.1643C268.71 66.0901 269.437 66.8536 270.35 66.8695L281.96 67.0722C282.873 67.0881 283.626 66.3571 283.643 65.4247L283.731 60.3941Z" fill="url(#paint0_linear_1129_38221)"/>
<path fill-rule="evenodd" clip-rule="evenodd" d="M282.088 61.0739C282.094 60.6992 281.801 60.3903 281.443 60.384L271.155 60.2045C270.792 60.1981 270.493 60.4926 270.486 60.8714L270.422 64.5446C270.415 64.9193 270.708 65.2282 271.067 65.2345L281.355 65.414C281.718 65.4204 282.017 65.1259 282.024 64.7471L282.088 61.0739Z" fill="white"/>
<path fill-rule="evenodd" clip-rule="evenodd" d="M272.638 62.4102L272.646 61.9386L272.88 61.9427C272.902 61.9431 272.924 61.9468 272.945 61.9537C272.965 61.9607 272.983 61.9728 272.999 61.99C273.015 62.0072 273.027 62.031 273.036 62.0613C273.045 62.0916 273.049 62.1302 273.048 62.1773C273.047 62.262 273.031 62.3229 273.002 62.3601C272.973 62.3972 272.936 62.4154 272.891 62.4147L272.638 62.4102ZM272.405 61.5922L272.37 63.5955L272.918 63.605C272.969 63.6059 273.019 63.5956 273.067 63.574C273.115 63.5523 273.159 63.5185 273.197 63.4724C273.235 63.4263 273.266 63.3665 273.29 63.293C273.313 63.2195 273.326 63.1322 273.327 63.0312C273.33 62.9059 273.314 62.7985 273.282 62.7091C273.249 62.6196 273.198 62.5565 273.129 62.5198C273.18 62.4776 273.22 62.4231 273.247 62.3562C273.274 62.2893 273.288 62.2054 273.29 62.1044C273.291 62.0109 273.284 61.9322 273.268 61.8683C273.251 61.8044 273.228 61.753 273.197 61.7141C273.166 61.6752 273.128 61.6469 273.084 61.6293C273.04 61.6117 272.991 61.6024 272.937 61.6015L272.405 61.5922ZM272.62 63.2606L272.63 62.7071L272.902 62.7118C272.956 62.7128 272.999 62.7357 273.032 62.7805C273.064 62.8253 273.079 62.8995 273.077 63.003C273.076 63.0557 273.07 63.0989 273.06 63.1326C273.049 63.1664 273.035 63.1929 273.018 63.2124C273 63.2319 272.98 63.2457 272.958 63.2537C272.936 63.2618 272.912 63.2657 272.888 63.2652L272.62 63.2606ZM274.019 62.159L274.007 62.8413L273.716 62.8362L274.015 62.1589L274.019 62.159ZM274.008 63.1704L274 63.6253L274.214 63.629L274.222 63.1741L274.369 63.1767L274.375 62.8482L274.228 62.8456L274.248 61.6634L274.047 61.6599L273.545 62.7972L273.539 63.1622L274.008 63.1704ZM274.808 62.2081C274.809 62.1629 274.814 62.1234 274.824 62.0897C274.834 62.056 274.846 62.028 274.863 62.0057C274.879 61.9833 274.898 61.9663 274.919 61.9544C274.94 61.9425 274.961 61.9368 274.984 61.9371C275.019 61.9378 275.047 61.9477 275.068 61.9669C275.09 61.9861 275.106 62.0099 275.118 62.0384C275.13 62.0668 275.138 62.0966 275.141 62.1277C275.145 62.1589 275.147 62.1876 275.146 62.214C275.145 62.2987 275.128 62.3629 275.095 62.4066C275.062 62.4503 275.022 62.4717 274.974 62.4708C274.929 62.4701 274.889 62.4472 274.856 62.4024C274.823 62.3576 274.807 62.2928 274.808 62.2081ZM274.609 62.1658C274.607 62.2631 274.62 62.3484 274.646 62.4219C274.672 62.4953 274.712 62.5456 274.765 62.5727L274.765 62.5783C274.698 62.6052 274.646 62.6604 274.608 62.744C274.57 62.8275 274.55 62.9319 274.548 63.0572C274.546 63.1639 274.556 63.2557 274.579 63.3328C274.601 63.4099 274.631 63.4741 274.67 63.5253C274.709 63.5765 274.753 63.6142 274.803 63.6384C274.853 63.6627 274.904 63.6753 274.958 63.6762C275.01 63.6771 275.061 63.6654 275.111 63.641C275.161 63.6166 275.206 63.5795 275.246 63.5297C275.286 63.4799 275.318 63.4168 275.343 63.3406C275.368 63.2643 275.382 63.1738 275.384 63.069C275.386 62.9456 275.37 62.841 275.335 62.7553C275.301 62.6695 275.251 62.613 275.185 62.5856L275.185 62.58C275.239 62.5492 275.28 62.4975 275.309 62.425C275.337 62.3525 275.352 62.2677 275.354 62.1704C275.354 62.1218 275.349 62.067 275.337 62.0059C275.326 61.9449 275.306 61.8875 275.278 61.8337C275.25 61.7799 275.212 61.7339 275.165 61.6956C275.119 61.6574 275.061 61.6377 274.992 61.6365C274.947 61.6357 274.902 61.6461 274.857 61.6678C274.812 61.6895 274.772 61.7224 274.736 61.7667C274.7 61.811 274.67 61.8666 274.646 61.9335C274.623 62.0005 274.611 62.0779 274.609 62.1658ZM274.772 63.0419C274.774 62.9408 274.794 62.8639 274.833 62.8112C274.872 62.7586 274.919 62.7327 274.974 62.7337C275 62.7341 275.025 62.742 275.047 62.7574C275.07 62.7728 275.089 62.7947 275.106 62.823C275.123 62.8514 275.136 62.8849 275.146 62.9234C275.155 62.962 275.159 63.0047 275.159 63.0515C275.158 63.1002 275.152 63.145 275.142 63.186C275.132 63.227 275.118 63.2619 275.1 63.2906C275.082 63.3193 275.061 63.3414 275.038 63.357C275.015 63.3725 274.99 63.38 274.963 63.3795C274.936 63.3791 274.911 63.3707 274.887 63.3543C274.863 63.338 274.842 63.3152 274.825 63.2858C274.809 63.2565 274.795 63.2212 274.785 63.1798C274.775 63.1384 274.771 63.0925 274.772 63.0419ZM276.374 62.0426L276.38 61.7L275.622 61.6868L275.616 62.0575L276.142 62.0667C276.032 62.2913 275.942 62.5388 275.873 62.8091C275.803 63.0794 275.759 63.3614 275.742 63.6551L275.982 63.6593C275.986 63.5283 275.997 63.3871 276.016 63.2358C276.035 63.0844 276.061 62.9351 276.093 62.7877C276.126 62.6403 276.166 62.5015 276.213 62.3713C276.26 62.241 276.314 62.1315 276.374 62.0426ZM277.621 62.9286L277.642 61.6829L277.394 61.6786L277.372 62.9243C277.369 63.0739 277.351 63.1835 277.316 63.2531C277.281 63.3226 277.219 63.3566 277.13 63.3551C277.079 63.3542 277.039 63.3408 277.01 63.3151C276.98 63.2893 276.957 63.2561 276.941 63.2156C276.925 63.1751 276.914 63.1286 276.91 63.0762C276.906 63.0237 276.904 62.9704 276.905 62.9161L276.927 61.6705L276.678 61.6661L276.656 62.9118C276.652 63.1849 276.69 63.3876 276.772 63.52C276.853 63.6524 276.971 63.7199 277.124 63.7226C277.275 63.7252 277.394 63.6614 277.482 63.531C277.57 63.4006 277.616 63.1998 277.621 62.9286ZM278.133 63.0303L277.892 63.0261C277.889 63.1496 277.9 63.2564 277.924 63.3466C277.949 63.4369 277.983 63.5114 278.027 63.5702C278.071 63.6289 278.122 63.6724 278.18 63.7005C278.238 63.7287 278.299 63.7433 278.361 63.7444C278.438 63.7457 278.506 63.731 278.565 63.7002C278.624 63.6694 278.674 63.6259 278.715 63.5695C278.755 63.5132 278.786 63.4459 278.808 63.3677C278.829 63.2895 278.841 63.2045 278.842 63.1129C278.844 63.0006 278.832 62.9083 278.807 62.8358C278.781 62.7633 278.75 62.7053 278.714 62.6616C278.678 62.6179 278.641 62.5859 278.604 62.5657C278.567 62.5454 278.538 62.5313 278.517 62.5234C278.447 62.4904 278.39 62.4632 278.346 62.4419C278.303 62.4205 278.269 62.3994 278.245 62.3784C278.22 62.3573 278.204 62.3346 278.196 62.3102C278.188 62.2857 278.184 62.2538 278.185 62.2145C278.186 62.1715 278.191 62.1361 278.203 62.1082C278.214 62.0803 278.227 62.0572 278.244 62.0388C278.261 62.0203 278.279 62.0076 278.299 62.0004C278.32 61.9933 278.34 61.9899 278.36 61.9903C278.39 61.9908 278.419 61.996 278.444 62.0058C278.47 62.0156 278.493 62.0319 278.512 62.0547C278.532 62.0775 278.547 62.1086 278.559 62.1481C278.57 62.1876 278.577 62.2373 278.578 62.2972L278.818 62.3014C278.82 62.1854 278.81 62.0865 278.786 62.0047C278.763 61.9229 278.731 61.8555 278.689 61.8024C278.648 61.7493 278.6 61.7105 278.546 61.6862C278.492 61.6619 278.436 61.6492 278.377 61.6482C278.326 61.6473 278.275 61.6586 278.224 61.682C278.173 61.7054 278.127 61.742 278.086 61.7918C278.045 61.8416 278.012 61.9042 277.985 61.9795C277.959 62.0548 277.945 62.1439 277.944 62.2468C277.942 62.3385 277.95 62.4167 277.969 62.4816C277.987 62.5465 278.012 62.6007 278.043 62.6443C278.074 62.6878 278.109 62.7235 278.149 62.7514C278.188 62.7792 278.229 62.8028 278.271 62.8222C278.312 62.8435 278.352 62.863 278.392 62.8805C278.432 62.898 278.467 62.9183 278.498 62.9413C278.53 62.9643 278.555 62.9928 278.574 63.0268C278.593 63.0608 278.602 63.1049 278.601 63.1592C278.6 63.2097 278.592 63.2512 278.576 63.2836C278.561 63.3161 278.542 63.3415 278.52 63.3598C278.497 63.3782 278.473 63.3904 278.448 63.3965C278.422 63.4026 278.398 63.4054 278.376 63.405C278.344 63.4045 278.312 63.3969 278.282 63.3823C278.251 63.3678 278.225 63.3458 278.203 63.3164C278.181 63.287 278.163 63.2488 278.15 63.2018C278.137 63.1548 278.131 63.0977 278.133 63.0303ZM279.411 62.9436L279.571 62.2105L279.574 62.2105L279.704 62.9487L279.411 62.9436ZM279.455 61.715L278.992 63.7108L279.242 63.7152L279.339 63.2706L279.762 63.278L279.839 63.7256L280.097 63.7301L279.71 61.7195L279.455 61.715Z" fill="#1C1F34"/>
<g opacity="0.5">
<path fill-rule="evenodd" clip-rule="evenodd" d="M293.178 17.5222C293.346 14.747 291.265 12.3643 288.524 12.1998L274.652 11.3675C271.914 11.2033 269.558 13.3229 269.391 16.0867L268.187 36.0255C268.019 38.7961 270.1 41.1892 272.84 41.371L286.707 42.2913C289.444 42.473 291.799 40.3684 291.967 37.5953L293.178 17.5222Z" fill="url(#paint1_linear_1129_38221)"/>
<path fill-rule="evenodd" clip-rule="evenodd" d="M293.178 17.5222C293.346 14.747 291.265 12.3643 288.524 12.1998L274.652 11.3675C271.914 11.2033 269.558 13.3229 269.391 16.0867L268.187 36.0255C268.019 38.7961 270.1 41.1892 272.84 41.371L286.707 42.2913C289.444 42.473 291.799 40.3684 291.967 37.5953L293.178 17.5222Z" fill="url(#paint2_linear_1129_38221)" fill-opacity="0.3"/>
</g>
<path fill-rule="evenodd" clip-rule="evenodd" d="M292.381 17.496C292.52 15.1858 290.783 13.2017 288.494 13.0641L274.628 12.2307C272.342 12.0933 270.376 13.8614 270.237 16.1593L269.034 36.1154C268.895 38.4225 270.632 40.4158 272.92 40.5682L286.781 41.4909C289.066 41.643 291.031 39.8994 291.171 37.5832L292.381 17.496Z" fill="white"/>
<path fill-rule="evenodd" clip-rule="evenodd" d="M292.381 17.496C292.52 15.1858 290.783 13.2017 288.494 13.0641L274.628 12.2307C272.342 12.0933 270.376 13.8614 270.237 16.1593L269.034 36.1154C268.895 38.4225 270.632 40.4158 272.92 40.5682L286.781 41.4909C289.066 41.643 291.031 39.8994 291.171 37.5832L292.381 17.496Z" fill="url(#paint3_linear_1129_38221)" fill-opacity="0.05"/>
<path fill-rule="evenodd" clip-rule="evenodd" d="M290.002 17.4294C290.057 16.5086 289.362 15.7173 288.451 15.6622L274.54 14.8196C273.628 14.7644 272.844 15.4693 272.789 16.3972L271.594 36.3689C271.539 37.2954 272.233 38.0964 273.143 38.1578L287.05 39.0953C287.961 39.1567 288.744 38.453 288.799 37.5393L290.002 17.4294Z" fill="white"/>
<path opacity="0.1" fill-rule="evenodd" clip-rule="evenodd" d="M290.817 80.9729L277.931 81.0578C277.931 81.0578 277.154 66.7271 279.147 44.6871C281.14 22.6471 284.88 4.71752 284.88 4.71752L295.384 5.61421L290.817 80.9729Z" fill="#242D5F"/>
</g>
<path fill-rule="evenodd" clip-rule="evenodd" d="M288.297 82.4422C288.297 82.4422 285.945 73.3473 285.945 54.284C285.945 35.2206 291.29 5.787 291.29 5.787C291.811 2.59093 294.829 2.79837e-08 298.036 2.65289e-08C298.036 2.65289e-08 436.387 -3.52527e-08 458.22 2.97482e-08C477.505 -3.52527e-08 512.768 41.7901 512.768 41.7901C512.768 41.7901 537.561 53.0975 540.132 59.8854C542.703 66.6733 541.622 84.1727 536.049 88.2053C534.586 89.264 518.109 89.7736 494.601 89.9495C494.569 90.3726 494.214 90.7207 493.781 90.7207H294.595C294.146 90.7207 293.773 90.3484 293.773 89.8891V88.1132C291.116 87.4507 288.781 85.1486 288.297 82.4422Z" fill="#1C1F34"/>
<path fill-rule="evenodd" clip-rule="evenodd" d="M500.404 90.7207H337.954V94.0745H500.404V90.7207Z" fill="#1C1F34"/>
<path fill-rule="evenodd" clip-rule="evenodd" d="M289.956 82.442C289.956 82.442 287.605 73.3471 287.605 54.2838C287.605 35.2204 293.184 5.80363 293.184 5.80363C293.575 3.52442 295.747 1.67676 298.045 1.67676C298.045 1.67676 436.39 1.67676 458.222 1.67676C477.507 1.67676 510.283 42.6283 510.283 42.6283C510.283 42.6283 535.875 53.6844 538.477 59.8852C541.079 66.086 539.966 82.4956 534.394 86.5282C531.66 88.5065 475.373 89.0016 420.689 89.0435C397.292 89.0615 375.756 89.314 356.263 89.0435H294.597C294.148 89.0435 293.775 88.6712 293.775 88.212V87.4724C291.856 86.4437 290.337 84.5673 289.956 82.442Z" fill="white"/>
<path opacity="0.1" fill-rule="evenodd" clip-rule="evenodd" d="M539.36 59.9641C539.36 59.9641 528 53.2067 521.902 50.6669C517.358 48.7743 507.434 46.667 507.434 46.667L507.147 47.4548C507.147 47.4548 517.1 49.5742 521.658 51.4727C527.742 54.0066 539.074 60.752 539.074 60.752L539.36 59.9641Z" fill="#242D5F"/>
<path fill-rule="evenodd" clip-rule="evenodd" d="M495.378 54.6621L495.426 55.5878C495.535 57.6746 494.432 60.598 492.97 62.1092L481.897 73.5608C480.725 74.772 478.399 75.7539 476.68 75.7539L464.744 75.7539C463.035 75.7539 461.661 74.4017 461.676 72.7273L461.825 52.7229C461.84 51.0513 463.235 49.6694 464.935 49.6363L492.938 52.4457C494.22 52.4208 495.313 53.4134 495.378 54.6621Z" fill="white"/>
<path fill-rule="evenodd" clip-rule="evenodd" d="M495.378 54.6621L495.426 55.5878C495.535 57.6746 494.432 60.598 492.97 62.1092L481.897 73.5608C480.725 74.772 478.399 75.7539 476.68 75.7539L464.744 75.7539C463.035 75.7539 461.661 74.4017 461.676 72.7273L461.825 52.7229C461.84 51.0513 463.235 49.6694 464.935 49.6363L492.938 52.4457C494.22 52.4208 495.313 53.4134 495.378 54.6621Z" fill="url(#paint4_linear_1129_38221)" fill-opacity="0.05"/>
<path opacity="0.1" fill-rule="evenodd" clip-rule="evenodd" d="M487.147 68.0817C487.147 68.0817 454.97 61.374 438.882 61.374C393.361 61.374 290.462 61.374 290.462 61.374V62.2125C290.462 62.2125 392.796 62.2125 438.458 62.2125C454.405 62.2125 486.3 68.0817 486.3 68.0817H487.147Z" fill="#242D5F"/>
<path opacity="0.1" fill-rule="evenodd" clip-rule="evenodd" d="M473.881 11.9058C473.881 11.9058 468.481 6.875 453.764 6.875C412.121 6.875 292.114 6.875 292.114 6.875V7.71346C292.114 7.71346 412.433 7.71346 454.205 7.71346C468.793 7.71346 472.223 11.0673 472.223 11.0673L473.881 11.9058Z" fill="#242D5F"/>
<path opacity="0.1" fill-rule="evenodd" clip-rule="evenodd" d="M452.336 6.875H397.633V7.71344H452.336V6.875Z" fill="#242D5F"/>
<path opacity="0.2" fill-rule="evenodd" clip-rule="evenodd" d="M480.517 74.79H350.39V78.1438H480.517V74.79Z" fill="black"/>
<rect width="154.646" height="10.8999" transform="matrix(-1 0 0 1 494.604 71.4355)" fill="#1C1F34"/>
<rect width="1.6576" height="83.0069" transform="matrix(-1 0 0 1 453.168 6.875)" fill="#1C1F34"/>
<path fill-rule="evenodd" clip-rule="evenodd" d="M440.326 53.8281C439.637 53.8281 439.078 54.3864 439.078 55.0858C439.078 55.7804 439.638 56.3434 440.326 56.3434H445.289C445.978 56.3434 446.537 55.7852 446.537 55.0858C446.537 54.3912 445.976 53.8281 445.289 53.8281H440.326Z" fill="#1C1F34"/>
<path fill-rule="evenodd" clip-rule="evenodd" d="M501.742 63.9532C510.338 56.9829 507.049 41.3709 507.049 41.3709L505.656 39.5742C505.656 39.5742 508.859 55.5215 501.097 62.8429C492.622 70.0753 489.638 89.8814 489.638 89.8814H491.031C491.031 89.8814 494.721 70.7963 501.742 63.9532Z" fill="#1C1F34"/>
<path fill-rule="evenodd" clip-rule="evenodd" d="M459.392 53.8281C458.702 53.8281 458.143 54.3864 458.143 55.0858C458.143 55.7804 458.704 56.3434 459.392 56.3434H464.354C465.044 56.3434 465.603 55.7852 465.603 55.0858C465.603 54.3912 465.042 53.8281 464.354 53.8281H459.392Z" fill="#1C1F34"/>
<path fill-rule="evenodd" clip-rule="evenodd" d="M498.822 47.8449C502.917 48.3204 504.392 45.8881 502.033 42.4779C502.033 42.4779 499.678 38.2146 491.856 29.7533C484.033 21.2921 479.577 16.7852 479.577 16.7852C477.974 15.1375 474.823 13.6295 472.552 13.4183L461.591 12.3993C458.395 12.1022 456.132 14.4617 456.538 17.6845L459.029 37.4868C459.434 40.7028 462.343 43.6097 465.53 43.9797L498.822 47.8449Z" fill="#1C1F34"/>
<path fill-rule="evenodd" clip-rule="evenodd" d="M499.507 45.868C500.87 46.0233 501.345 45.2239 500.564 44.0754L496.633 38.2962C495.336 36.3887 493.013 33.4653 491.461 31.7825L478.478 17.71C477.23 16.3566 474.734 15.1266 472.916 14.9636L460.811 13.8786C458.988 13.7151 457.699 15.073 457.932 16.9069L460.634 38.1617C460.867 39.9976 462.537 41.6547 464.353 41.8617L499.507 45.868Z" fill="url(#paint5_linear_1129_38221)"/>
<path fill-rule="evenodd" clip-rule="evenodd" d="M461.793 25.251C461.741 24.3638 460.981 23.6445 460.095 23.6445H460.573C459.688 23.6445 458.97 24.3682 458.97 25.251V31.261C458.97 32.1482 459.68 32.8675 460.568 32.8675H460.645C461.528 32.8675 462.201 32.1438 462.149 31.261L461.793 25.251Z" fill="#1C1F34"/>
<path fill-rule="evenodd" clip-rule="evenodd" d="M461.454 35.3828H460.634C459.716 35.3828 459.175 36.1025 459.429 37.0021L462.287 42.0905H465.603L463.699 36.9555C463.377 36.0869 462.375 35.3828 461.454 35.3828Z" fill="#1C1F34"/>
<path fill-rule="evenodd" clip-rule="evenodd" d="M486.031 45.08C485.698 45.6877 484.945 45.0622 484.344 44.7254C483.739 44.3863 483.525 44.4645 483.856 43.8605L487.881 36.5145C488.214 35.9067 488.967 35.6939 489.568 36.0306C490.172 36.3697 490.387 37.13 490.056 37.7339L487.868 41.7277L490.595 43.9722L489.387 46.0049L486.256 44.6688L486.031 45.08Z" fill="#1C1F34"/>
<path fill-rule="evenodd" clip-rule="evenodd" d="M502.071 44.0052L497.356 36.1152L484.816 45.5634L501.242 47.1216L502.071 44.0052Z" fill="#1C1F34"/>
<path opacity="0.1" fill-rule="evenodd" clip-rule="evenodd" d="M500.388 44.5577C500.639 41.8352 499.046 37.1641 499.046 37.1641C498.76 36.2358 497.737 35.2437 496.762 34.9486L495.692 34.6247C494.717 34.3295 493.855 34.8681 493.766 35.8397L492.472 49.9173C492.383 50.8835 493.139 51.7358 494.153 51.8202L496 51.9741C497.018 52.0588 498.144 51.3889 498.504 50.4857C498.504 50.4857 500.213 46.4623 500.388 44.5577Z" fill="#242D5F"/>
<path fill-rule="evenodd" clip-rule="evenodd" d="M500.388 42.9239C500.589 40.5978 499.618 36.8347 499.618 36.8347C499.412 35.9328 498.547 34.9441 497.689 34.6274L497.725 34.6408C496.865 34.3236 496.104 34.8112 496.024 35.7311L495.013 47.42C494.934 48.3393 495.603 49.1495 496.52 49.2306L496.933 49.2672C497.844 49.3479 498.824 48.6946 499.108 47.8184C499.108 47.8184 500.247 44.5512 500.388 42.9239Z" fill="#1C1F34"/>
<g opacity="0.1">
<path fill-rule="evenodd" clip-rule="evenodd" d="M485.961 32.2451L476.362 20.6733C476.07 20.3215 475.552 20.2755 475.199 20.5752C474.848 20.8729 474.807 21.4066 475.092 21.7512L484.691 33.323C484.983 33.6748 485.501 33.7208 485.854 33.4211C486.205 33.1234 486.247 32.5897 485.961 32.2451Z" fill="white"/>
<path fill-rule="evenodd" clip-rule="evenodd" d="M478.712 28.9592C478.887 28.8103 478.906 28.5414 478.763 28.3683L475.034 23.8728C474.887 23.6953 474.62 23.6764 474.45 23.8208C474.274 23.9697 474.255 24.2386 474.399 24.4117L478.128 28.9072C478.275 29.0847 478.542 29.1036 478.712 28.9592Z" fill="white"/>
</g>
<path fill-rule="evenodd" clip-rule="evenodd" d="M291.644 47.2398C291.771 43.5942 292.425 36.3717 292.425 36.3717C292.546 34.9907 291.537 33.8325 290.161 33.7845L289.786 33.7714C288.415 33.7235 287.205 34.8061 287.085 36.1936C287.085 36.1936 286.434 43.3368 286.308 46.947C286.136 51.8637 286.665 61.368 286.665 61.368C286.735 62.7496 287.898 63.9082 289.273 63.9562L289.649 63.9693C291.019 64.0172 292.072 62.9335 292.002 61.5384C292.002 61.5384 291.473 52.1211 291.644 47.2398Z" fill="#1C1F34"/>
<path fill-rule="evenodd" clip-rule="evenodd" d="M290.234 47.391C290.347 44.1504 291.117 36.3865 291.117 36.3865C291.161 35.9278 290.827 35.5429 290.373 35.5271L289.273 35.4887C288.818 35.4728 288.412 35.8327 288.367 36.3004C288.367 36.3004 287.6 43.9914 287.488 47.2004C287.336 51.5708 287.757 61.4487 287.757 61.4487C287.776 61.9099 288.162 62.2967 288.616 62.3125L289.715 62.3509C290.171 62.3668 290.524 62.0072 290.505 61.5405C290.505 61.5405 290.082 51.7298 290.234 47.391Z" fill="#C10000"/>
<mask id="mask1_1129_38221" style="mask-type:alpha" maskUnits="userSpaceOnUse" x="287" y="35" width="5" height="28">
<path fill-rule="evenodd" clip-rule="evenodd" d="M290.234 47.391C290.347 44.1504 291.117 36.3865 291.117 36.3865C291.161 35.9278 290.827 35.5429 290.373 35.5271L289.273 35.4887C288.818 35.4728 288.412 35.8327 288.367 36.3004C288.367 36.3004 287.6 43.9914 287.488 47.2004C287.336 51.5708 287.757 61.4487 287.757 61.4487C287.776 61.9099 288.162 62.2967 288.616 62.3125L289.715 62.3509C290.171 62.3668 290.524 62.0072 290.505 61.5405C290.505 61.5405 290.082 51.7298 290.234 47.391Z" fill="white"/>
</mask>
<g mask="url(#mask1_1129_38221)">
<path opacity="0.4" fill-rule="evenodd" clip-rule="evenodd" d="M288.473 51.402L287.422 51.4203L287.669 61.4789L288.907 61.4573L288.473 51.402Z" fill="white"/>
</g>
<path fill-rule="evenodd" clip-rule="evenodd" d="M540.198 60.5361H531.897C530.985 60.5361 530.418 61.2598 530.633 62.1638L532.052 68.1315C532.266 69.0304 533.186 69.7591 534.096 69.7591H540.291C541.205 69.7591 542.007 69.0043 542.079 68.0889L541.717 62.2063C541.79 61.2839 541.109 60.5361 540.198 60.5361Z" fill="#1C1F34"/>
<path fill-rule="evenodd" clip-rule="evenodd" d="M540.154 62.2129H531.995L533.581 68.0821H540.454L540.154 62.2129Z" fill="url(#paint6_linear_1129_38221)"/>
<mask id="mask2_1129_38221" style="mask-type:alpha" maskUnits="userSpaceOnUse" x="531" y="62" width="10" height="7">
<path fill-rule="evenodd" clip-rule="evenodd" d="M540.154 62.2129H531.995L533.581 68.0821H540.454L540.154 62.2129Z" fill="white"/>
</mask>
<g mask="url(#mask2_1129_38221)">
<ellipse rx="1.09701" ry="1.97636" transform="matrix(-0.99863 0.052336 0.052336 0.99863 539.322 65.16)" fill="white"/>
<path opacity="0.2" fill-rule="evenodd" clip-rule="evenodd" d="M534.001 60.5361H530.875V69.1003H535.658L534.001 60.5361Z" fill="#FF0000"/>
</g>
<path fill-rule="evenodd" clip-rule="evenodd" d="M512.836 53.41C512.836 52.7154 512.277 52.1523 511.593 52.1523H509.935C509.248 52.1523 508.692 52.7106 508.692 53.41C508.692 54.1046 509.251 54.6677 509.935 54.6677H511.593C512.279 54.6677 512.836 54.1094 512.836 53.41Z" fill="#1C1F34"/>
<path fill-rule="evenodd" clip-rule="evenodd" d="M512.001 53.4095C512.001 53.1779 511.822 52.9902 511.59 52.9902H509.925C509.698 52.9902 509.514 53.1847 509.514 53.4095C509.514 53.641 509.693 53.8287 509.925 53.8287H511.59C511.817 53.8287 512.001 53.6342 512.001 53.4095Z" fill="#F5A623"/>
<mask id="mask3_1129_38221" style="mask-type:alpha" maskUnits="userSpaceOnUse" x="509" y="52" width="4" height="2">
<path fill-rule="evenodd" clip-rule="evenodd" d="M512.001 53.4095C512.001 53.1779 511.822 52.9902 511.59 52.9902H509.925C509.698 52.9902 509.514 53.1847 509.514 53.4095C509.514 53.641 509.693 53.8287 509.925 53.8287H511.59C511.817 53.8287 512.001 53.6342 512.001 53.4095Z" fill="white"/>
</mask>
<g mask="url(#mask3_1129_38221)">
<path fill-rule="evenodd" clip-rule="evenodd" d="M512.833 52.9902H511.174V53.8294H512.833V52.9902Z" fill="white"/>
</g>
<g opacity="0.5">
<path fill-rule="evenodd" clip-rule="evenodd" d="M439.069 11.9062H307.851C303.275 11.9062 299.222 15.6467 298.798 20.2546L296.941 40.4499C296.517 45.0606 299.882 48.7982 304.459 48.7982H439.069C443.645 48.7982 447.354 45.0407 447.354 40.4153V20.2891C447.354 15.6594 443.648 11.9062 439.069 11.9062Z" fill="url(#paint7_linear_1129_38221)"/>
<path fill-rule="evenodd" clip-rule="evenodd" d="M439.069 11.9062H307.851C303.275 11.9062 299.222 15.6467 298.798 20.2546L296.941 40.4499C296.517 45.0606 299.882 48.7982 304.459 48.7982H439.069C443.645 48.7982 447.354 45.0407 447.354 40.4153V20.2891C447.354 15.6594 443.648 11.9062 439.069 11.9062Z" fill="url(#paint8_linear_1129_38221)" fill-opacity="0.3"/>
</g>
<path fill-rule="evenodd" clip-rule="evenodd" d="M439.062 12.7451H307.82C303.7 12.7451 300.04 16.1057 299.645 20.2564L297.723 40.4488C297.328 44.5972 300.343 47.9601 304.47 47.9601H439.06C443.182 47.9601 446.522 44.5835 446.522 40.4164V20.2888C446.522 16.1225 443.186 12.7451 439.062 12.7451Z" fill="white"/>
<path fill-rule="evenodd" clip-rule="evenodd" d="M439.062 12.7451H307.82C303.7 12.7451 300.04 16.1057 299.645 20.2564L297.723 40.4488C297.328 44.5972 300.343 47.9601 304.47 47.9601H439.06C443.182 47.9601 446.522 44.5835 446.522 40.4164V20.2888C446.522 16.1225 443.186 12.7451 439.062 12.7451Z" fill="url(#paint9_linear_1129_38221)" fill-opacity="0.05"/>
<path fill-rule="evenodd" clip-rule="evenodd" d="M439.069 15.2598H307.733C304.986 15.2598 302.518 17.5038 302.223 20.261L300.064 40.4429C299.768 43.205 301.748 45.4441 304.507 45.4441H439.066C441.815 45.4441 444.044 43.2 444.044 40.4089V20.295C444.044 17.5141 441.825 15.2598 439.069 15.2598Z" fill="white"/>
<path fill-rule="evenodd" clip-rule="evenodd" d="M514.555 44.3278C514.555 44.3278 503.066 31.5293 496.908 25.13C492.802 20.8643 484.591 14.0097 484.591 14.0097L481.084 11.1689L478.905 11.467C477.997 11.5912 477.807 12.204 478.478 12.8362C478.478 12.8362 489 22.6838 493.89 27.9872C498.606 33.1018 507.21 43.3308 507.21 43.3308L514.555 44.3278Z" fill="#1C1F34"/>
<path fill-rule="evenodd" clip-rule="evenodd" d="M346.779 47.1357V49.6223L397.925 49.6223V47.1357L346.779 47.1357Z" fill="#1C1F34"/>
<rect width="1.6576" height="83.0069" transform="matrix(-1 0 0 1 398.458 6.875)" fill="#1C1F34"/>
<path fill-rule="evenodd" clip-rule="evenodd" d="M542.541 74.6499C543.067 72.8752 542.009 71.4365 540.172 71.4365H512.005C510.17 71.4365 508.683 72.9394 508.683 74.7891V90.7223C508.683 92.5738 510.142 93.7877 511.933 93.4355L535.271 88.8449C537.066 88.4918 538.949 86.7614 539.474 84.9922L542.541 74.6499Z" fill="#1C1F34"/>
<ellipse opacity="0.1" rx="23.2072" ry="13.5189" transform="matrix(-1 0 0 1 504.552 77.4095)" fill="#242D5F"/>
<ellipse rx="20.7541" ry="13.1149" transform="matrix(-1 0 0 1 504.515 79.5202)" fill="#1C1F34"/>
<path fill-rule="evenodd" clip-rule="evenodd" d="M314.553 82.3364C316.382 82.3364 317.87 80.8324 317.87 78.9771V74.7958C317.87 72.9407 318.041 71.4365 316.207 71.4365H289.147C287.314 71.4365 285.92 72.9339 286.036 74.7809L286.451 80.2352C286.589 82.0858 289.471 89.3508 290.266 90.5592C291.061 91.7676 293.998 91.7043 293.998 91.7043C295.809 91.9513 297.102 89.7806 296.874 87.9388L296.179 82.3364H314.553Z" fill="#1C1F34"/>
<ellipse opacity="0.1" cx="330.84" cy="76.9311" rx="23.2072" ry="13.0405" fill="#242D5F"/>
<ellipse cx="330.731" cy="79.4719" rx="20.6774" ry="13.0666" fill="#1C1F34"/>
<ellipse rx="17.4054" ry="17.6075" transform="matrix(-1 0 0 1 504.55 87.1973)" fill="#1C1F34"/>
<ellipse rx="10.7748" ry="10.8999" transform="matrix(-1 0 0 1 504.552 87.1978)" fill="url(#paint10_linear_1129_38221)"/>
<ellipse rx="5.80179" ry="5.86915" transform="matrix(-1 0 0 1 504.551 87.1973)" fill="#1C1F34"/>
<ellipse rx="0.82949" ry="0.839138" transform="matrix(-1 0 0 1 504.552 78.8137)" fill="#1C1F34"/>
<ellipse rx="0.82949" ry="0.839138" transform="matrix(-1 0 0 1 504.552 95.5833)" fill="#1C1F34"/>
<ellipse rx="0.82949" ry="0.839138" transform="matrix(-0.939693 0.34202 0.34202 0.939693 501.717 79.3193)" fill="#1C1F34"/>
<ellipse rx="0.82949" ry="0.839138" transform="matrix(-0.939693 0.34202 0.34202 0.939693 507.387 95.0771)" fill="#1C1F34"/>
<ellipse rx="0.82949" ry="0.839138" transform="matrix(-0.766044 0.642788 0.642788 0.766044 499.222 80.7756)" fill="#1C1F34"/>
<ellipse rx="0.82949" ry="0.839138" transform="matrix(-0.766044 0.642788 0.642788 0.766044 509.882 93.6213)" fill="#1C1F34"/>
<ellipse rx="0.82949" ry="0.839138" transform="matrix(-0.5 0.866025 0.866025 0.5 497.373 83.0061)" fill="#1C1F34"/>
<ellipse rx="0.82949" ry="0.839138" transform="matrix(-0.5 0.866025 0.866025 0.5 511.73 91.3909)" fill="#1C1F34"/>
<ellipse rx="0.82949" ry="0.839138" transform="matrix(-0.173648 0.984808 0.984808 0.173648 496.391 85.7429)" fill="#1C1F34"/>
<ellipse rx="0.82949" ry="0.839138" transform="matrix(-0.173648 0.984808 0.984808 0.173648 512.718 88.654)" fill="#1C1F34"/>
<ellipse rx="0.82949" ry="0.839138" transform="matrix(0.173648 0.984808 0.984808 -0.173648 496.386 88.6536)" fill="#1C1F34"/>
<ellipse rx="0.82949" ry="0.839138" transform="matrix(0.173648 0.984808 0.984808 -0.173648 512.717 85.7425)" fill="#1C1F34"/>
<ellipse rx="0.82949" ry="0.839138" transform="matrix(0.5 0.866025 0.866025 -0.5 497.377 91.3896)" fill="#1C1F34"/>
<ellipse rx="0.82949" ry="0.839138" transform="matrix(0.5 0.866025 0.866025 -0.5 511.731 83.0058)" fill="#1C1F34"/>
<ellipse rx="0.82949" ry="0.839138" transform="matrix(0.766044 0.642788 0.642788 -0.766044 499.22 93.6208)" fill="#1C1F34"/>
<ellipse rx="0.82949" ry="0.839138" transform="matrix(0.766044 0.642788 0.642788 -0.766044 509.884 80.7742)" fill="#1C1F34"/>
<ellipse rx="0.82949" ry="0.839138" transform="matrix(0.939693 0.34202 0.34202 -0.939693 501.72 95.0752)" fill="#1C1F34"/>
<ellipse rx="0.82949" ry="0.839138" transform="matrix(0.939693 0.34202 0.34202 -0.939693 507.39 79.3184)" fill="#1C1F34"/>
<ellipse rx="17.4054" ry="17.6075" transform="matrix(-1 0 0 1 330.839 87.1973)" fill="#1C1F34"/>
<ellipse rx="10.7748" ry="10.8999" transform="matrix(-1 0 0 1 330.841 87.1978)" fill="url(#paint11_linear_1129_38221)"/>
<ellipse rx="5.80179" ry="5.86915" transform="matrix(-1 0 0 1 330.836 87.1973)" fill="#1C1F34"/>
<ellipse rx="0.82949" ry="0.839138" transform="matrix(-1 0 0 1 330.839 78.8147)" fill="#1C1F34"/>
<ellipse rx="0.82949" ry="0.839138" transform="matrix(-1 0 0 1 330.839 95.5833)" fill="#1C1F34"/>
<ellipse rx="0.82949" ry="0.839138" transform="matrix(-0.939693 0.34202 0.34202 0.939693 328.002 79.3203)" fill="#1C1F34"/>
<ellipse rx="0.82949" ry="0.839138" transform="matrix(-0.939693 0.34202 0.34202 0.939693 333.672 95.0781)" fill="#1C1F34"/>
<ellipse rx="0.82949" ry="0.839138" transform="matrix(-0.766044 0.642788 0.642788 0.766044 325.509 80.7766)" fill="#1C1F34"/>
<ellipse rx="0.82949" ry="0.839138" transform="matrix(-0.766044 0.642788 0.642788 0.766044 336.171 93.6223)" fill="#1C1F34"/>
<ellipse rx="0.82949" ry="0.839138" transform="matrix(-0.5 0.866025 0.866025 0.5 323.66 83.0071)" fill="#1C1F34"/>
<ellipse rx="0.82949" ry="0.839138" transform="matrix(-0.5 0.866025 0.866025 0.5 338.018 91.3918)" fill="#1C1F34"/>
<ellipse rx="0.82949" ry="0.839138" transform="matrix(-0.173648 0.984808 0.984808 0.173648 322.678 85.7429)" fill="#1C1F34"/>
<ellipse rx="0.82949" ry="0.839138" transform="matrix(-0.173648 0.984808 0.984808 0.173648 339.002 88.655)" fill="#1C1F34"/>
<ellipse rx="0.82949" ry="0.839138" transform="matrix(0.173648 0.984808 0.984808 -0.173648 322.674 88.6555)" fill="#1C1F34"/>
<ellipse rx="0.82949" ry="0.839138" transform="matrix(0.173648 0.984808 0.984808 -0.173648 339.005 85.7434)" fill="#1C1F34"/>
<ellipse rx="0.82949" ry="0.839138" transform="matrix(0.5 0.866025 0.866025 -0.5 323.664 91.3906)" fill="#1C1F34"/>
<ellipse rx="0.82949" ry="0.839138" transform="matrix(0.5 0.866025 0.866025 -0.5 338.018 83.0058)" fill="#1C1F34"/>
<ellipse rx="0.82949" ry="0.839138" transform="matrix(0.766044 0.642788 0.642788 -0.766044 325.507 93.6208)" fill="#1C1F34"/>
<ellipse rx="0.82949" ry="0.839138" transform="matrix(0.766044 0.642788 0.642788 -0.766044 336.171 80.7751)" fill="#1C1F34"/>
<ellipse rx="0.82949" ry="0.839138" transform="matrix(0.939693 0.34202 0.34202 -0.939693 328.008 95.0762)" fill="#1C1F34"/>
<ellipse rx="0.82949" ry="0.839138" transform="matrix(0.939693 0.34202 0.34202 -0.939693 333.678 79.3194)" fill="#1C1F34"/>
<path fill-rule="evenodd" clip-rule="evenodd" d="M214.96 25.1821C214.985 24.337 214.308 23.6379 213.462 23.6366L191.052 23.603C189.917 23.6013 188.962 24.4377 188.838 25.5653C188.364 29.8488 187.303 40.6511 187.085 53.1495C186.858 66.1113 187.531 79.0862 187.808 83.755C187.871 84.8177 188.68 85.6373 189.744 85.6684C191.024 85.7056 193.122 85.7285 196.466 85.6793C201.87 85.5998 208.863 85.2915 211.785 85.1543C212.566 85.1176 213.181 84.4856 213.205 83.7039L214.96 25.1821Z" fill="#1C1F34"/>
<path fill-rule="evenodd" clip-rule="evenodd" d="M216.417 25.7675C216.43 25.3444 216.09 24.9943 215.667 24.9943L191.814 24.9926C191.062 24.9926 190.428 25.5469 190.339 26.2936C189.91 29.894 188.763 40.5574 188.543 53.1112C188.318 66.0419 189.069 78.9872 189.324 82.9237C189.37 83.6327 189.912 84.1802 190.622 84.2083C191.803 84.2549 194.012 84.2966 197.949 84.2442C203.35 84.1723 210.34 83.8827 213.264 83.7536C214.046 83.719 214.664 83.0867 214.688 82.3038L216.417 25.7675Z" fill="white"/>
<mask id="mask4_1129_38221" style="mask-type:alpha" maskUnits="userSpaceOnUse" x="188" y="24" width="29" height="61">
<path fill-rule="evenodd" clip-rule="evenodd" d="M216.417 25.7675C216.43 25.3444 216.09 24.9943 215.667 24.9943L191.814 24.9926C191.062 24.9926 190.428 25.5469 190.339 26.2936C189.91 29.894 188.763 40.5574 188.543 53.1112C188.318 66.0419 189.069 78.9872 189.324 82.9237C189.37 83.6327 189.912 84.1802 190.622 84.2083C191.803 84.2549 194.012 84.2966 197.949 84.2442C203.35 84.1723 210.34 83.8827 213.264 83.7536C214.046 83.719 214.664 83.0867 214.688 82.3038L216.417 25.7675Z" fill="white"/>
</mask>
<g mask="url(#mask4_1129_38221)">
<path fill-rule="evenodd" clip-rule="evenodd" d="M210.409 77.2559H188.913V79.3809H210.409V77.2559Z" fill="#1F2857"/>
<path fill-rule="evenodd" clip-rule="evenodd" d="M210.419 77.9639H188.923V85.7557H210.419V77.9639Z" fill="#1C1F34"/>
<path fill-rule="evenodd" clip-rule="evenodd" d="M193.693 55.2746C193.112 55.2645 192.632 55.7348 192.622 56.3201L192.526 61.8434C192.516 62.4309 192.974 62.9154 193.559 62.9256C194.141 62.9357 194.62 62.4654 194.63 61.8801L194.727 56.3568C194.737 55.7693 194.278 55.2848 193.693 55.2746Z" fill="#1C1F34"/>
<path opacity="0.1" fill-rule="evenodd" clip-rule="evenodd" d="M228.107 60.7979L187.424 60.0877L187.412 60.7959L228.095 61.506L228.107 60.7979Z" fill="#242D5F"/>
<path fill-rule="evenodd" clip-rule="evenodd" d="M205.513 68.0131C205.513 67.2308 204.886 66.5967 204.113 66.5967H194.285C193.512 66.5967 192.885 67.2253 192.885 68.0131V72.2637C192.885 73.0459 193.511 73.6801 194.285 73.6801H204.113C204.886 73.6801 205.513 73.0515 205.513 72.2637V68.0131Z" fill="url(#paint12_linear_1129_38221)"/>
<path fill-rule="evenodd" clip-rule="evenodd" d="M204.129 68.6113C204.129 68.2947 203.876 68.0381 203.573 68.0381H194.864C194.556 68.0381 194.307 68.2912 194.307 68.6113V71.715C194.307 72.0315 194.56 72.2882 194.864 72.2882H203.573C203.88 72.2882 204.129 72.035 204.129 71.715V68.6113Z" fill="white"/>
<path opacity="0.1" fill-rule="evenodd" clip-rule="evenodd" d="M202.501 68.5693H195.953V69.1652H202.501V68.5693Z" fill="black"/>
<path opacity="0.1" fill-rule="evenodd" clip-rule="evenodd" d="M202.501 71.2256H195.953V71.8214H202.501V71.2256Z" fill="black"/>
<path fill-rule="evenodd" clip-rule="evenodd" d="M196.152 69.8792V69.4808H196.351C196.37 69.4808 196.388 69.4835 196.405 69.4891C196.423 69.4947 196.438 69.5046 196.452 69.5189C196.465 69.5332 196.476 69.5531 196.484 69.5786C196.492 69.604 196.496 69.6366 196.496 69.6764C196.496 69.748 196.484 69.7997 196.46 69.8315C196.436 69.8633 196.405 69.8792 196.367 69.8792H196.152ZM195.938 69.1916V70.8856H196.402C196.445 70.8856 196.486 70.8761 196.527 70.8571C196.568 70.8381 196.604 70.8089 196.636 70.7693C196.667 70.7298 196.693 70.6788 196.712 70.6163C196.73 70.5538 196.74 70.4799 196.74 70.3945C196.74 70.2885 196.725 70.198 196.696 70.1228C196.667 70.0477 196.623 69.9951 196.564 69.9651C196.607 69.9287 196.639 69.882 196.661 69.8251C196.683 69.7681 196.694 69.697 196.694 69.6115C196.694 69.5325 196.687 69.466 196.672 69.4122C196.657 69.3585 196.636 69.3154 196.61 69.2829C196.583 69.2505 196.551 69.2272 196.513 69.213C196.475 69.1987 196.434 69.1916 196.388 69.1916H195.938ZM196.152 70.5978V70.1302H196.383C196.429 70.1302 196.466 70.1489 196.494 70.1863C196.522 70.2236 196.535 70.2861 196.535 70.3736C196.535 70.4181 196.531 70.4547 196.523 70.4833C196.514 70.5119 196.503 70.5346 196.488 70.5513C196.474 70.568 196.457 70.5799 196.438 70.5871C196.419 70.5943 196.4 70.5978 196.379 70.5978H196.152ZM197.32 69.6465V70.2263H197.072L197.316 69.6465H197.32ZM197.319 70.5009V70.8853H197.501V70.5009H197.625V70.2234H197.501V69.2245H197.33L196.922 70.1925V70.5009H197.319ZM197.988 69.6769C197.988 69.6387 197.992 69.6053 198 69.5767C198.007 69.548 198.018 69.5242 198.031 69.5051C198.045 69.486 198.06 69.4713 198.078 69.4609C198.095 69.4506 198.114 69.4454 198.132 69.4454C198.162 69.4454 198.186 69.4534 198.205 69.4693C198.223 69.4852 198.237 69.5051 198.248 69.5289C198.258 69.5528 198.265 69.5778 198.269 69.6041C198.272 69.6303 198.274 69.6546 198.274 69.6769C198.274 69.7485 198.261 69.8029 198.234 69.8403C198.207 69.8777 198.173 69.8964 198.132 69.8964C198.094 69.8964 198.06 69.8777 198.031 69.8403C198.002 69.8029 197.988 69.7485 197.988 69.6769ZM197.816 69.6452C197.816 69.7274 197.827 69.7994 197.851 69.8611C197.874 69.9227 197.908 69.9647 197.954 69.9868V69.9916C197.898 70.0153 197.854 70.0627 197.823 70.1339C197.792 70.2051 197.777 70.2937 197.777 70.3996C197.777 70.4898 197.787 70.5673 197.807 70.6322C197.827 70.697 197.854 70.7508 197.888 70.7935C197.921 70.8362 197.959 70.8674 198.002 70.8872C198.044 70.907 198.088 70.9169 198.134 70.9169C198.178 70.9169 198.22 70.9062 198.263 70.8848C198.305 70.8635 198.342 70.8315 198.375 70.7887C198.408 70.746 198.435 70.6923 198.455 70.6274C198.475 70.5626 198.485 70.4858 198.485 70.3973C198.485 70.2929 198.47 70.2047 198.44 70.1327C198.409 70.0608 198.366 70.0137 198.309 69.9916V69.9868C198.355 69.9599 198.389 69.9156 198.412 69.8539C198.435 69.7923 198.446 69.7203 198.446 69.638C198.446 69.5969 198.441 69.5506 198.43 69.4992C198.419 69.4478 198.402 69.3996 198.377 69.3545C198.353 69.3094 198.32 69.2711 198.28 69.2394C198.24 69.2078 198.191 69.192 198.132 69.192C198.094 69.192 198.056 69.2015 198.018 69.2205C197.981 69.2394 197.947 69.2679 197.917 69.3059C197.887 69.3438 197.863 69.3913 197.844 69.4482C197.825 69.5052 197.816 69.5708 197.816 69.6452ZM197.965 70.3833C197.965 70.2974 197.982 70.2318 198.014 70.1864C198.046 70.1411 198.086 70.1184 198.133 70.1184C198.155 70.1184 198.176 70.1248 198.195 70.1375C198.215 70.1502 198.232 70.1685 198.247 70.1924C198.261 70.2162 198.273 70.2445 198.282 70.2771C198.29 70.3097 198.295 70.3459 198.295 70.3857C198.295 70.427 198.29 70.4652 198.282 70.5002C198.274 70.5352 198.263 70.565 198.248 70.5897C198.233 70.6144 198.216 70.6334 198.197 70.647C198.177 70.6605 198.156 70.6673 198.133 70.6673C198.11 70.6673 198.089 70.6605 198.068 70.647C198.047 70.6334 198.029 70.6144 198.015 70.5897C198 70.565 197.988 70.5352 197.979 70.5002C197.97 70.4652 197.965 70.4262 197.965 70.3833ZM199.305 69.5139V69.2245H198.664V69.5377H199.109C199.02 69.7291 198.948 69.9394 198.893 70.1688C198.838 70.3981 198.805 70.637 198.794 70.8853H198.998C198.999 70.7746 199.006 70.6552 199.02 70.527C199.034 70.3989 199.054 70.2724 199.079 70.1474C199.105 70.0225 199.136 69.9046 199.174 69.7939C199.212 69.6832 199.256 69.5899 199.305 69.5139ZM200.378 70.2454V69.192H200.167V70.2454C200.167 70.372 200.153 70.4649 200.124 70.5242C200.096 70.5835 200.044 70.6132 199.969 70.6132C199.926 70.6132 199.891 70.6025 199.866 70.5812C199.84 70.5598 199.82 70.5321 199.806 70.4981C199.792 70.4641 199.782 70.425 199.778 70.3807C199.774 70.3364 199.771 70.2913 199.771 70.2454V69.192H199.561V70.2454C199.561 70.4764 199.596 70.6472 199.667 70.7579C199.738 70.8687 199.839 70.924 199.969 70.924C200.096 70.924 200.197 70.8683 200.269 70.7568C200.341 70.6452 200.378 70.4748 200.378 70.2454ZM200.814 70.3234H200.61C200.609 70.4278 200.62 70.518 200.642 70.5939C200.665 70.6698 200.695 70.7323 200.733 70.7814C200.771 70.8304 200.815 70.8664 200.864 70.8893C200.914 70.9123 200.965 70.9237 201.018 70.9237C201.083 70.9237 201.141 70.9103 201.19 70.8834C201.24 70.8565 201.282 70.8189 201.315 70.7707C201.349 70.7224 201.374 70.6651 201.391 70.5987C201.408 70.5322 201.417 70.4603 201.417 70.3828C201.417 70.2879 201.405 70.21 201.382 70.1491C201.359 70.0882 201.332 70.0395 201.301 70.0031C201.27 69.9668 201.238 69.9403 201.207 69.9237C201.175 69.907 201.15 69.8956 201.132 69.8893C201.072 69.8624 201.024 69.8402 200.987 69.8228C200.949 69.8054 200.92 69.788 200.899 69.7706C200.878 69.7532 200.864 69.7342 200.857 69.7137C200.85 69.6931 200.846 69.6662 200.846 69.633C200.846 69.5966 200.851 69.5666 200.86 69.5429C200.869 69.5191 200.88 69.4994 200.894 69.4835C200.908 69.4677 200.923 69.4566 200.94 69.4503C200.957 69.444 200.974 69.4408 200.991 69.4408C201.017 69.4408 201.041 69.4448 201.063 69.4527C201.085 69.4606 201.104 69.474 201.121 69.493C201.138 69.512 201.152 69.5381 201.162 69.5713C201.173 69.6045 201.179 69.6465 201.18 69.6971H201.384C201.384 69.599 201.374 69.5156 201.353 69.4468C201.332 69.378 201.303 69.3214 201.268 69.2771C201.232 69.2328 201.191 69.2008 201.145 69.181C201.099 69.1613 201.051 69.1514 201.001 69.1514C200.958 69.1514 200.915 69.1616 200.872 69.1822C200.829 69.2028 200.79 69.2344 200.756 69.2771C200.722 69.3198 200.695 69.3732 200.674 69.4373C200.653 69.5013 200.642 69.5769 200.642 69.6639C200.642 69.7414 200.651 69.8074 200.667 69.862C200.684 69.9165 200.705 69.962 200.732 69.9984C200.759 70.0348 200.79 70.0644 200.824 70.0874C200.858 70.1103 200.892 70.1297 200.928 70.1455C200.963 70.1629 200.997 70.1787 201.031 70.1929C201.065 70.2072 201.096 70.2238 201.123 70.2428C201.15 70.2618 201.171 70.2855 201.188 70.314C201.204 70.3424 201.213 70.3796 201.213 70.4255C201.213 70.4682 201.206 70.5034 201.194 70.531C201.181 70.5587 201.166 70.5805 201.147 70.5963C201.128 70.6121 201.108 70.6228 201.086 70.6283C201.065 70.6339 201.045 70.6366 201.026 70.6366C200.998 70.6366 200.972 70.6307 200.946 70.6188C200.92 70.607 200.897 70.5888 200.878 70.5643C200.859 70.5397 200.843 70.5077 200.832 70.4682C200.82 70.4286 200.814 70.3804 200.814 70.3234ZM201.89 70.2307L202.015 69.6091H202.018L202.139 70.2307H201.89ZM201.911 69.192L201.549 70.886H201.761L201.836 70.5087H202.194L202.267 70.886H202.486L202.127 69.192H201.911Z" fill="#1C1F34"/>
<g opacity="0.5">
<path fill-rule="evenodd" clip-rule="evenodd" d="M212.874 32.8512C212.974 30.5046 211.178 28.5225 208.856 28.4238L197.104 27.9246C194.784 27.826 192.822 29.651 192.722 31.9881L191.998 48.848C191.897 51.1907 193.693 53.1816 196.015 53.295L207.765 53.8686C210.084 53.9819 212.045 52.1696 212.146 49.8247L212.874 32.8512Z" fill="url(#paint13_linear_1129_38221)"/>
<path fill-rule="evenodd" clip-rule="evenodd" d="M212.874 32.8512C212.974 30.5046 211.178 28.5225 208.856 28.4238L197.104 27.9246C194.784 27.826 192.822 29.651 192.722 31.9881L191.998 48.848C191.897 51.1907 193.693 53.1816 196.015 53.295L207.765 53.8686C210.084 53.9819 212.045 52.1696 212.146 49.8247L212.874 32.8512Z" fill="url(#paint14_linear_1129_38221)" fill-opacity="0.3"/>
</g>
<path fill-rule="evenodd" clip-rule="evenodd" d="M212.203 32.8416C212.287 30.8881 210.787 29.2377 208.848 29.1551L197.102 28.6548C195.165 28.5723 193.527 30.0947 193.444 32.0377L192.722 48.9122C192.638 50.8631 194.137 52.5213 196.076 52.6164L207.82 53.1922C209.756 53.2871 211.393 51.7855 211.477 49.8269L212.203 32.8416Z" fill="white"/>
<path fill-rule="evenodd" clip-rule="evenodd" d="M212.203 32.8416C212.287 30.8881 210.787 29.2377 208.848 29.1551L197.102 28.6548C195.165 28.5723 193.527 30.0947 193.444 32.0377L192.722 48.9122C192.638 50.8631 194.137 52.5213 196.076 52.6164L207.82 53.1922C209.756 53.2871 211.393 51.7855 211.477 49.8269L212.203 32.8416Z" fill="url(#paint15_linear_1129_38221)" fill-opacity="0.05"/>
<path fill-rule="evenodd" clip-rule="evenodd" d="M210.179 32.82C210.212 32.0414 209.612 31.3833 208.841 31.35L197.055 30.8426C196.283 30.8094 195.63 31.4164 195.597 32.201L194.882 49.0885C194.849 49.872 195.448 50.5383 196.22 50.5768L208.002 51.1645C208.774 51.203 209.427 50.5971 209.46 49.8244L210.179 32.82Z" fill="white"/>
<path opacity="0.1" fill-rule="evenodd" clip-rule="evenodd" d="M211.814 85.2916L200.91 85.5529C200.91 85.5529 200.04 73.4593 201.4 54.8129C202.761 36.1665 205.661 20.9665 205.661 20.9665L214.563 21.5694L211.814 85.2916Z" fill="#242D5F"/>
</g>
<path fill-rule="evenodd" clip-rule="evenodd" d="M206.918 85.6715C206.918 85.6715 206.67 77.1969 206.67 59.4339C206.67 41.6709 209.736 25.695 209.736 25.695C210.226 22.7169 213.068 20.3027 216.088 20.3027C216.088 20.3027 335.686 20.3027 354.765 20.3027C360.251 20.3027 366.596 21.9077 369.98 24.64C379.333 32.1935 391.014 42.6285 395.974 45.7157C402.996 50.0864 412.072 52.1755 416.342 62.8706C418.865 69.1899 417.477 84.3307 412.23 88.0883C410.853 89.0748 408.204 92.5028 386.07 92.6666C386.041 93.0609 385.706 93.3852 385.298 93.3852H212.848C212.425 93.3852 212.074 93.0383 212.074 92.6104V90.9556C209.572 90.3383 207.374 88.1932 206.918 85.6715Z" fill="#1C1F34"/>
<rect width="155.835" height="3.12505" transform="matrix(-1 0 0 1 395.009 93.3848)" fill="#1C1F34"/>
<path fill-rule="evenodd" clip-rule="evenodd" d="M208.508 85.6708C208.508 85.6708 208.26 77.1963 208.26 59.4333C208.26 41.6703 211.546 25.7101 211.546 25.7101C211.914 23.5863 213.958 21.8647 216.121 21.8647C216.121 21.8647 332.252 21.121 353.76 21.8647C359.109 22.0496 364.056 22.3786 368.439 25.7101C379.216 33.9 391.153 46.1822 396.031 48.1435C402.524 50.7539 412.506 56.1533 414.526 63.6683C417.539 74.8804 411.815 89.3307 411.609 89.4783C409.036 91.3217 367.937 91.783 316.467 91.8221C294.444 91.8388 274.174 92.0741 255.827 91.8221H212.876C212.453 91.8221 212.102 91.4752 212.102 91.0472V90.3581C210.296 89.3995 208.866 87.6512 208.508 85.6708Z" fill="white"/>
<path opacity="0.1" fill-rule="evenodd" clip-rule="evenodd" d="M414.723 62.0827C414.723 62.0827 403.336 55.7331 397.261 53.3447C392.734 51.565 382.918 49.5783 382.918 49.5783L382.663 50.3169C382.663 50.3169 392.508 52.3149 397.05 54.1003C403.11 56.4831 414.469 62.8214 414.469 62.8214L414.723 62.0827Z" fill="#242D5F"/>
<path fill-rule="evenodd" clip-rule="evenodd" d="M380.149 57.8108L380.187 58.4145C380.272 59.7752 379.408 61.6815 378.263 62.667L369.59 70.1344C368.673 70.9242 366.851 71.5645 365.505 71.5645H356.157C354.818 71.5645 353.742 70.6827 353.753 69.5908L353.87 56.5463C353.882 55.4563 354.974 54.5551 356.306 54.5336L378.238 56.3655C379.242 56.3493 380.098 56.9966 380.149 57.8108Z" fill="white"/>
<path fill-rule="evenodd" clip-rule="evenodd" d="M380.149 57.8108L380.187 58.4145C380.272 59.7752 379.408 61.6815 378.263 62.667L369.59 70.1344C368.673 70.9242 366.851 71.5645 365.505 71.5645H356.157C354.818 71.5645 353.742 70.6827 353.753 69.5908L353.87 56.5463C353.882 55.4563 354.974 54.5551 356.306 54.5336L378.238 56.3655C379.242 56.3493 380.098 56.9966 380.149 57.8108Z" fill="url(#paint16_linear_1129_38221)" fill-opacity="0.05"/>
<path opacity="0.1" fill-rule="evenodd" clip-rule="evenodd" d="M385.293 68.3536C385.293 68.3536 354.426 62.1035 338.993 62.1035C295.326 62.1035 207.991 62.1035 207.991 62.1035V62.8848C207.991 62.8848 294.783 62.8848 338.586 62.8848C353.884 62.8848 384.48 68.3536 384.48 68.3536H385.293Z" fill="#242D5F"/>
<path opacity="0.2" fill-rule="evenodd" clip-rule="evenodd" d="M375.926 78.541H251.099V81.6661H375.926V78.541Z" fill="black"/>
<rect width="141.524" height="10.1564" transform="matrix(-1 0 0 1 389.436 75.415)" fill="#1C1F34"/>
<path fill-rule="evenodd" clip-rule="evenodd" d="M389.29 66.8411C394.113 61.0837 395.026 46.8058 395.026 46.8058L394.282 44.9661C394.282 44.9661 393.834 59.5944 389.104 65.0208C384.375 70.4473 383.469 86.3846 383.469 86.3846L385.06 91.4762C385.06 91.4762 384.468 72.5985 389.29 66.8411Z" fill="#1F2857"/>
<path fill-rule="evenodd" clip-rule="evenodd" d="M358.306 58.5885C358.306 59.3002 357.735 59.8771 357.034 59.8771H351.98C351.278 59.8771 350.708 59.3051 350.708 58.5885C350.708 57.8768 351.279 57.2998 351.98 57.2998H357.034C357.736 57.2998 358.306 57.8718 358.306 58.5885Z" fill="#1C1F34"/>
<path fill-rule="evenodd" clip-rule="evenodd" d="M398.923 60.5879C398.923 59.9407 398.387 59.416 397.73 59.416H396.14C395.481 59.416 394.947 59.9362 394.947 60.5879C394.947 61.2352 395.484 61.7598 396.14 61.7598H397.73C398.389 61.7598 398.923 61.2397 398.923 60.5879Z" fill="#1C1F34"/>
<path fill-rule="evenodd" clip-rule="evenodd" d="M398.129 60.5869C398.129 60.3712 397.957 60.1963 397.735 60.1963H396.138C395.92 60.1963 395.744 60.3775 395.744 60.5869C395.744 60.8026 395.915 60.9775 396.138 60.9775H397.735C397.953 60.9775 398.129 60.7963 398.129 60.5869Z" fill="#F5A623"/>
<mask id="mask5_1129_38221" style="mask-type:alpha" maskUnits="userSpaceOnUse" x="395" y="60" width="4" height="1">
<path fill-rule="evenodd" clip-rule="evenodd" d="M398.129 60.5869C398.129 60.3712 397.957 60.1963 397.735 60.1963H396.138C395.92 60.1963 395.744 60.3775 395.744 60.5869C395.744 60.8026 395.915 60.9775 396.138 60.9775H397.735C397.953 60.9775 398.129 60.7963 398.129 60.5869Z" fill="white"/>
</mask>
<g mask="url(#mask5_1129_38221)">
<path fill-rule="evenodd" clip-rule="evenodd" d="M398.925 60.1963H397.333V60.9782H398.925V60.1963Z" fill="white"/>
</g>
<g opacity="0.5">
<path fill-rule="evenodd" clip-rule="evenodd" d="M344.462 25.9238H227.282C223.444 25.9238 220.045 27.9678 219.69 31.648L218.133 49.6643C217.778 53.3467 220.599 55.3885 224.437 55.3885H344.463L344.462 25.9238Z" fill="url(#paint17_linear_1129_38221)"/>
<path fill-rule="evenodd" clip-rule="evenodd" d="M344.462 25.9238H227.282C223.444 25.9238 220.045 27.9678 219.69 31.648L218.133 49.6643C217.778 53.3467 220.599 55.3885 224.437 55.3885H344.463L344.462 25.9238Z" fill="url(#paint18_linear_1129_38221)" fill-opacity="0.3"/>
</g>
<path fill-rule="evenodd" clip-rule="evenodd" d="M344.46 26.5938H227.258C223.803 26.5938 220.734 28.3344 220.403 31.6495L218.792 49.6634C218.46 52.9767 220.988 54.7192 224.449 54.7192H344.458L344.46 26.5938Z" fill="white"/>
<path fill-rule="evenodd" clip-rule="evenodd" d="M344.46 26.5938H227.258C223.803 26.5938 220.734 28.3344 220.403 31.6495L218.792 49.6634C218.46 52.9767 220.988 54.7192 224.449 54.7192H344.458L344.46 26.5938Z" fill="url(#paint19_linear_1129_38221)" fill-opacity="0.05"/>
<path fill-rule="evenodd" clip-rule="evenodd" d="M344.456 28.6025H227.175C224.872 28.6025 222.803 29.4515 222.555 31.6536L220.745 49.659C220.497 51.8651 222.157 52.71 224.47 52.71H344.453L344.456 28.6025Z" fill="white"/>
<path fill-rule="evenodd" clip-rule="evenodd" d="M211.022 57.988C211.169 53.7812 211.846 45.4444 211.846 45.4444C211.971 43.8504 211.01 42.5211 209.691 42.475L209.331 42.4624C208.016 42.4165 206.847 43.6737 206.722 45.2753C206.722 45.2753 206.05 53.5205 205.905 57.6864C205.706 63.3598 206.149 74.321 206.149 74.321C206.207 75.9144 207.315 77.2431 208.634 77.2892L208.994 77.3018C210.309 77.3477 211.326 76.0904 211.269 74.4814C211.269 74.4814 210.825 63.6204 211.022 57.988Z" fill="#1C1F34"/>
<path fill-rule="evenodd" clip-rule="evenodd" d="M209.663 58.1716C209.794 54.4323 210.585 45.47 210.585 45.47C210.631 44.9405 210.313 44.4989 209.877 44.4836L208.823 44.4468C208.386 44.4316 207.994 44.8496 207.947 45.3894C207.947 45.3894 207.159 54.2675 207.03 57.9705C206.854 63.0135 207.191 74.4064 207.191 74.4064C207.206 74.9384 207.574 75.382 208.009 75.3972L209.064 75.4341C209.501 75.4493 209.843 75.032 209.828 74.4937C209.828 74.4937 209.488 63.1783 209.663 58.1716Z" fill="#C10000"/>
<mask id="mask6_1129_38221" style="mask-type:alpha" maskUnits="userSpaceOnUse" x="206" y="44" width="5" height="32">
<path fill-rule="evenodd" clip-rule="evenodd" d="M209.663 58.1716C209.794 54.4323 210.585 45.47 210.585 45.47C210.631 44.9405 210.313 44.4989 209.877 44.4836L208.823 44.4468C208.386 44.4316 207.994 44.8496 207.947 45.3894C207.947 45.3894 207.159 54.2675 207.03 57.9705C206.854 63.0135 207.191 74.4064 207.191 74.4064C207.206 74.9384 207.574 75.382 208.009 75.3972L209.064 75.4341C209.501 75.4493 209.843 75.032 209.828 74.4937C209.828 74.4937 209.488 63.1783 209.663 58.1716Z" fill="white"/>
</mask>
<g mask="url(#mask6_1129_38221)">
<path opacity="0.4" fill-rule="evenodd" clip-rule="evenodd" d="M207.9 62.8129L206.892 62.8305L207.163 74.4375L208.35 74.4168L207.9 62.8129Z" fill="white"/>
</g>
<path fill-rule="evenodd" clip-rule="evenodd" d="M417.351 65.2598H410.056C409.255 65.2598 408.757 65.9341 408.946 66.7764L410.193 72.337C410.381 73.1747 411.189 73.8537 411.989 73.8537H417.432C418.236 73.8537 418.94 73.1504 419.004 72.2974L418.685 66.8161C418.75 65.9565 418.151 65.2598 417.351 65.2598Z" fill="#1C1F34"/>
<path fill-rule="evenodd" clip-rule="evenodd" d="M417.317 66.8223H410.149L411.542 72.2911H417.581L417.317 66.8223Z" fill="url(#paint20_linear_1129_38221)"/>
<mask id="mask7_1129_38221" style="mask-type:alpha" maskUnits="userSpaceOnUse" x="410" y="66" width="8" height="7">
<path fill-rule="evenodd" clip-rule="evenodd" d="M417.317 66.8223H410.149L411.542 72.2911H417.581L417.317 66.8223Z" fill="white"/>
</mask>
<g mask="url(#mask7_1129_38221)">
<ellipse rx="0.963917" ry="1.84154" transform="matrix(-0.99863 0.052336 0.052336 0.99863 416.582 69.5682)" fill="white"/>
<path opacity="0.2" fill-rule="evenodd" clip-rule="evenodd" d="M411.911 65.2598H409.164V73.2397H413.367L411.911 65.2598Z" fill="#FF0000"/>
</g>
<path fill-rule="evenodd" clip-rule="evenodd" d="M327.73 58.5885C327.73 59.3002 328.302 59.8771 329.002 59.8771H334.056C334.759 59.8771 335.328 59.3051 335.328 58.5885C335.328 57.8768 334.757 57.2998 334.056 57.2998H329.002C328.3 57.2998 327.73 57.8718 327.73 58.5885Z" fill="#1C1F34"/>
<path fill-rule="evenodd" clip-rule="evenodd" d="M247.343 53.5674V55.9526L295 55.9526V53.5674L247.343 53.5674Z" fill="#1C1F34"/>
<path fill-rule="evenodd" clip-rule="evenodd" d="M296.308 25.9238H294.717V94.5646H296.308V25.9238Z" fill="#1C1F34"/>
<path fill-rule="evenodd" clip-rule="evenodd" d="M345.331 20.7949H343.741V93.5805H345.331V20.7949Z" fill="#1C1F34"/>
<path fill-rule="evenodd" clip-rule="evenodd" d="M390.652 48.9296C390.652 48.9296 370.857 29.6049 366.1 27.6174C361.342 25.6299 358.269 25.8527 356.272 25.6797L353.187 25.7843C350.378 25.5409 348.389 27.4739 348.746 30.1141L349.14 44.8864C349.495 47.5211 352.053 49.9024 354.854 50.2056L387.829 53.3264C391.429 53.7159 392.726 51.7234 390.652 48.9296Z" fill="#1C1F34"/>
<path fill-rule="evenodd" clip-rule="evenodd" d="M389.058 50.0547C389.058 50.0547 373.976 35.1072 368.272 30.7357C362.567 26.3643 358.361 27.2828 356.787 27.1514L352.758 27.2012C351.18 27.0693 350.064 28.1648 350.266 29.6444L350.836 45.3569C351.038 46.8381 352.483 48.1751 354.056 48.342L388.143 51.501C389.323 51.6263 389.734 50.9814 389.058 50.0547Z" fill="url(#paint21_linear_1129_38221)"/>
<path fill-rule="evenodd" clip-rule="evenodd" d="M351.574 32.9899C351.528 32.2631 350.86 31.6738 350.082 31.6738H350.501C349.723 31.6738 349.093 32.2667 349.093 32.9899V37.9135C349.093 38.6403 349.717 39.2296 350.497 39.2296H350.565C351.341 39.2296 351.932 38.6367 351.886 37.9135L351.574 32.9899Z" fill="#1C1F34"/>
<path fill-rule="evenodd" clip-rule="evenodd" d="M351.274 41.29H350.552C349.746 41.29 349.271 42.0805 349.494 43.0687L352.006 48.6575H354.92L353.247 43.0174C352.964 42.0634 352.083 41.29 351.274 41.29Z" fill="#1C1F34"/>
<path fill-rule="evenodd" clip-rule="evenodd" d="M373.711 50.9994C373.418 51.5534 372.756 50.9831 372.229 50.6762C371.697 50.367 371.509 50.4383 371.799 49.8877L375.338 43.191C375.63 42.637 376.292 42.4429 376.82 42.7499C377.352 43.059 377.54 43.7521 377.249 44.3027L375.326 47.9434L377.723 49.9895L376.661 51.8426L373.909 50.6246L373.711 50.9994Z" fill="#1C1F34"/>
<path fill-rule="evenodd" clip-rule="evenodd" d="M390.687 50.1801L383.859 43.6475L374.801 50.1801L389.958 52.7332L390.687 50.1801Z" fill="#1C1F34"/>
<path opacity="0.1" fill-rule="evenodd" clip-rule="evenodd" d="M390.154 51.7711C390.429 48.9832 388.679 44.1998 388.679 44.1998C388.365 43.2491 387.241 42.2332 386.17 41.9309L384.995 41.5993C383.924 41.297 382.977 41.8485 382.878 42.8435L381.457 57.2595C381.359 58.249 382.19 59.1218 383.304 59.2082L385.333 59.3658C386.451 59.4525 387.689 58.7665 388.083 57.8416C388.083 57.8416 389.962 53.7214 390.154 51.7711Z" fill="#242D5F"/>
<path fill-rule="evenodd" clip-rule="evenodd" d="M390.153 50.098C390.374 47.7159 389.308 43.8624 389.308 43.8624C389.082 42.9388 388.131 41.9264 387.188 41.6021L387.228 41.6157C386.283 41.291 385.447 41.7903 385.359 42.7322L384.249 54.7021C384.161 55.6435 384.897 56.4732 385.904 56.5563L386.358 56.5937C387.359 56.6763 388.435 56.0074 388.747 55.1101C388.747 55.1101 389.999 51.7644 390.153 50.098Z" fill="#1C1F34"/>
<g opacity="0.1">
<path fill-rule="evenodd" clip-rule="evenodd" d="M374.643 38.7189L366.206 29.2389C365.95 28.9507 365.494 28.913 365.184 29.1585C364.875 29.4024 364.839 29.8396 365.09 30.1219L373.527 39.6019C373.783 39.8901 374.239 39.9278 374.549 39.6823C374.857 39.4384 374.894 39.0012 374.643 38.7189Z" fill="white"/>
<path fill-rule="evenodd" clip-rule="evenodd" d="M368.276 36.0266C368.43 35.9047 368.447 35.6844 368.32 35.5426L365.043 31.8597C364.913 31.7142 364.679 31.6988 364.529 31.8171C364.375 31.939 364.358 32.1593 364.485 32.3012L367.762 35.9841C367.892 36.1295 368.126 36.145 368.276 36.0266Z" fill="white"/>
</g>
<path fill-rule="evenodd" clip-rule="evenodd" d="M418.396 78.696C418.884 76.884 417.904 75.415 416.204 75.415H392.065C390.367 75.415 388.99 76.9495 388.99 78.8381V95.1064C388.99 96.9969 390.341 98.2364 391.999 97.8768L411.667 93.1896C413.329 92.8291 415.072 91.0622 415.558 89.2559L418.396 78.696Z" fill="#1C1F34"/>
<ellipse opacity="0.1" rx="21.9819" ry="13.0889" transform="matrix(-1 0 0 1 384.664 81.4727)" fill="#242D5F"/>
<ellipse rx="19.7113" ry="12.7125" transform="matrix(-1 0 0 1 384.628 83.44)" fill="#1C1F34"/>
<path fill-rule="evenodd" clip-rule="evenodd" d="M228.558 85.5734C230.313 85.5734 231.741 84.172 231.741 82.4432V78.5471C231.741 76.8185 231.905 75.417 230.146 75.417H208.737C206.978 75.417 205.642 76.8122 205.753 78.5333L206.15 83.6155C206.283 85.3399 209.047 92.1093 209.81 93.2353C210.573 94.3612 213.39 94.3023 213.39 94.3023C215.127 94.5324 216.368 92.5098 216.149 90.7936L215.482 85.5734H228.558Z" fill="#1C1F34"/>
<ellipse opacity="0.1" cx="241.182" cy="80.5368" rx="22.2621" ry="12.151" fill="#242D5F"/>
<ellipse cx="241.069" cy="82.9048" rx="19.8354" ry="12.1753" fill="#1C1F34"/>
<ellipse rx="16.6966" ry="16.4065" transform="matrix(-1 0 0 1 383.956 89.1408)" fill="#1C1F34"/>
<ellipse rx="10.336" ry="10.1564" transform="matrix(-1 0 0 1 383.958 89.1407)" fill="url(#paint22_linear_1129_38221)"/>
<ellipse rx="5.56551" ry="5.4688" transform="matrix(-1 0 0 1 383.958 89.1407)" fill="#1C1F34"/>
<ellipse rx="0.795725" ry="0.781881" transform="matrix(-1 0 0 1 383.953 96.9538)" fill="#1C1F34"/>
<ellipse rx="0.795725" ry="0.781881" transform="matrix(-0.939693 0.34202 0.34202 0.939693 381.234 81.7999)" fill="#1C1F34"/>
<ellipse rx="0.795725" ry="0.781881" transform="matrix(-0.766044 0.642788 0.642788 0.766044 389.067 95.1261)" fill="#1C1F34"/>
<ellipse rx="0.795725" ry="0.781881" transform="matrix(-0.5 0.866025 0.866025 0.5 377.071 85.2353)" fill="#1C1F34"/>
<ellipse rx="0.795725" ry="0.781881" transform="matrix(-0.173648 0.984808 0.984808 0.173648 391.788 90.4985)" fill="#1C1F34"/>
<ellipse rx="0.795725" ry="0.781881" transform="matrix(0.173648 0.984808 0.984808 -0.173648 376.127 90.4975)" fill="#1C1F34"/>
<ellipse rx="0.795725" ry="0.781881" transform="matrix(0.5 0.866025 0.866025 -0.5 390.844 85.2347)" fill="#1C1F34"/>
<ellipse rx="0.795725" ry="0.781881" transform="matrix(0.766044 0.642788 0.642788 -0.766044 378.846 95.1254)" fill="#1C1F34"/>
<ellipse rx="0.795725" ry="0.781881" transform="matrix(0.939693 0.34202 0.34202 -0.939693 386.673 81.7991)" fill="#1C1F34"/>
<ellipse rx="16.6966" ry="16.4065" transform="matrix(-1 0 0 1 241.178 89.1399)" fill="#1C1F34"/>
<ellipse rx="10.336" ry="10.1564" transform="matrix(-1 0 0 1 241.181 89.1407)" fill="url(#paint23_linear_1129_38221)"/>
<ellipse rx="5.56551" ry="5.4688" transform="matrix(-1 0 0 1 241.181 89.1397)" fill="#1C1F34"/>
<ellipse rx="0.795725" ry="0.781881" transform="matrix(-1 0 0 1 241.167 96.9528)" fill="#1C1F34"/>
<ellipse rx="0.795725" ry="0.781881" transform="matrix(-0.939693 0.34202 0.34202 0.939693 238.447 81.7989)" fill="#1C1F34"/>
<ellipse rx="0.795725" ry="0.781881" transform="matrix(-0.766044 0.642788 0.642788 0.766044 246.281 95.1251)" fill="#1C1F34"/>
<ellipse rx="0.795725" ry="0.781881" transform="matrix(-0.5 0.866025 0.866025 0.5 234.285 85.2344)" fill="#1C1F34"/>
<ellipse rx="0.795725" ry="0.781881" transform="matrix(-0.173648 0.984808 0.984808 0.173648 249.002 90.4975)" fill="#1C1F34"/>
<ellipse rx="0.795725" ry="0.781881" transform="matrix(0.173648 0.984808 0.984808 -0.173648 233.341 90.4965)" fill="#1C1F34"/>
<ellipse rx="0.795725" ry="0.781881" transform="matrix(0.5 0.866025 0.866025 -0.5 248.057 85.2337)" fill="#1C1F34"/>
<ellipse rx="0.795725" ry="0.781881" transform="matrix(0.766044 0.642788 0.642788 -0.766044 236.059 95.1244)" fill="#1C1F34"/>
<ellipse rx="0.795725" ry="0.781881" transform="matrix(0.939693 0.34202 0.34202 -0.939693 243.887 81.7982)" fill="#1C1F34"/>
<path fill-rule="evenodd" clip-rule="evenodd" d="M47.3557 78.1151C47.2871 77.3304 46.5897 76.7505 45.8006 76.8195L23.7154 78.7517C22.9252 78.8209 22.3403 79.5141 22.4089 80.2977L22.7204 83.858C22.789 84.6427 23.4864 85.2226 24.2755 85.1536L46.3607 83.2214C47.1509 83.1523 47.7358 82.459 47.6672 81.6754L47.3557 78.1151Z" fill="#1C1F34"/>
<path fill-rule="evenodd" clip-rule="evenodd" d="M47.9371 78.8994L23.7142 80.9561L23.8961 83.1463C23.9308 83.5428 24.2743 83.8367 24.6786 83.8013L48.186 81.7447C48.5835 81.7099 48.8781 81.3664 48.8429 80.9637L48.7196 79.5544C48.6849 79.1579 48.3414 78.864 47.9371 78.8994Z" fill="url(#paint24_linear_1129_38221)"/>
<path fill-rule="evenodd" clip-rule="evenodd" d="M43.3331 84.0584C43.3331 84.0584 42.1411 73.6574 42.2886 68.469C42.3983 64.6141 43.9922 58.9307 43.9922 58.9307C44.4745 57.0229 47.8913 55.4763 49.8778 55.4763H138.567C138.567 55.4763 138.567 51.7447 138.567 51.0307C138.567 38.4078 140.067 33.9818 140.067 33.9818C140.424 32.445 141.994 31.1139 143.564 31.017C143.564 31.017 167.955 29.2638 177.746 31.1991C187.537 33.1345 205.891 51.1533 205.891 51.1533C206.175 51.4279 206.726 51.6854 207.122 51.7295C207.122 51.7295 242.243 55.4763 244.337 59.9202C246.431 64.3641 247.054 85.6017 242.243 89.0359C237.433 92.4701 48.8532 89.1248 48.8532 89.1248C46.0901 89.0757 43.6126 86.8138 43.3331 84.0584Z" fill="#1C1F34"/>
<path fill-rule="evenodd" clip-rule="evenodd" d="M44.5478 84.0931C44.5478 84.0931 42.8549 73.6575 43.0025 68.4691C43.1121 64.6142 45.0329 60.2442 45.0329 60.2442C45.7299 58.3997 47.8897 56.9045 49.8762 56.9045H139.996C139.996 56.9045 139.996 51.7448 139.996 51.0308C139.996 38.4079 140.929 35.4335 140.929 35.4335C141.204 33.8837 142.711 32.5397 144.283 32.4404C144.283 32.4404 167.953 30.6919 177.744 32.6273C187.535 34.5626 205.183 52.5718 205.183 52.5718C205.462 52.8517 206.013 53.1082 206.406 53.1449C206.406 53.1449 240.811 56.1904 242.904 60.6343C244.998 65.0782 245.621 85.6019 240.811 89.0361C236 92.4703 50.2892 89.1264 50.2892 89.1264C47.5224 89.0765 44.943 86.8224 44.5478 84.0931Z" fill="white"/>
<path fill-rule="evenodd" clip-rule="evenodd" d="M188.614 61.5942L188.648 62.2706C188.726 63.7952 188.196 64.4077 186.177 67.0351C184.158 69.6624 183.269 75.4016 183.269 75.4016C182.432 76.2865 176.475 77.0039 175.247 77.0039L166.714 77.0039C165.492 77.0039 164.51 76.016 164.52 74.7926L164.627 62.0152C164.638 60.7939 165.635 59.7843 166.85 59.7601L186.869 59.9749C187.786 59.9567 188.567 60.6819 188.614 61.5942Z" fill="white"/>
<path fill-rule="evenodd" clip-rule="evenodd" d="M188.614 61.5942L188.648 62.2706C188.726 63.7952 188.196 64.4077 186.177 67.0351C184.158 69.6624 183.269 75.4016 183.269 75.4016C182.432 76.2865 176.475 77.0039 175.247 77.0039L166.714 77.0039C165.492 77.0039 164.51 76.016 164.52 74.7926L164.627 62.0152C164.638 60.7939 165.635 59.7843 166.85 59.7601L186.869 59.9749C187.786 59.9567 188.567 60.6819 188.614 61.5942Z" fill="url(#paint25_linear_1129_38221)" fill-opacity="0.05"/>
<path opacity="0.1" fill-rule="evenodd" clip-rule="evenodd" d="M244.516 62.4093C244.516 62.4093 229.753 58.3493 220.736 56.933C211.719 55.5168 201.296 55.6211 201.296 55.6211L201.196 56.3281C201.196 56.3281 208.056 55.664 220.647 57.6416C233.239 59.6192 244.417 63.1164 244.417 63.1164L244.516 62.4093Z" fill="#242D5F"/>
<path opacity="0.1" fill-rule="evenodd" clip-rule="evenodd" d="M177.313 64.7578H114.128L99.9291 65.4718H191.512L177.313 64.7578Z" fill="#242D5F"/>
<path opacity="0.1" fill-rule="evenodd" clip-rule="evenodd" d="M185.075 77.6123H109.233L115.253 79.7545H177.92L185.075 77.6123Z" fill="#242D5F"/>
<path fill-rule="evenodd" clip-rule="evenodd" d="M193.496 56.024C195.87 56.0561 197.047 54.3162 196.122 52.1313L195.947 51.718C195.177 49.9006 193.421 47.304 191.998 45.922C191.998 45.922 181.676 35.4325 177.719 34.7442C173.763 34.0559 162.337 34.0713 162.337 34.0713C160.763 34.0628 159.499 35.3372 159.512 36.9126L159.651 52.7114C159.665 54.289 160.955 55.5852 162.541 55.6066L193.496 56.024Z" fill="#1C1F34"/>
<path fill-rule="evenodd" clip-rule="evenodd" d="M192.081 54.591C194.449 54.6256 195.245 53.0886 193.868 51.1701L194.494 52.0425C193.344 50.44 191.274 48.0141 189.855 46.6391C189.855 46.6391 180.25 36.8602 176.293 36.1719C172.336 35.4836 162.53 35.6467 162.53 35.6467C161.747 35.6548 161.112 36.2974 161.112 37.0959L161.112 51.2827C161.112 52.8605 162.387 54.1581 163.967 54.1812L192.081 54.591Z" fill="url(#paint26_linear_1129_38221)"/>
<path fill-rule="evenodd" clip-rule="evenodd" d="M153.594 36.9154C153.594 35.336 152.311 34.0557 150.729 34.0557H147.634C146.052 34.0557 144.618 35.3213 144.436 36.8881C144.436 36.8881 143.577 43.877 143.577 45.8502V53.3387C143.577 54.9138 144.856 56.1907 146.434 56.1907H150.737C152.315 56.1907 153.594 54.905 153.594 53.331V36.9154Z" fill="#1C1F34"/>
<path opacity="0.1" fill-rule="evenodd" clip-rule="evenodd" d="M152.16 36.9177C152.16 36.1261 151.522 35.4844 150.732 35.4844H147.626C146.837 35.4844 146.108 36.1246 146.001 36.9042C146.001 36.9042 145.005 43.8776 145.005 45.8508V53.3309C145.005 54.122 145.64 54.7633 146.436 54.7633H150.729C151.52 54.7633 152.16 54.1218 152.16 53.33V36.9177Z" fill="#242D5F"/>
<g opacity="0.1">
<path fill-rule="evenodd" clip-rule="evenodd" d="M151.003 43.2472C151.131 43.1458 151.149 42.9663 151.039 42.8431L147.774 39.1818C147.665 39.06 147.474 39.0427 147.345 39.1448C147.216 39.2462 147.199 39.4258 147.309 39.549L150.574 43.2103C150.682 43.3321 150.874 43.3493 151.003 43.2472Z" fill="white"/>
<path fill-rule="evenodd" clip-rule="evenodd" d="M148.093 42.239C148.158 42.1883 148.167 42.0998 148.114 42.0394L146.841 40.6126C146.788 40.5531 146.691 40.5475 146.629 40.5967C146.565 40.6475 146.555 40.736 146.609 40.7963L147.881 42.2231C147.934 42.2827 148.031 42.2883 148.093 42.239Z" fill="white"/>
</g>
<g opacity="0.1">
<path fill-rule="evenodd" clip-rule="evenodd" d="M183.395 45.9757L176.766 38.5848C176.565 38.3601 176.207 38.3307 175.963 38.5221C175.721 38.7123 175.692 39.0532 175.889 39.2732L182.518 46.6642C182.72 46.8889 183.078 46.9183 183.322 46.7269C183.564 46.5367 183.592 46.1958 183.395 45.9757Z" fill="white"/>
<path fill-rule="evenodd" clip-rule="evenodd" d="M178.388 43.8775C178.509 43.7825 178.522 43.6107 178.423 43.5001L175.848 40.6288C175.746 40.5154 175.562 40.5034 175.445 40.5956C175.324 40.6907 175.31 40.8624 175.41 40.9731L177.985 43.8444C178.086 43.9577 178.271 43.9698 178.388 43.8775Z" fill="white"/>
</g>
<path fill-rule="evenodd" clip-rule="evenodd" d="M162.545 59.7607C161.949 59.7607 161.467 60.2362 161.467 60.8318C161.467 61.4234 161.951 61.9029 162.545 61.9029H166.828C167.424 61.9029 167.906 61.4275 167.906 60.8318C167.906 60.2403 167.422 59.7607 166.828 59.7607H162.545Z" fill="#1C1F34"/>
<path fill-rule="evenodd" clip-rule="evenodd" d="M162.473 38.9941C162.428 38.2385 161.772 37.626 161.007 37.626H161.419C160.655 37.626 160.036 38.2423 160.036 38.9941V44.1122C160.036 44.8678 160.649 45.4803 161.416 45.4803H161.482C162.244 45.4803 162.825 44.864 162.78 44.1122L162.473 38.9941Z" fill="#1C1F34"/>
<path fill-rule="evenodd" clip-rule="evenodd" d="M164.024 48.9904C163.796 48.2347 162.973 47.6221 162.178 47.6221H161.469C160.677 47.6221 160.162 48.2557 160.314 49.0158L161.466 54.7624H165.759L164.024 48.9904Z" fill="#1C1F34"/>
<path fill-rule="evenodd" clip-rule="evenodd" d="M195.047 52.9912C195.047 52.3814 193.738 50.52 193.738 50.52L191.734 48.2461L182.34 55.4771H193.738C193.738 55.4771 195.047 54.0338 195.047 52.9912Z" fill="#1C1F34"/>
<path fill-rule="evenodd" clip-rule="evenodd" d="M184.307 54.8164L184.113 55.1666C183.825 55.6841 183.175 55.8654 182.657 55.5786C182.135 55.2899 181.95 54.6424 182.235 54.1281L185.71 47.8721C185.998 47.3546 186.648 47.1733 187.166 47.4601C187.688 47.7488 187.873 48.3963 187.588 48.9106L185.698 52.3117L188.053 54.2231L187.01 55.9543L184.307 54.8164Z" fill="#1C1F34"/>
<path opacity="0.1" fill-rule="evenodd" clip-rule="evenodd" d="M196.505 54.7212C196.721 52.4027 195.347 48.4247 195.347 48.4247C195.099 47.6341 194.216 46.7893 193.375 46.5379L192.451 46.2622C191.61 46.0107 190.866 46.4694 190.789 47.2969L189.672 59.2854C189.595 60.1083 190.248 60.8341 191.123 60.906L192.717 61.037C193.595 61.1092 194.568 60.5387 194.878 59.7696C194.878 59.7696 196.354 56.3431 196.505 54.7212Z" fill="#242D5F"/>
<path fill-rule="evenodd" clip-rule="evenodd" d="M196.505 53.3298C196.678 51.3488 195.84 48.1441 195.84 48.1441C195.663 47.3761 194.916 46.5341 194.175 46.2645L194.206 46.2758C193.464 46.0057 192.806 46.421 192.738 47.2043L191.865 57.1586C191.796 57.9415 192.374 58.6315 193.166 58.7006L193.522 58.7317C194.309 58.8005 195.155 58.2442 195.4 57.4979C195.4 57.4979 196.383 54.7156 196.505 53.3298Z" fill="#1C1F34"/>
<path fill-rule="evenodd" clip-rule="evenodd" d="M46.8434 68.2392C46.9313 65.7219 47.4526 60.7372 47.4526 60.7372C47.548 59.7841 46.6703 58.9781 45.4826 58.9366L45.1588 58.9253C43.9754 58.8839 42.9373 59.6244 42.8421 60.5821C42.8421 60.5821 42.3239 65.512 42.2368 68.0048C42.1183 71.3997 42.6319 77.9676 42.6319 77.9676C42.7003 78.9223 43.7108 79.7295 44.8984 79.771L45.2223 79.7823C46.4056 79.8236 47.3073 79.0815 47.2392 78.1175C47.2392 78.1175 46.7257 71.6097 46.8434 68.2392Z" fill="#1C1F34"/>
<path fill-rule="evenodd" clip-rule="evenodd" d="M45.6222 68.3351C45.7003 66.0975 46.3179 60.7395 46.3179 60.7395C46.3537 60.4229 46.0626 60.1551 45.6707 60.1414L44.7216 60.1083C44.3284 60.0946 43.9802 60.3407 43.9438 60.6635C43.9438 60.6635 43.3289 65.9711 43.2515 68.1869C43.1461 71.2046 43.5693 78.0299 43.5693 78.0299C43.5882 78.3486 43.9236 78.6181 44.3155 78.6317L45.2646 78.6649C45.6578 78.6786 45.9609 78.4323 45.9418 78.1098C45.9418 78.1098 45.5176 71.331 45.6222 68.3351Z" fill="#C10000"/>
<mask id="mask8_1129_38221" style="mask-type:alpha" maskUnits="userSpaceOnUse" x="43" y="60" width="4" height="19">
<path fill-rule="evenodd" clip-rule="evenodd" d="M45.6222 68.3351C45.7003 66.0975 46.3179 60.7395 46.3179 60.7395C46.3537 60.4229 46.0626 60.1551 45.6707 60.1414L44.7216 60.1083C44.3284 60.0946 43.9802 60.3407 43.9438 60.6635C43.9438 60.6635 43.3289 65.9711 43.2515 68.1869C43.1461 71.2046 43.5693 78.0299 43.5693 78.0299C43.5882 78.3486 43.9236 78.6181 44.3155 78.6317L45.2646 78.6649C45.6578 78.6786 45.9609 78.4323 45.9418 78.1098C45.9418 78.1098 45.5176 71.331 45.6222 68.3351Z" fill="white"/>
</mask>
<g mask="url(#mask8_1129_38221)">
<path opacity="0.4" fill-rule="evenodd" clip-rule="evenodd" d="M44.1767 71.0928L43.2694 71.1086L43.4523 78.0538L44.5207 78.0351L44.1767 71.0928Z" fill="white"/>
</g>
<path fill-rule="evenodd" clip-rule="evenodd" d="M211.547 59.4031C211.547 58.8116 211.064 58.332 210.474 58.332H209.043C208.45 58.332 207.969 58.8074 207.969 59.4031C207.969 59.9946 208.452 60.4742 209.043 60.4742H210.474C211.066 60.4742 211.547 59.9988 211.547 59.4031Z" fill="#1C1F34"/>
<path fill-rule="evenodd" clip-rule="evenodd" d="M210.827 59.4039C210.827 59.2067 210.673 59.0469 210.473 59.0469H209.035C208.839 59.0469 208.681 59.2125 208.681 59.4039C208.681 59.601 208.835 59.7609 209.035 59.7609H210.473C210.668 59.7609 210.827 59.5953 210.827 59.4039Z" fill="#F5A623"/>
<mask id="mask9_1129_38221" style="mask-type:alpha" maskUnits="userSpaceOnUse" x="208" y="59" width="3" height="1">
<path fill-rule="evenodd" clip-rule="evenodd" d="M210.827 59.4039C210.827 59.2067 210.673 59.0469 210.473 59.0469H209.035C208.839 59.0469 208.681 59.2125 208.681 59.4039C208.681 59.601 208.835 59.7609 209.035 59.7609H210.473C210.668 59.7609 210.827 59.5953 210.827 59.4039Z" fill="white"/>
</mask>
<g mask="url(#mask9_1129_38221)">
<path fill-rule="evenodd" clip-rule="evenodd" d="M211.539 59.0469H210.107V59.7615H211.539V59.0469Z" fill="white"/>
</g>
<rect width="120.202" height="9.28251" transform="matrix(-1 0 0 1 205.104 82.6104)" fill="#1C1F34"/>
<rect width="1.43092" height="58.5509" transform="matrix(-1 0 0 1 157.886 30.4844)" fill="#1C1F34"/>
<path fill-rule="evenodd" clip-rule="evenodd" d="M140.002 56.1904H137.14V91.1782H140.002V56.1904Z" fill="#1C1F34"/>
<path fill-rule="evenodd" clip-rule="evenodd" d="M198.638 68.1279C203.883 64.7154 201.996 49.4356 201.996 49.4356L200.202 49.5611C200.202 49.5611 203.144 62.725 197.06 67.7814C190.976 72.8379 190.812 90.9988 190.812 90.9988L192.239 90.899C192.239 90.899 191.822 74.0569 198.638 68.1279Z" fill="#1C1F34"/>
<path fill-rule="evenodd" clip-rule="evenodd" d="M207.306 53.097C207.306 53.097 200.203 45.9729 196.293 42.7679C193.144 40.1861 186.13 35.7364 186.13 35.7364L183.588 34.1924L182.776 34.3691C182.001 34.5377 181.892 35.0613 182.516 35.5288C182.516 35.5288 189.917 41.0227 192.943 43.7229C196.234 46.6608 201.387 52.5365 201.387 52.5365L207.306 53.097Z" fill="#1C1F34"/>
<ellipse opacity="0.1" rx="20.1075" ry="11.8698" transform="matrix(-1 0 0 1 214.343 80.1989)" fill="#242D5F"/>
<ellipse rx="18.6027" ry="11.6873" transform="matrix(-1 0 0 1 214.411 82.159)" fill="#1C1F34"/>
<path fill-rule="evenodd" clip-rule="evenodd" d="M246.647 79.6482C246.802 78.0819 245.652 76.8366 244.071 76.8667L230.567 77.1245C228.989 77.1546 228.193 78.3593 228.777 79.8286C228.777 79.8286 230.212 83.1878 230.49 84.8381C230.967 87.6709 230.712 92.5926 230.712 92.5926C230.683 93.3762 231.293 93.9367 232.086 93.8432L239.71 92.9445C242.852 92.5743 245.65 89.7296 245.961 86.5825L246.647 79.6482Z" fill="#1C1F34"/>
<path opacity="0.1" fill-rule="evenodd" clip-rule="evenodd" d="M226.903 65.2869C222.931 63.3311 218.18 63.3311 214.206 63.3311C210.474 63.3311 205.189 63.3578 202.105 64.8039C195.092 68.0922 192.084 75.2919 192.084 83.3357C192.371 75.7451 195.417 69.051 202.105 65.9148C205.189 64.4687 210.474 64.4419 214.206 64.4419C218.18 64.4419 219.246 63.915 225.011 65.2869C228.747 66.1762 239.871 71.6716 226.903 65.2869Z" fill="#242D5F"/>
<path fill-rule="evenodd" clip-rule="evenodd" d="M247.384 77.9051C248.568 77.9349 249.46 77.0009 249.378 75.8264L248.506 63.3864C248.423 62.2085 247.415 61.4507 246.261 61.6924L246.211 61.7028C245.054 61.9451 244.182 63.1005 244.265 64.2765L245.066 75.7156C245.149 76.8947 246.173 77.8746 247.359 77.9045L247.384 77.9051Z" fill="#1C1F34"/>
<path fill-rule="evenodd" clip-rule="evenodd" d="M247.264 76.431C247.855 76.482 248.301 76.0486 248.259 75.4526L247.443 63.8022C247.401 63.2108 246.91 62.8693 246.339 63.0418L246.289 63.0567C245.721 63.2282 245.294 63.8441 245.335 64.4285L246.095 75.2751C246.136 75.8612 246.65 76.3779 247.239 76.4288L247.264 76.431Z" fill="url(#paint27_linear_1129_38221)"/>
<path fill-rule="evenodd" clip-rule="evenodd" d="M245.173 64.0449H235.872C235.082 64.0449 234.575 64.6702 234.739 65.4349L236.289 72.6515C236.454 73.4191 237.227 74.0414 238.02 74.0414H245.171C245.963 74.0414 246.65 73.4009 246.706 72.6198L246.503 65.4666C246.559 64.6814 245.967 64.0449 245.173 64.0449Z" fill="#1C1F34"/>
<path fill-rule="evenodd" clip-rule="evenodd" d="M245.145 65.4736H235.932L237.558 72.614H245.318L245.145 65.4736Z" fill="url(#paint28_linear_1129_38221)"/>
<mask id="mask10_1129_38221" style="mask-type:alpha" maskUnits="userSpaceOnUse" x="235" y="65" width="11" height="8">
<path fill-rule="evenodd" clip-rule="evenodd" d="M245.145 65.4736H235.932L237.558 72.614H245.318L245.145 65.4736Z" fill="white"/>
</mask>
<g mask="url(#mask10_1129_38221)">
<ellipse rx="1.07322" ry="2.14209" transform="matrix(-0.999848 0.0174524 0.0174524 0.999848 244.478 69.057)" fill="white"/>
<path opacity="0.2" fill-rule="evenodd" clip-rule="evenodd" d="M233.826 64.7598H238.736L239.452 74.0423H233.826V64.7598Z" fill="#FF0000"/>
</g>
<path fill-rule="evenodd" clip-rule="evenodd" d="M196.116 91.237C196.434 92.7821 195.414 94.0346 193.837 94.0346H151.306C149.729 94.0346 148.816 92.8092 149.266 91.2956L149.336 91.0613C149.787 89.5486 151.436 88.3223 153.007 88.3223H192.66C194.237 88.3223 195.774 89.5759 196.092 91.1199L196.116 91.237Z" fill="#1C1F34"/>
<path fill-rule="evenodd" clip-rule="evenodd" d="M193.26 92.6062H151.887C150.406 92.6062 150.264 91.9934 150.687 91.2366L150.752 91.1195C151.176 90.3632 152.009 89.75 153.484 89.75H192.155C193.636 89.75 194.364 90.3768 194.662 91.1488L194.685 91.2074C194.984 91.9799 194.741 92.6062 193.26 92.6062Z" fill="url(#paint29_linear_1129_38221)"/>
<path fill-rule="evenodd" clip-rule="evenodd" d="M44.5626 85.4322C44.3223 83.8732 45.4068 82.6094 46.9936 82.6094H70.5963C72.1793 82.6094 73.4625 83.8903 73.4625 85.4702V89.0311C73.4625 90.6111 72.1818 91.8919 70.6074 91.8919H48.4135C46.8367 91.8919 45.364 90.6303 45.1233 89.069L44.5626 85.4322Z" fill="#1C1F34"/>
<path fill-rule="evenodd" clip-rule="evenodd" d="M41.6183 81.1681C41.4893 79.9923 42.3503 79.0391 43.538 79.0391H48.4154C49.6045 79.0391 50.5686 79.997 50.5686 81.1791V85.4674C50.5686 86.6493 49.6067 87.6074 48.424 87.6074H44.4689C43.2844 87.6074 42.2202 86.6577 42.0909 85.4784L41.6183 81.1681Z" fill="#1C1F34"/>
<path fill-rule="evenodd" clip-rule="evenodd" d="M42.9742 81.1797C42.9303 80.7865 43.2129 80.4678 43.611 80.4678H48.4235C48.8192 80.4678 49.1399 80.7913 49.1399 81.1797V85.4682C49.1399 85.8614 48.8224 86.1801 48.4299 86.1801H44.2436C43.8514 86.1801 43.4973 85.8566 43.4539 85.4682L42.9742 81.1797Z" fill="url(#paint30_linear_1129_38221)"/>
<ellipse opacity="0.1" cx="75.6108" cy="80.1989" rx="20.0337" ry="11.8698" fill="#242D5F"/>
<path opacity="0.1" fill-rule="evenodd" clip-rule="evenodd" d="M89.1655 63.8581C85.7252 62.1191 79.8558 61.9023 75.6141 61.9023C71.6311 61.9023 65.9896 61.9291 62.6981 63.3752C55.2136 66.6635 52.0029 73.8632 52.0029 81.907C52.3091 74.3164 55.5598 67.6223 62.6981 64.4861C65.9896 63.04 71.6311 63.0132 75.6141 63.0132C79.8558 63.0132 85.7252 63.2299 89.1655 64.969C95.9613 68.4042 98.9367 74.0447 99.2052 81.3233C99.2253 73.5046 96.3017 67.4655 89.1655 63.8581Z" fill="#242D5F"/>
<ellipse cx="75.6154" cy="82.159" rx="18.6027" ry="11.6873" fill="#1C1F34"/>
<ellipse rx="15.7407" ry="15.7088" transform="matrix(-1 0 0 1 213.698 89.7508)" fill="#1C1F34"/>
<ellipse rx="7.87037" ry="7.85437" transform="matrix(-1 0 0 1 213.699 89.7509)" fill="url(#paint31_linear_1129_38221)"/>
<ellipse rx="3.57742" ry="3.57018" transform="matrix(-1 0 0 1 213.696 89.7508)" fill="#1C1F34"/>
<ellipse rx="0.716056" ry="0.714605" transform="matrix(-1 0 0 1 213.703 84.0388)" fill="#1C1F34"/>
<ellipse rx="0.716056" ry="0.714605" transform="matrix(-1 0 0 1 213.703 95.4636)" fill="#1C1F34"/>
<ellipse rx="0.716056" ry="0.714605" transform="matrix(-0.5 0.866025 0.866025 0.5 208.747 86.8944)" fill="#1C1F34"/>
<ellipse rx="0.716056" ry="0.714605" transform="matrix(-0.5 0.866025 0.866025 0.5 218.657 92.6073)" fill="#1C1F34"/>
<ellipse rx="0.716056" ry="0.714605" transform="matrix(0.5 0.866025 0.866025 -0.5 208.748 92.6066)" fill="#1C1F34"/>
<ellipse rx="0.716056" ry="0.714605" transform="matrix(0.5 0.866025 0.866025 -0.5 218.664 86.8947)" fill="#1C1F34"/>
<ellipse rx="15.7407" ry="15.7088" transform="matrix(-1 0 0 1 75.6059 89.7498)" fill="#1C1F34"/>
<ellipse rx="7.87037" ry="7.85437" transform="matrix(-1 0 0 1 75.6072 89.7499)" fill="url(#paint32_linear_1129_38221)"/>
<ellipse rx="3.57742" ry="3.57018" transform="matrix(-1 0 0 1 75.6071 89.7489)" fill="#1C1F34"/>
<ellipse rx="0.716056" ry="0.714605" transform="matrix(-1 0 0 1 75.6072 84.0378)" fill="#1C1F34"/>
<ellipse rx="0.716056" ry="0.714605" transform="matrix(-1 0 0 1 75.6072 95.4617)" fill="#1C1F34"/>
<ellipse rx="0.716056" ry="0.714605" transform="matrix(-0.5 0.866025 0.866025 0.5 70.6476 86.8944)" fill="#1C1F34"/>
<ellipse rx="0.716056" ry="0.714605" transform="matrix(-0.5 0.866025 0.866025 0.5 80.5645 92.6063)" fill="#1C1F34"/>
<ellipse rx="0.716056" ry="0.714605" transform="matrix(0.5 0.866025 0.866025 -0.5 70.6527 92.6056)" fill="#1C1F34"/>
<ellipse rx="0.716056" ry="0.714605" transform="matrix(0.5 0.866025 0.866025 -0.5 80.5687 86.8937)" fill="#1C1F34"/>
<defs>
<linearGradient id="paint0_linear_1129_38221" x1="283.479" y1="58.7129" x2="283.338" y2="66.7804" gradientUnits="userSpaceOnUse">
<stop stop-color="#C4C4C5"/>
<stop offset="1" stop-color="#D8D8D9"/>
</linearGradient>
<linearGradient id="paint1_linear_1129_38221" x1="293.146" y1="12.3366" x2="291.603" y2="41.781" gradientUnits="userSpaceOnUse">
<stop stop-color="#E0E0E0"/>
<stop offset="1" stop-color="#E7E7E8"/>
</linearGradient>
<linearGradient id="paint2_linear_1129_38221" x1="267.91" y1="41.3067" x2="269.493" y2="11.0971" gradientUnits="userSpaceOnUse">
<stop stop-opacity="0.2"/>
<stop offset="1"/>
</linearGradient>
<linearGradient id="paint3_linear_1129_38221" x1="268.802" y1="40.549" x2="270.298" y2="12.0037" gradientUnits="userSpaceOnUse">
<stop stop-opacity="0.2"/>
<stop offset="1"/>
</linearGradient>
<linearGradient id="paint4_linear_1129_38221" x1="495.434" y1="75.7539" x2="495.434" y2="49.6363" gradientUnits="userSpaceOnUse">
<stop stop-opacity="0.2"/>
<stop offset="1"/>
</linearGradient>
<linearGradient id="paint5_linear_1129_38221" x1="499.874" y1="13.8652" x2="499.874" y2="44.2999" gradientUnits="userSpaceOnUse">
<stop stop-color="#A4ACBC"/>
<stop offset="1" stop-color="#D4D7DF"/>
</linearGradient>
<linearGradient id="paint6_linear_1129_38221" x1="540.454" y1="62.2129" x2="540.454" y2="68.0821" gradientUnits="userSpaceOnUse">
<stop stop-color="#FFC900"/>
<stop offset="1" stop-color="#FFF15E"/>
</linearGradient>
<linearGradient id="paint7_linear_1129_38221" x1="445.449" y1="11.9062" x2="445.449" y2="47.8637" gradientUnits="userSpaceOnUse">
<stop stop-color="#E0E0E0"/>
<stop offset="1" stop-color="#E7E7E8"/>
</linearGradient>
<linearGradient id="paint8_linear_1129_38221" x1="296.905" y1="48.7982" x2="296.905" y2="11.9062" gradientUnits="userSpaceOnUse">
<stop stop-opacity="0.2"/>
<stop offset="1"/>
</linearGradient>
<linearGradient id="paint9_linear_1129_38221" x1="297.688" y1="47.9601" x2="297.688" y2="12.7451" gradientUnits="userSpaceOnUse">
<stop stop-opacity="0.2"/>
<stop offset="1"/>
</linearGradient>
<linearGradient id="paint10_linear_1129_38221" x1="21.0154" y1="20.7191" x2="21.0154" y2="0" gradientUnits="userSpaceOnUse">
<stop stop-color="#A4ACBC"/>
<stop offset="0.9859" stop-color="#B5BBCA"/>
</linearGradient>
<linearGradient id="paint11_linear_1129_38221" x1="21.0154" y1="20.7191" x2="21.0154" y2="0" gradientUnits="userSpaceOnUse">
<stop stop-color="#A4ACBC"/>
<stop offset="0.9859" stop-color="#B5BBCA"/>
</linearGradient>
<linearGradient id="paint12_linear_1129_38221" x1="205.275" y1="66.5967" x2="205.275" y2="73.4133" gradientUnits="userSpaceOnUse">
<stop stop-color="#C4C4C5"/>
<stop offset="1" stop-color="#D8D8D9"/>
</linearGradient>
<linearGradient id="paint13_linear_1129_38221" x1="212.769" y1="28.4715" x2="211.9" y2="53.3657" gradientUnits="userSpaceOnUse">
<stop stop-color="#E0E0E0"/>
<stop offset="1" stop-color="#E7E7E8"/>
</linearGradient>
<linearGradient id="paint14_linear_1129_38221" x1="191.842" y1="53.313" x2="192.734" y2="27.7718" gradientUnits="userSpaceOnUse">
<stop stop-opacity="0.2"/>
<stop offset="1"/>
</linearGradient>
<linearGradient id="paint15_linear_1129_38221" x1="192.591" y1="52.6607" x2="193.433" y2="28.5266" gradientUnits="userSpaceOnUse">
<stop stop-opacity="0.2"/>
<stop offset="1"/>
</linearGradient>
<linearGradient id="paint16_linear_1129_38221" x1="380.192" y1="71.5645" x2="380.192" y2="54.5336" gradientUnits="userSpaceOnUse">
<stop stop-opacity="0.2"/>
<stop offset="1"/>
</linearGradient>
<linearGradient id="paint17_linear_1129_38221" x1="342.862" y1="25.9238" x2="342.862" y2="54.6422" gradientUnits="userSpaceOnUse">
<stop stop-color="#E0E0E0"/>
<stop offset="1" stop-color="#E7E7E8"/>
</linearGradient>
<linearGradient id="paint18_linear_1129_38221" x1="218.103" y1="55.3885" x2="218.103" y2="25.9238" gradientUnits="userSpaceOnUse">
<stop stop-opacity="0.2"/>
<stop offset="1"/>
</linearGradient>
<linearGradient id="paint19_linear_1129_38221" x1="218.762" y1="54.7192" x2="218.762" y2="26.5938" gradientUnits="userSpaceOnUse">
<stop stop-opacity="0.2"/>
<stop offset="1"/>
</linearGradient>
<linearGradient id="paint20_linear_1129_38221" x1="417.581" y1="66.8223" x2="417.581" y2="72.2911" gradientUnits="userSpaceOnUse">
<stop stop-color="#FFC900"/>
<stop offset="1" stop-color="#FFF15E"/>
</linearGradient>
<linearGradient id="paint21_linear_1129_38221" x1="388.414" y1="27.1514" x2="388.414" y2="50.3087" gradientUnits="userSpaceOnUse">
<stop stop-color="#A4ACBC"/>
<stop offset="1" stop-color="#D4D7DF"/>
</linearGradient>
<linearGradient id="paint22_linear_1129_38221" x1="20.1595" y1="19.3058" x2="20.1595" y2="0" gradientUnits="userSpaceOnUse">
<stop stop-color="#A4ACBC"/>
<stop offset="0.9859" stop-color="#B5BBCA"/>
</linearGradient>
<linearGradient id="paint23_linear_1129_38221" x1="20.1595" y1="19.3058" x2="20.1595" y2="0" gradientUnits="userSpaceOnUse">
<stop stop-color="#A4ACBC"/>
<stop offset="0.9859" stop-color="#B5BBCA"/>
</linearGradient>
<linearGradient id="paint24_linear_1129_38221" x1="24.5646" y1="83.6661" x2="24.3229" y2="80.9029" gradientUnits="userSpaceOnUse">
<stop stop-color="#A4ACBC"/>
<stop offset="0.9859" stop-color="#B5BBCA"/>
</linearGradient>
<linearGradient id="paint25_linear_1129_38221" x1="188.655" y1="77.0039" x2="188.655" y2="59.7601" gradientUnits="userSpaceOnUse">
<stop stop-opacity="0.2"/>
<stop offset="1"/>
</linearGradient>
<linearGradient id="paint26_linear_1129_38221" x1="193.714" y1="35.6299" x2="193.714" y2="53.6516" gradientUnits="userSpaceOnUse">
<stop stop-color="#A4ACBC"/>
<stop offset="1" stop-color="#D4D7DF"/>
</linearGradient>
<linearGradient id="paint27_linear_1129_38221" x1="245.405" y1="75.7689" x2="245.405" y2="62.9971" gradientUnits="userSpaceOnUse">
<stop stop-color="#A4ACBC"/>
<stop offset="0.9859" stop-color="#B5BBCA"/>
</linearGradient>
<linearGradient id="paint28_linear_1129_38221" x1="245.318" y1="65.4736" x2="245.318" y2="72.614" gradientUnits="userSpaceOnUse">
<stop stop-color="#FFC900"/>
<stop offset="1" stop-color="#FFF15E"/>
</linearGradient>
<linearGradient id="paint29_linear_1129_38221" x1="151.578" y1="92.4646" x2="151.578" y2="89.75" gradientUnits="userSpaceOnUse">
<stop stop-color="#A4ACBC"/>
<stop offset="0.9859" stop-color="#B5BBCA"/>
</linearGradient>
<linearGradient id="paint30_linear_1129_38221" x1="48.987" y1="85.8969" x2="48.987" y2="80.4678" gradientUnits="userSpaceOnUse">
<stop stop-color="#A4ACBC"/>
<stop offset="0.9859" stop-color="#B5BBCA"/>
</linearGradient>
<linearGradient id="paint31_linear_1129_38221" x1="15.3506" y1="14.93" x2="15.3506" y2="0" gradientUnits="userSpaceOnUse">
<stop stop-color="#A4ACBC"/>
<stop offset="0.9859" stop-color="#B5BBCA"/>
</linearGradient>
<linearGradient id="paint32_linear_1129_38221" x1="15.3506" y1="14.93" x2="15.3506" y2="0" gradientUnits="userSpaceOnUse">
<stop stop-color="#A4ACBC"/>
<stop offset="0.9859" stop-color="#B5BBCA"/>
</linearGradient>
</defs>
</svg>
