<svg fill="none" height="86" viewBox="0 0 212 86" width="212" xmlns="http://www.w3.org/2000/svg" xmlns:xlink="http://www.w3.org/1999/xlink"><mask id="a" height="22" maskUnits="userSpaceOnUse" width="4" x="2" y="29"><path clip-rule="evenodd" d="m4.56741 38.7422c.09149-2.6079.72725-8.8555.72725-8.8555.03684-.3692-.24299-.6792-.62226-.6924l-.91838-.0319c-.3805-.0132-.71925.2761-.75679.6525 0 0-.63286 6.1889-.72347 8.7714-.12339 3.5171.23783 11.4672.23783 11.4672.01605.3711.33875.6828.71803.696l.91837.0319c.38051.0133.67564-.2759.65946-.6515 0 0-.36255-7.8959-.24004-11.3877z" fill="#fff" fill-rule="evenodd"/></mask><mask id="b" height="5" maskUnits="userSpaceOnUse" width="8" x="202" y="51"><path clip-rule="evenodd" d="m209.096 51.0977h-6.941l1.349 4.8779h5.848z" fill="#fff" fill-rule="evenodd"/></mask><mask id="c" height="1" maskUnits="userSpaceOnUse" width="3" x="184" y="44"><path clip-rule="evenodd" d="m186.285 44.482c0-.2053-.15-.3716-.344-.3716h-1.398c-.19 0-.344.1723-.344.3716 0 .2053.15.3716.344.3716h1.398c.19 0 .344-.1724.344-.3716z" fill="#fff" fill-rule="evenodd"/></mask><path clip-rule="evenodd" d="m2.67171 67.5393s-1.9267-7.386-1.9267-22.8674c0-15.4813 4.37888-39.38438 4.37888-39.38438.42671-2.59553 2.89921-4.699629 5.52621-4.699629h131.2279c15.799 0 44.687 33.937709 44.687 33.937709s20.312 9.1828 22.418 14.6953c2.106 5.5124 1.22 19.7237-3.345 22.9986-1.199.8597-14.698 1.2736-33.956 1.4164-.026.3436-.317.6263-.672.6263h-163.17875c-.36761 0-.67329-.3023-.67329-.6753v-1.4423c-2.17673-.538-4.08905-2.4075-4.48625-4.6053z" fill="#1c1f34" fill-rule="evenodd"/><path d="m0 0h132.915v2.77269h-132.915z" fill="#1c1f34" transform="matrix(-1 0 0 1 176.637 74.2627)"/><path clip-rule="evenodd" d="m4.26129 67.623s-1.92593-7.3704-1.92593-22.8191 4.56877-39.28766 4.56877-39.28766c.32072-1.84704 2.09924-3.34436 3.98067-3.34436 0 0 113.2912-.00001 131.1712 0 15.792-.00001 42.633 33.18662 42.633 33.18662s20.957 8.9597 23.088 13.9847c2.13 5.0251 1.219 18.3232-3.344 21.5912-2.239 1.6032-48.333 2.0044-93.113 2.0384-19.1608.0145-36.7968.2192-52.7595 0h-50.49914c-.36748 0-.67302-.3017-.67302-.6739v-.5994c-1.57138-.8336-2.81522-2.3542-3.12705-4.0765z" fill="#fff" fill-rule="evenodd"/><path clip-rule="evenodd" d="m208.522 49.769s-9.24-5.6381-14.221-7.7224c-3.711-1.553-11.856-3.1895-11.856-3.1895l-.252.6881s8.168 1.6463 11.892 3.2043c4.969 2.0794 14.186 7.7077 14.186 7.7077z" fill="#242d5f" fill-rule="evenodd" opacity=".1"/><path clip-rule="evenodd" d="m172.611 45.0299.039.7441c.089 1.6773-.809 4.0272-1.997 5.2419l-9.008 9.2047c-.952.9736-2.845 1.7628-4.243 1.7628h-9.708c-1.391 0-2.508-1.0869-2.496-2.4328l.121-16.0794c.012-1.3436 1.147-2.4544 2.53-2.481l22.777 2.2582c1.043-.0201 1.932.7778 1.985 1.7815z" fill="#fff" fill-rule="evenodd"/><path clip-rule="evenodd" d="m172.611 45.0299.039.7441c.089 1.6773-.809 4.0272-1.997 5.2419l-9.008 9.2047c-.952.9736-2.845 1.7628-4.243 1.7628h-9.708c-1.391 0-2.508-1.0869-2.496-2.4328l.121-16.0794c.012-1.3436 1.147-2.4544 2.53-2.481l22.777 2.2582c1.043-.0201 1.932.7778 1.985 1.7815z" fill="#000" fill-opacity=".05" fill-rule="evenodd"/><path clip-rule="evenodd" d="m165.891 56.0415s-26.302-5.5454-39.453-5.5454c-37.2089 0-121.31894 0-121.31894 0v.6932h120.97294c13.035 0 39.106 4.8522 39.106 4.8522z" fill="#242d5f" fill-rule="evenodd" opacity=".1"/><path clip-rule="evenodd" d="m154.75 10.0948s-4.421-3.96101-16.472-3.96101c-34.098 0-132.36107 0-132.36107 0v.66016h132.72207c11.945 0 14.754 2.64066 14.754 2.64066z" fill="#242d5f" fill-rule="evenodd" opacity=".1"/><path d="m0 0h44.9683v.792197h-44.9683z" fill="#242d5f" opacity=".1" transform="matrix(-1 0 0 1 137.242 6.13379)"/><path d="m0 0h106.65v2.77269h-106.65z" fill="#000" opacity=".2" transform="matrix(-1 0 0 1 160.719 61.1914)"/><path clip-rule="evenodd" d="m171.863 58.8145h-126.5476v9.1102h126.5476z" fill="#1c1f34" fill-rule="evenodd"/><path d="m0 0h1.35671v67.4109h-1.35671z" fill="#1c1f34" transform="matrix(-1 0 0 1 138.23 6.13379)"/><path clip-rule="evenodd" d="m127.721 44.2656c-.564 0-1.022.4534-1.022 1.0214 0 .5641.459 1.0214 1.022 1.0214h4.062c.564 0 1.022-.4534 1.022-1.0214 0-.5641-.459-1.0214-1.022-1.0214z" fill="#1c1f34" fill-rule="evenodd"/><path clip-rule="evenodd" d="m177.986 52.4879c7.036-5.6606 4.344-18.3393 4.344-18.3393l-1.14-1.4591s2.621 12.951-3.732 18.8968c-6.936 5.8735-9.378 21.9582-9.378 21.9582h1.14s3.02-15.4992 8.766-21.0566z" fill="#1c1f34" fill-rule="evenodd"/><path clip-rule="evenodd" d="m143.323 44.2656c-.565 0-1.022.4534-1.022 1.0214 0 .5641.459 1.0214 1.022 1.0214h4.061c.565 0 1.022-.4534 1.022-1.0214 0-.5641-.459-1.0214-1.022-1.0214z" fill="#1c1f34" fill-rule="evenodd"/><path clip-rule="evenodd" d="m175.594 39.4059c3.352.3862 4.559-1.5891 2.628-4.3586 0 0-1.927-3.4622-8.33-10.3337-6.402-6.8715-10.049-10.5316-10.049-10.5316-1.312-1.3382-3.892-2.5628-5.751-2.7343l-8.971-.8276c-2.615-.2413-4.468 1.6749-4.136 4.2922l2.039 16.0817c.331 2.6118 2.713 4.9725 5.322 5.273z" fill="#1c1f34" fill-rule="evenodd"/><path clip-rule="evenodd" d="m176.155 37.8004c1.116.1262 1.505-.523.865-1.4558l-3.217-4.6934c-1.062-1.5491-2.963-3.9232-4.234-5.2898l-10.626-11.4285c-1.021-1.099-3.064-2.098-4.552-2.2304l-9.908-.8811c-1.492-.1328-2.547.97-2.356 2.4593l2.211 17.2613c.191 1.491 1.558 2.8367 3.044 3.0048z" fill="#a4acbc" fill-rule="evenodd"/><path clip-rule="evenodd" d="m145.289 21.0566c-.043-.7205-.665-1.3046-1.39-1.3046h.391c-.724 0-1.312.5877-1.312 1.3046v4.8808c0 .7205.582 1.3046 1.308 1.3046h.063c.723 0 1.273-.5877 1.231-1.3046z" fill="#1c1f34" fill-rule="evenodd"/><path clip-rule="evenodd" d="m145.011 29.2852h-.672c-.751 0-1.193.5844-.985 1.315l2.339 4.1323h2.713l-1.558-4.1702c-.263-.7053-1.083-1.2771-1.837-1.2771z" fill="#1c1f34" fill-rule="evenodd"/><path clip-rule="evenodd" d="m165.124 37.1603c-.273.4936-.889-.0145-1.381-.288-.495-.2753-.67-.2118-.399-.7023l3.294-5.9659c.273-.4935.889-.6664 1.381-.3929.495.2754.67.8928.399 1.3833l-1.791 3.2434 2.232 1.8227-.988 1.6509-2.563-1.0851z" fill="#1c1f34" fill-rule="evenodd"/><path clip-rule="evenodd" d="m178.254 36.2864-3.86-6.4075-10.263 7.673 13.445 1.2654z" fill="#1c1f34" fill-rule="evenodd"/><path clip-rule="evenodd" d="m176.877 36.7358c.204-2.211-1.099-6.0044-1.099-6.0044-.234-.7539-1.072-1.5596-1.87-1.7993l-.875-.263c-.798-.2398-1.504.1976-1.577.9867l-1.059 11.4326c-.072.7847.546 1.4768 1.376 1.5454l1.512.1249c.833.0688 1.755-.4752 2.049-1.2087 0 0 1.399-3.2675 1.543-4.8142z" fill="#242d5f" fill-rule="evenodd" opacity=".1"/><path clip-rule="evenodd" d="m176.876 35.409c.165-1.8891-.63-4.9452-.63-4.9452-.168-.7324-.876-1.5353-1.579-1.7925l.03.0108c-.704-.2575-1.327.1385-1.392.8855l-.828 9.4927c-.065.7466.483 1.4046 1.233 1.4705l.338.0296c.746.0656 1.548-.4649 1.781-1.1765 0 0 .932-2.6533 1.047-3.9749z" fill="#1c1f34" fill-rule="evenodd"/><g clip-rule="evenodd" fill="#fff" fill-rule="evenodd" opacity=".1"><path d="m165.064 26.7369-7.856-9.3976c-.239-.2857-.663-.3231-.952-.0796-.287.2417-.321.6751-.087.955l7.856 9.3976c.239.2857.663.3231.952.0796.287-.2417.321-.6751.087-.955z"/><path d="m159.13 24.0684c.144-.1208.159-.3392.042-.4799l-3.052-3.6508c-.121-.1441-.339-.1595-.478-.0422-.144.1209-.16.3393-.042.4799l3.052 3.6508c.121.1442.339.1596.478.0422z"/></g><path clip-rule="evenodd" d="m147.065 28.0558s.443-1.8923.039-2.6284l-2.178-4.4548 3.112-1.3665.076-1.0206s2.186.5569 4.228.3143c2.042-.2428 2.043-.4809 2.043-.4809l.097 1.9441.503 1.8843-.665.8206.174 2.3416-.695.8902-1.157-.0859-1.02 1.3448z" fill="#ffc79f" fill-rule="evenodd"/><path clip-rule="evenodd" d="m146.536 25.243s1.152.5935 1.416-.4581c.264-1.0517-.476-.6905-1.261-1.6324-.784-.9419.706-1.6498.706-1.6498l.585-.5488.176-2.3644s2.576.5877 4.186.3111 3.979-1.3017 4.58-2.4085c.198-.3631-1.493-1.2938-1.493-1.2938s-2.283-1.2122-7.479-.6447c-2.361.2578-2.993 1.9385-2.993 1.9385l-1.108.7242s-.687 1.5989-.209 3.4149c.478 1.8161 1.095 2.9157 1.095 2.9157z" fill="#fff399" fill-rule="evenodd"/><path d="m146.779 25.3888s-2.104-1.1146-2.806-3.3435c-.294-.9309-.41-1.7662-.432-2.4695-.034-1.0307.489-2.3652 1.101-3.1691.706-.8477 2.902-2.4362 6.042-2.0089 3.925.5342 6.504 1.3936 6.108 2.2293s-1.34 1.6003-2.381 1.7861" stroke="#1c1f34" stroke-linecap="round" stroke-linejoin="round" stroke-width=".601975"/><path d="m150.711 25.7768s1.114.433 2.895.5004c1.154.0437.875-1.4455.875-1.4455l-.196-1.8631s.478-.0102.656-.4166c.18-.4062-.159-1.1425-.378-1.8439-.195-.623-.173-2.2892-.173-2.2892" stroke="#1c1f34" stroke-linecap="round" stroke-linejoin="round" stroke-width=".601975"/><path d="m151.895 23.8672s.627 1.0093 2.649.4768" stroke="#1c1f34" stroke-linecap="round" stroke-linejoin="round" stroke-width=".451481"/><path d="m146.539 18.1602s4.129 1.5036 7.848.2591" stroke="#1c1f34" stroke-linecap="round" stroke-linejoin="round" stroke-width=".601975"/><path d="m148.039 19.6074-.08 1.8651s-1.55-.1358-1.488 1.0305c.061 1.1665 1.593 1.4993 1.593 1.4993-.016 1.7943-1.286 1.3874-1.286 1.3874s.888.9146.288 2.6674" stroke="#1c1f34" stroke-linecap="round" stroke-linejoin="round" stroke-width=".601975"/><path d="m152.932 26.2324s-1.049.1181-1.237 1.4688" stroke="#1c1f34" stroke-linecap="round" stroke-linejoin="round" stroke-width=".601975"/><path clip-rule="evenodd" d="m147.84 32.7122s-.203.6249 2.12 3.2805c0 0 2.182 4.4768 5.58 6.0629 0 0 6.774-3.3566 10.412-6.0891 0 0 2.64-.6469 2.64-2.2075 0 0 .15-1.2824-1.117-1.2824-1.03 0-1.168.2259-2.204.2259-.935 0-1.169 1.5141-1.169 1.5141s-4.011 1.2816-6.776 2.9108c0 0-.701-1.9009-2.329-3.498" fill="#ffc79f" fill-rule="evenodd"/><path clip-rule="evenodd" d="m148.082 33.8985c.568 0 .847.7207 1.035 1.2289.104.2811.641.6319.841.8656.295.3435.559.7207.826 1.0849.116.1579.23.3172.342.4762.433-.0203 3.333-.2706 4.377-3.3257l.412.5542.133-.2006c-.072-.0674-.14-.1451-.202-.2369-.68-1.0142-1.187-.351-1.507-1.5946-.147-.5704-.046-1.8839-.366-2.6882-.32-.8044-1.421-1.8279-2.09-2.4167-.012-.0107-.022-.022-.034-.033-.851-.2219-2.806-.6176-3.767.1248-.552.4263-1.084.7567-1.452 1.4192s-.696 1.9757-.696 1.9757.026.4187.174 1.7892c.061-.0085 1.561.3808 1.628.3808z" fill="#505fb4" fill-rule="evenodd"/><path d="m151.414 27.668c2.532.1882 3.054 3.5836 3.087 5.254" stroke="#1c1f34" stroke-linecap="round" stroke-linejoin="round" stroke-width=".601975"/><path d="m145.952 32.9147c-.244-2.1274-.186-4.1828 2.13-5.1774" stroke="#1c1f34" stroke-linecap="round" stroke-linejoin="round" stroke-width=".601975"/><path d="m147.84 32.7122s-.203.6249 2.12 3.2805c0 0 2.182 4.4768 5.58 6.0629 0 0 6.541-3.2048 10.412-6.0891 0 0 2.64-.6469 2.64-2.2075 0 0 .15-1.2824-1.117-1.2824-1.03 0-1.168.2259-2.204.2259-.935 0-1.169 1.5141-1.169 1.5141s-4.011 1.2816-6.776 2.9108c0 0-1.193-2.6088-2.821-4.2059" stroke="#1c1f34" stroke-linecap="round" stroke-linejoin="round" stroke-width=".601975"/><path d="m145.281 33.2666 2.222.0627" stroke="#1c1f34" stroke-linecap="round" stroke-linejoin="round" stroke-width=".601975"/><path clip-rule="evenodd" d="m5.75385 38.6215c.10293-2.9339.6428-8.7459.6428-8.7459.09908-1.1114-.74474-2.0444-1.89397-2.0843l-.31337-.0109c-1.14509-.0398-2.15518.8303-2.25414 1.9469 0 0-.53648 5.7482-.63842 8.6536-.13881 3.9567.3117 11.6062.3117 11.6062.05948 1.1119 1.03184 2.0455 2.18106 2.0854l.31337.0109c1.14509.0398 2.02306-.8313 1.96397-1.9542 0 0-.45082-7.5795-.313-11.5077z" fill="#1c1f34" fill-rule="evenodd"/><path clip-rule="evenodd" d="m4.56741 38.7422c.09149-2.6079.72725-8.8555.72725-8.8555.03684-.3692-.24299-.6792-.62226-.6924l-.91838-.0319c-.3805-.0132-.71925.2761-.75679.6525 0 0-.63286 6.1889-.72347 8.7714-.12339 3.5171.23783 11.4672.23783 11.4672.01605.3711.33875.6828.71803.696l.91837.0319c.38051.0133.67564-.2759.65946-.6515 0 0-.36255-7.8959-.24004-11.3877z" fill="#c10000" fill-rule="evenodd"/><g mask="url(#a)"><path clip-rule="evenodd" d="m3.11265 41.9676-.87802.0153.20163 8.0947 1.03384-.0179z" fill="#fff" fill-rule="evenodd" opacity=".4"/></g><path clip-rule="evenodd" d="m209.13 49.7041h-7.063c-.776 0-1.258.6015-1.075 1.3528l1.208 4.9597c.182.7471.964 1.3528 1.738 1.3528h5.271c.778 0 1.46-.6273 1.521-1.3881l-.308-4.8891c.062-.7666-.517-1.3881-1.292-1.3881z" fill="#1c1f34" fill-rule="evenodd"/><path clip-rule="evenodd" d="m209.096 51.0977h-6.941l1.349 4.8779h5.848z" fill="#ffc900" fill-rule="evenodd"/><g mask="url(#b)"><ellipse cx=".933319" cy="1.64259" fill="#fff" rx=".933319" ry="1.64259" transform="matrix(-.998642 .0520932 .0525798 .998617 209.234 51.8584)"/><path clip-rule="evenodd" d="m203.859 49.7041h-2.659v7.1178h4.07z" fill="#f00" fill-rule="evenodd" opacity=".2"/></g><path clip-rule="evenodd" d="m186.98 44.4821c0-.6157-.468-1.1149-1.043-1.1149h-1.39c-.577 0-1.044.4949-1.044 1.1149 0 .6158.469 1.115 1.044 1.115h1.39c.576 0 1.043-.4949 1.043-1.115z" fill="#1c1f34" fill-rule="evenodd"/><path clip-rule="evenodd" d="m186.285 44.482c0-.2053-.15-.3716-.344-.3716h-1.398c-.19 0-.344.1723-.344.3716 0 .2053.15.3716.344.3716h1.398c.19 0 .344-.1724.344-.3716z" fill="#f5a623" fill-rule="evenodd"/><g mask="url(#c)"><path d="m0 0h1.39083v.743292h-1.39083z" fill="#fff" transform="matrix(-1 0 0 1 186.98 44.1104)"/></g><g clip-rule="evenodd" fill-rule="evenodd" opacity=".5"><path d="m126.097 10.4912h-107.1519c-3.7369 0-7.047 3.0084-7.393 6.7146l-1.5163 16.2431c-.34623 3.7083 2.4016 6.7145 6.1389 6.7145h109.9233c3.736 0 6.765-3.0222 6.765-6.7423v-16.1875c0-3.7237-3.026-6.7424-6.766-6.7424z" fill="#e0e0e0"/><path d="m126.097 10.4912h-107.1519c-3.7369 0-7.047 3.0084-7.393 6.7146l-1.5163 16.2431c-.34623 3.7083 2.4016 6.7145 6.1389 6.7145h109.9233c3.736 0 6.765-3.0222 6.765-6.7423v-16.1875c0-3.7237-3.026-6.7424-6.766-6.7424z" fill="#000" fill-opacity=".3"/></g><path clip-rule="evenodd" d="m126.095 11.166h-107.172c-3.3646 0-6.3533 2.703-6.6759 6.0414l-1.5693 16.2407c-.3224 3.3365 2.1392 6.0413 5.5097 6.0413h109.9065c3.365 0 6.094-2.7157 6.094-6.0674v-16.1886c0-3.3509-2.725-6.0674-6.093-6.0674z" fill="#fff" fill-rule="evenodd"/><path clip-rule="evenodd" d="m126.095 11.166h-107.172c-3.3646 0-6.3533 2.703-6.6759 6.0414l-1.5693 16.2407c-.3224 3.3365 2.1392 6.0413 5.5097 6.0413h109.9065c3.365 0 6.094-2.7157 6.094-6.0674v-16.1886c0-3.3509-2.725-6.0674-6.093-6.0674z" fill="#000" fill-opacity=".05" fill-rule="evenodd"/><path clip-rule="evenodd" d="m126.094 13.1885h-107.2492c-2.2435 0-4.2584 1.8049-4.4993 4.0225l-1.7635 16.2322c-.2413 2.2216 1.3753 4.0225 3.6283 4.0225h109.8807c2.245 0 4.065-1.8049 4.065-4.0498v-16.1776c0-2.2367-1.812-4.0498-4.062-4.0498z" fill="#fff" fill-rule="evenodd"/><path clip-rule="evenodd" d="m188.176 36.6329s-9.4-10.3961-14.439-15.5942c-3.359-3.465-10.077-9.0329-10.077-9.0329l-2.87-2.30756-1.783.24214c-.743.10082-.898.59862-.349 1.11212 0 0 8.609 7.9992 12.61 12.3071 3.859 4.1545 10.899 12.4635 10.899 12.4635z" fill="#1c1f34" fill-rule="evenodd"/><path clip-rule="evenodd" d="m50.8828 39.0098v1.9805h41.7847v-1.9805z" fill="#1c1f34" fill-rule="evenodd"/><path d="m0 0h1.5918v67.3367h-1.5918z" fill="#1c1f34" transform="matrix(-1 0 0 1 93.0703 6.13379)"/><path clip-rule="evenodd" d="m211.148 60.8087c.428-1.4395-.432-2.6066-1.927-2.6066h-22.906c-1.492 0-2.702 1.2191-2.702 2.7195v12.9244c0 1.5019 1.187 2.4866 2.643 2.2009l18.98-3.7237c1.459-.2864 2.991-1.6901 3.418-3.1252z" fill="#1c1f34" fill-rule="evenodd"/><ellipse cx="18.8732" cy="10.966" fill="#242d5f" opacity=".1" rx="18.8732" ry="10.966" transform="matrix(-1 0 0 1 199.125 52.0811)"/><ellipse cx="16.8782" cy="10.6383" fill="#1c1f34" rx="16.8782" ry="10.6383" transform="matrix(-1 0 0 1 197.105 54.1211)"/><path clip-rule="evenodd" d="m24.8682 67.0126c1.4919 0 2.7056-1.2174 2.7056-2.7192v-3.3847c0-1.5017.1395-2.7192-1.356-2.7192h-22.06971c-1.49504 0-2.63148 1.212-2.53715 2.7072l.3381 4.415c.11308 1.4981 2.4631 7.3789 3.11162 8.3571.64853.9781 3.04365.9269 3.04365.9269 1.47687.2 2.53189-1.5572 2.34559-3.0481l-.56671-4.535z" fill="#1c1f34" fill-rule="evenodd"/><ellipse cx="38.1536" cy="62.637" fill="#242d5f" opacity=".1" rx="18.927" ry="10.556"/><ellipse cx="38.063" cy="64.6943" fill="#1c1f34" rx="16.8638" ry="10.5771"/><ellipse cx="14.2022" cy="14.2309" fill="#1c1f34" rx="14.2022" ry="14.2309" transform="matrix(-1 0 0 1 194.547 57.2305)"/><ellipse cx="8.7918" cy="8.8096" fill="#a4acbc" rx="8.7918" ry="8.8096" transform="matrix(-1 0 0 1 189.137 62.6523)"/><g fill="#1c1f34"><ellipse cx="4.73404" cy="4.7436" rx="4.73404" ry="4.7436" transform="matrix(-1 0 0 1 185.078 66.7178)"/><ellipse cx=".67627" cy=".677651" rx=".67627" ry=".677651" transform="matrix(-1 0 0 1 181.02 64.0068)"/><ellipse cx=".67627" cy=".677651" rx=".67627" ry=".677651" transform="matrix(-1 0 0 1 181.016 77.5596)"/><ellipse cx=".675903" cy=".678022" rx=".675903" ry=".678022" transform="matrix(-.940203 .340614 .34343 .939178 178.43 64.2256)"/><ellipse cx=".675903" cy=".678022" rx=".675903" ry=".678022" transform="matrix(-.940203 .340614 .34343 .939178 183.055 76.9619)"/><ellipse cx=".674972" cy=".678961" rx=".674972" ry=".678961" transform="matrix(-.767517 .641028 .644545 .764566 176.074 65.3184)"/><ellipse cx=".674972" cy=".678961" rx=".674972" ry=".678961" transform="matrix(-.767517 .641028 .644545 .764566 184.766 75.7002)"/><ellipse cx=".673912" cy=".680027" rx=".673912" ry=".680027" transform="matrix(-.501749 .865013 .867032 .498253 174.23 67.1514)"/><ellipse cx=".673912" cy=".680027" rx=".673912" ry=".680027" transform="matrix(-.501749 .865013 .867032 .498253 185.945 73.9277)"/><ellipse cx=".67322" cy=".680722" rx=".67322" ry=".680722" transform="matrix(-.174435 .984669 .984946 .172865 173.125 69.5039)"/><ellipse cx=".67322" cy=".680722" rx=".67322" ry=".680722" transform="matrix(-.174435 .984669 .984946 .172865 186.449 71.8574)"/><ellipse cx=".67322" cy=".680722" rx=".67322" ry=".680722" transform="matrix(.174435 .984669 .984946 -.172865 172.891 72.0928)"/><ellipse cx=".67322" cy=".680722" rx=".67322" ry=".680722" transform="matrix(.174435 .984669 .984946 -.172865 186.211 69.7393)"/><ellipse cx=".673912" cy=".680027" rx=".673912" ry=".680027" transform="matrix(.501749 .865013 .867032 -.498253 173.555 74.6055)"/><ellipse cx=".673912" cy=".680027" rx=".673912" ry=".680027" transform="matrix(.501749 .865013 .867032 -.498253 185.27 67.8281)"/><ellipse cx=".674972" cy=".678961" rx=".674972" ry=".678961" transform="matrix(.767517 .641028 .644545 -.764566 175.035 76.7383)"/><ellipse cx=".674972" cy=".678961" rx=".674972" ry=".678961" transform="matrix(.767517 .641028 .644545 -.764566 183.73 66.3564)"/><ellipse cx=".675903" cy=".678022" rx=".675903" ry=".678022" transform="matrix(.940203 .340614 .34343 -.939178 177.16 78.2354)"/><ellipse cx=".675903" cy=".678022" rx=".675903" ry=".678022" transform="matrix(.940203 .340614 .34343 -.939178 181.785 65.499)"/><ellipse cx="14.2022" cy="14.2309" rx="14.2022" ry="14.2309" transform="matrix(-1 0 0 1 52.4727 57.2305)"/></g><ellipse cx="8.7918" cy="8.8096" fill="#a4acbc" rx="8.7918" ry="8.8096" transform="matrix(-1 0 0 1 47.0625 62.6523)"/><ellipse cx="4.73404" cy="4.7436" fill="#1c1f34" rx="4.73404" ry="4.7436" transform="matrix(-1 0 0 1 43.0039 66.7178)"/><ellipse cx=".67627" cy=".677651" fill="#1c1f34" rx=".67627" ry=".677651" transform="matrix(-1 0 0 1 38.9531 64.0068)"/><ellipse cx=".67627" cy=".677651" fill="#1c1f34" rx=".67627" ry=".677651" transform="matrix(-1 0 0 1 38.9492 77.5605)"/><ellipse cx=".675903" cy=".678022" fill="#1c1f34" rx=".675903" ry=".678022" transform="matrix(-.940203 .340614 .34343 .939178 36.3594 64.2266)"/><ellipse cx=".675903" cy=".678022" fill="#1c1f34" rx=".675903" ry=".678022" transform="matrix(-.940203 .340614 .34343 .939178 40.9883 76.9619)"/><ellipse cx=".674972" cy=".678961" fill="#1c1f34" rx=".674972" ry=".678961" transform="matrix(-.767517 .641028 .644545 .764566 34.0078 65.3184)"/><ellipse cx=".674972" cy=".678961" fill="#1c1f34" rx=".674972" ry=".678961" transform="matrix(-.767517 .641028 .644545 .764566 42.6992 75.7002)"/><ellipse cx=".673912" cy=".680027" fill="#1c1f34" rx=".673912" ry=".680027" transform="matrix(-.501749 .865013 .867032 .498253 32.1641 67.1514)"/><ellipse cx=".673912" cy=".680027" fill="#1c1f34" rx=".673912" ry=".680027" transform="matrix(-.501749 .865013 .867032 .498253 43.8789 73.9277)"/><ellipse cx=".67322" cy=".680722" fill="#1c1f34" rx=".67322" ry=".680722" transform="matrix(-.174435 .984669 .984946 .172865 31.0586 69.5039)"/><ellipse cx=".67322" cy=".680722" fill="#1c1f34" rx=".67322" ry=".680722" transform="matrix(-.174435 .984669 .984946 .172865 44.3828 71.8574)"/><ellipse cx=".67322" cy=".680722" fill="#1c1f34" rx=".67322" ry=".680722" transform="matrix(.174435 .984669 .984946 -.172865 30.8242 72.0928)"/><ellipse cx=".67322" cy=".680722" fill="#1c1f34" rx=".67322" ry=".680722" transform="matrix(.174435 .984669 .984946 -.172865 44.1484 69.7393)"/><ellipse cx=".673912" cy=".680027" fill="#1c1f34" rx=".673912" ry=".680027" transform="matrix(.501749 .865013 .867032 -.498253 31.4883 74.6055)"/><ellipse cx=".673912" cy=".680027" fill="#1c1f34" rx=".673912" ry=".680027" transform="matrix(.501749 .865013 .867032 -.498253 43.2031 67.8291)"/><ellipse cx=".674972" cy=".678961" fill="#1c1f34" rx=".674972" ry=".678961" transform="matrix(.767517 .641028 .644545 -.764566 32.9688 76.7383)"/><ellipse cx=".674972" cy=".678961" fill="#1c1f34" rx=".674972" ry=".678961" transform="matrix(.767517 .641028 .644545 -.764566 41.6641 66.3564)"/><ellipse cx=".675903" cy=".678022" fill="#1c1f34" rx=".675903" ry=".678022" transform="matrix(.940203 .340614 .34343 -.939178 35.0938 78.2354)"/><ellipse cx=".675903" cy=".678022" fill="#1c1f34" rx=".675903" ry=".678022" transform="matrix(.940203 .340614 .34343 -.939178 39.7188 65.499)"/></svg>